<svg width="161" height="50" fill="none" xmlns="http://www.w3.org/2000/svg"><path d="M84.945 12.607c0 1.8-1.45 3.253-3.253 3.253a3.244 3.244 0 0 1-3.253-3.253c0-1.8 1.406-3.253 3.253-3.253 1.844.047 3.253 1.497 3.253 3.253Zm-13.446 6.547v.791s-1.537-2.022-4.878-2.022c-5.447 0-9.711 4.173-9.711 9.93 0 5.714 4.217 9.931 9.711 9.931 3.34 0 4.878-2.066 4.878-2.066v.836c0 .394.306.704.704.704h4.042V18.452h-4.042a.721.721 0 0 0-.704.701Zm0 12.084c-.749 1.099-2.242 2.066-4.042 2.066-3.209 0-5.67-2.022-5.67-5.403 0-3.428 2.461-5.404 5.67-5.404 1.756 0 3.34 1.011 4.042 2.066v6.675Zm7.776-12.786h4.79v18.85h-4.79v-18.85Zm71.84-.485c-3.297 0-4.878 2.022-4.878 2.022V9.401h-4.79v27.901h4.042c.394 0 .704-.35.704-.704v-.836s1.538 2.066 4.878 2.066c5.447 0 9.711-4.217 9.711-9.93 0-5.755-4.264-9.931-9.667-9.931Zm-.792 15.25c-1.844 0-3.297-.968-4.042-2.067V24.43c.748-1.012 2.373-2.067 4.042-2.067 3.209 0 5.669 2.023 5.669 5.404 0 3.472-2.46 5.45-5.669 5.45Zm-11.38-7.076v11.205h-4.79V26.67c0-3.118-1.011-4.348-3.691-4.348-1.45 0-2.943.748-3.91 1.844v13.136h-4.79v-18.85h3.822c.395 0 .705.35.705.705v.792c1.405-1.45 3.252-2.023 5.096-2.023 2.11 0 3.867.614 5.272 1.8 1.628 1.45 2.286 3.25 2.286 6.415Zm-28.912-8.174c-3.297 0-4.878 2.022-4.878 2.022V9.401h-4.79v27.901h4.042c.395 0 .705-.35.705-.704v-.836s1.537 2.066 4.877 2.066c5.448 0 9.712-4.217 9.712-9.93.043-5.755-4.217-9.931-9.668-9.931Zm-.789 15.25c-1.844 0-3.297-.968-4.042-2.067V24.43c.749-1.012 2.373-2.067 4.042-2.067 3.209 0 5.67 2.023 5.67 5.404-.003 3.472-2.464 5.45-5.67 5.45ZM96.19 17.967c1.45 0 2.198.263 2.198.263v4.44s-3.998-1.363-6.502 1.492v13.18h-4.79V18.45h4.041c.395 0 .705.35.705.704v.793c.923-1.056 2.855-1.98 4.348-1.98Zm-49.956 17.62c-.263-.614-.482-1.275-.748-1.8-.395-.924-.792-1.757-1.143-2.55l-.044-.043c-3.471-7.514-7.163-15.115-11.073-22.628l-.131-.307a59.702 59.702 0 0 1-1.187-2.373c-.482-.924-1.011-1.844-1.8-2.768A8.024 8.024 0 0 0 23.738 0c-2.505 0-4.747 1.099-6.416 2.987a16.306 16.306 0 0 0-1.8 2.767c-.394.792-.792 1.581-1.186 2.373l-.132.307c-3.866 7.514-7.601 15.115-11.073 22.629l-.044.087c-.35.792-.748 1.669-1.143 2.549-.262.57-.482 1.142-.748 1.8-.66 1.844-.836 3.603-.613 5.403a10.688 10.688 0 0 0 6.502 8.306c1.318.57 2.636.792 4.042.792.394 0 .923-.044 1.318-.088 1.668-.219 3.34-.748 5.009-1.712 2.066-1.143 3.998-2.812 6.195-5.228 2.198 2.416 4.217 4.041 6.196 5.228a13.311 13.311 0 0 0 5.01 1.712c.394.044.923.088 1.317.088 1.406 0 2.812-.263 4.042-.792 3.516-1.406 5.976-4.615 6.502-8.306.395-1.712.176-3.468-.482-5.316ZM23.65 38.178c-2.723-3.428-4.439-6.634-5.053-9.314-.262-1.143-.306-2.154-.13-3.074.087-.793.393-1.494.791-2.11.967-1.362 2.548-2.198 4.392-2.198 1.844 0 3.516.792 4.393 2.197.394.614.704 1.318.792 2.11.131.924.088 1.935-.132 3.075-.573 2.68-2.329 5.889-5.053 9.314Zm19.993 2.373c-.35 2.592-2.11 4.877-4.57 5.845-1.187.482-2.505.66-3.823.482-1.275-.132-2.505-.57-3.823-1.318-1.8-1.011-3.603-2.549-5.713-4.878 3.296-4.042 5.315-7.776 6.064-11.073.35-1.537.394-2.943.263-4.26-.22-1.275-.66-2.418-1.362-3.429-1.537-2.242-4.173-3.56-7.076-3.56-2.902 0-5.49 1.362-7.075 3.56-.704 1.011-1.143 2.154-1.362 3.428-.219 1.318-.131 2.768.263 4.26.748 3.297 2.812 7.076 6.064 11.118-2.066 2.285-3.91 3.866-5.713 4.878-1.318.748-2.548 1.142-3.823 1.318a8.533 8.533 0 0 1-3.822-.483c-2.46-1.01-4.217-3.252-4.571-5.844-.131-1.275-.044-2.505.438-3.91.132-.483.395-1.012.66-1.582.352-.792.75-1.668 1.144-2.504l.043-.088c3.472-7.47 7.163-15.071 11.03-22.497l.131-.307c.395-.748.792-1.537 1.187-2.285.394-.792.836-1.537 1.405-2.198 1.056-1.186 2.461-1.844 3.998-1.844 1.538 0 2.943.66 3.998 1.844.57.66 1.011 1.406 1.406 2.198.394.748.792 1.537 1.186 2.285l.132.307a664.879 664.879 0 0 1 10.985 22.54v.045c.395.792.749 1.712 1.143 2.504.263.614.482 1.1.66 1.581.577 1.318.752 2.549.533 3.867Z" fill="#FF5A5F"/></svg>