<svg width="120" height="189" viewBox="0 0 120 189" fill="none" xmlns="http://www.w3.org/2000/svg">
<path d="M45.3549 106.179C46.0449 109.765 46.8239 113.527 49.2079 116.292C52.9319 120.612 59.2999 121.192 64.9959 121.461C68.2229 121.613 71.9829 121.533 73.9579 118.978C75.4169 117.093 75.3629 114.5 75.6029 112.128C76.3679 104.576 80.6509 97.9249 83.7749 91.0079C91.7809 73.2829 92.2129 52.2839 84.9459 34.2439C83.9339 31.7339 82.7269 29.2049 80.6999 27.4109C78.4199 25.3949 75.3549 24.5289 72.3569 24.0069C58.7469 21.6339 32.4959 25.0269 33.3579 43.2649C34.3289 63.8159 41.4629 85.9549 45.3549 106.179Z" fill="#FFE7FB"/>
<path d="M104.819 185.626C107.325 185.696 110.03 185.709 112.071 184.255C115.528 181.793 115.284 176.667 114.608 172.477C112.253 157.881 108.243 142.078 96.2982 133.366C87.0902 126.651 74.9642 125.591 63.5762 125.992C54.4482 126.314 45.3622 127.419 36.3402 128.842C30.4532 129.77 24.3112 130.956 19.6732 134.7C13.2522 139.883 11.2202 148.644 9.58219 156.732C8.29219 163.097 2.16219 177.285 8.18419 182.036C13.7472 186.425 31.9182 183.575 38.8882 183.771C60.8652 184.389 82.8422 184.998 104.819 185.626Z" fill="#6987FF"/>
<path d="M48.6461 173.839C49.6321 178.148 51.0931 182.564 54.2661 185.643C57.4381 188.721 62.7541 189.979 66.3501 187.408C70.6811 184.312 70.4231 177.969 70.4321 172.646C70.4411 166.815 71.3161 160.987 73.0171 155.41C75.5051 147.256 79.7701 139.537 80.5581 131.049C80.8241 128.191 80.4951 124.905 78.2341 123.138C76.8601 122.064 75.0441 121.783 73.3121 121.576C63.7431 120.433 47.0581 117.564 44.0091 130.033C42.5511 135.993 45.0691 144.217 45.6151 150.265C46.3271 158.162 46.8731 166.088 48.6461 173.839Z" fill="#DBC9FF"/>
<path d="M45.172 74.6279C42.742 74.6519 40.31 74.6759 37.88 74.6999C37.181 74.7059 36.388 74.7549 35.94 75.2919C35.389 75.9519 35.716 77.0259 36.39 77.5599C37.065 78.0929 37.961 78.2289 38.813 78.3459C39.909 78.4969 41.005 78.6479 42.1 78.7989C43.644 79.0119 45.397 79.1679 46.587 78.1619C47.778 77.1559 47.33 74.6059 45.776 74.7239" fill="#F03FA3"/>
<path d="M79.3542 75.8477C76.9232 75.8717 74.4932 75.8947 72.0622 75.9187C71.3632 75.9257 70.5712 75.9747 70.1222 76.5117C69.5722 77.1717 69.8982 78.2457 70.5732 78.7797C71.2462 79.3127 72.1432 79.4487 72.9942 79.5657C74.0902 79.7167 75.1872 79.8677 76.2832 80.0187C77.8262 80.2307 79.5782 80.3877 80.7692 79.3817C81.9592 78.3757 81.5122 75.8257 79.9582 75.9447" fill="#F03FA3"/>
<path d="M40.9407 57.9367C41.6197 57.1217 42.4847 56.5527 43.3867 56.0887C44.2957 55.6347 45.2697 55.3207 46.2717 55.1377C48.2607 54.7787 50.4347 54.9277 52.2417 56.0067C51.2167 56.2947 50.2847 56.4097 49.3597 56.6087L46.6287 57.1047C44.8017 57.4157 43.0127 57.7827 40.9407 57.9367Z" fill="black"/>
<path d="M48.3528 65.5768C48.3528 67.1918 47.5318 68.4998 46.5178 68.4998C45.5048 68.4998 44.6838 67.1918 44.6838 65.5768C44.6838 63.9618 45.5048 62.6528 46.5178 62.6528C47.5318 62.6528 48.3528 63.9618 48.3528 65.5768Z" fill="black"/>
<path d="M81.0092 58.2486C78.9482 57.9776 77.1832 57.5106 75.3772 57.0976L72.6782 56.4486C71.7652 56.1986 70.8412 56.0306 69.8342 55.6846C71.7002 54.7106 73.8782 54.6836 75.8442 55.1536C76.8332 55.3926 77.7882 55.7616 78.6702 56.2656C79.5442 56.7806 80.3762 57.3966 81.0092 58.2486Z" fill="black"/>
<path d="M73.6838 65.5768C73.6838 67.1918 74.5048 68.4998 75.5188 68.4998C76.5318 68.4998 77.3528 67.1918 77.3528 65.5768C77.3528 63.9618 76.5318 62.6528 75.5188 62.6528C74.5048 62.6528 73.6838 63.9618 73.6838 65.5768Z" fill="black"/>
<path d="M58.7138 63.9209C58.8278 64.1719 58.0148 70.6659 55.9548 74.1379C55.9548 74.1379 55.5028 76.5279 60.1058 77.8269" stroke="black" stroke-miterlimit="10"/>
<path d="M54.1243 84.4517C54.1243 84.4517 62.2113 87.1327 68.4793 84.5897" stroke="black" stroke-miterlimit="10"/>
<path d="M47.9149 100.92L46.7749 112.96L46.3049 117.89L43.3449 119.75L26.7549 130.15C16.1849 136.78 8.73493 147.38 6.08493 159.57L1.05493 182.7" stroke="black" stroke-miterlimit="10"/>
<path d="M72.0051 100.04L72.4251 104.5L73.2451 113.09L73.6951 117.89L93.2451 130.15C103.815 136.78 111.265 147.38 113.915 159.57L118.945 182.7" stroke="black" stroke-miterlimit="10"/>
<path d="M91.7354 46.3696C91.7854 48.2596 91.7954 50.0896 91.7654 51.8596C91.7654 51.8996 91.7754 51.9296 91.7754 51.9496C91.7754 51.9596 91.7754 51.9796 91.7654 51.9896C91.4354 74.2996 85.4954 87.0696 78.8154 94.3696C76.5654 96.8296 74.2354 98.6596 72.0054 100.04C71.2654 100.5 70.5354 100.9 69.8254 101.26C64.1354 104.15 59.5754 104.15 59.5754 104.15C58.4254 104.15 57.3154 104.07 56.2554 103.92C53.1454 103.49 50.3854 102.44 47.9154 100.92C46.3054 99.9296 44.8254 98.7396 43.4754 97.3896C34.4154 88.4096 30.5554 72.3296 28.8354 60.6096L28.8254 60.5996C28.7554 60.1196 28.6854 59.6396 28.6254 59.1796C27.6254 51.9196 27.4454 46.6496 27.2854 46.3696" stroke="black" stroke-miterlimit="10"/>
<path d="M102.024 20.6968C107.833 40.7188 115.398 120.45 75.4567 118.998L72.0007 100.04C80.8697 94.5598 91.3206 81.7898 91.7607 51.9898C91.7707 51.9798 91.7707 51.9798 91.7707 51.9798C91.7707 51.9798 91.7707 51.9698 91.7707 51.9498C91.7707 51.9298 91.7607 51.8998 91.7607 51.8598C91.7106 50.9598 90.9507 44.9698 80.6597 30.4698C80.6597 30.4698 67.3907 46.3698 47.9107 46.3698C29.6207 46.3698 28.4007 55.5798 28.6207 59.1798C28.6807 60.0598 28.8207 60.5998 28.8207 60.5998L28.8307 60.6098C30.8107 74.0898 35.6207 93.3498 47.9107 100.92L46.3007 117.89L19.6727 134.7C17.3077 114.542 13.7097 88.1318 13.8697 55.4218C13.8697 55.4218 12.6497 -5.31116 69.7906 0.375844C69.7906 0.375844 83.3847 2.73084 85.2977 9.11884C85.2977 9.11884 99.1327 10.7378 102.024 20.6968Z" fill="black"/>
<path d="M46.301 117.89C46.301 117.89 59.843 126.66 73.691 117.89" stroke="black" stroke-miterlimit="10"/>
<path d="M44.5383 118.998C44.5383 118.998 60.0133 132.621 75.4573 118.998" stroke="black" stroke-miterlimit="10"/>
<path d="M52.911 182.7C52.911 182.7 52.801 182.19 52.601 181.25C52.371 180.18 52.031 178.56 51.601 176.53C51.281 175.03 50.911 173.29 50.511 171.39C50.191 169.91 49.861 168.33 49.501 166.67C49.151 165.02 48.791 163.3 48.411 161.53C48.091 159.99 47.751 158.41 47.411 156.81C47.051 155.1 46.691 153.38 46.321 151.67C45.991 150.09 45.651 148.51 45.321 146.95C44.951 145.2 44.591 143.48 44.241 141.81C43.891 140.19 43.561 138.6 43.241 137.09C41.401 128.33 40.051 121.82 40.091 121.79" stroke="black" stroke-miterlimit="10"/>
<path d="M30.9321 127.529C30.6161 127.727 29.2971 141.37 29.2971 141.37L41.8321 154.737L38.3161 162.853L51.3501 175.346" stroke="black" stroke-miterlimit="10"/>
<path d="M66.3811 182.7C66.3811 182.7 66.4911 182.19 66.6911 181.25C66.9211 180.18 67.2611 178.56 67.6911 176.53C68.0111 175.03 68.3811 173.29 68.7811 171.39C69.1011 169.91 69.4411 168.33 69.7911 166.67C70.1411 165.02 70.5111 163.3 70.8811 161.53C71.2111 159.99 71.5411 158.41 71.8811 156.81C72.2411 155.1 72.6011 153.38 72.9711 151.67C73.3011 150.09 73.6411 148.51 73.9611 146.95C74.3311 145.2 74.7011 143.48 75.0511 141.81C75.3911 140.19 75.7311 138.6 76.0411 137.09C77.8911 128.33 79.2411 121.82 79.2011 121.79" stroke="black" stroke-miterlimit="10"/>
<path d="M88.3596 127.529C88.6756 127.727 89.9947 141.37 89.9947 141.37L77.4597 154.737L80.9756 162.853L67.9417 175.346" stroke="black" stroke-miterlimit="10"/>
<path d="M76.0405 137.09C75.7305 138.6 75.3905 140.19 75.0505 141.81H44.2405C43.8905 140.19 43.5605 138.6 43.2405 137.09H76.0405Z" fill="black"/>
<path d="M73.9606 146.95C73.6406 148.51 73.3005 150.09 72.9705 151.67H46.3206C45.9906 150.09 45.6506 148.51 45.3206 146.95H73.9606Z" fill="black"/>
<path d="M71.8814 156.81C71.5414 158.41 71.2114 159.99 70.8814 161.53H48.4114C48.0914 159.99 47.7514 158.41 47.4114 156.81H71.8814Z" fill="black"/>
<path d="M69.7912 166.67C69.4412 168.33 69.1012 169.91 68.7812 171.39H50.5112C50.1912 169.91 49.8612 168.33 49.5012 166.67H69.7912Z" fill="black"/>
<path d="M67.6908 176.53C67.2608 178.56 66.9208 180.18 66.6908 181.25H52.6008C52.3708 180.18 52.0308 178.56 51.6008 176.53H67.6908Z" fill="black"/>
<path d="M55.1244 24.3787C55.1244 30.7947 48.7904 35.9967 40.9764 35.9967C33.1624 35.9967 26.8284 30.7947 26.8284 24.3787C26.8284 17.9627 33.1624 12.7607 40.9764 12.7607C48.7904 12.7607 55.1244 17.9627 55.1244 24.3787Z" stroke="white" stroke-width="2" stroke-miterlimit="10"/>
<path d="M92.2308 24.3787C92.2308 30.7947 85.8958 35.9967 78.0818 35.9967C70.2688 35.9967 63.9338 30.7947 63.9338 24.3787C63.9338 17.9627 70.2688 12.7607 78.0818 12.7607C85.8958 12.7607 92.2308 17.9627 92.2308 24.3787Z" stroke="white" stroke-width="2" stroke-miterlimit="10"/>
<path d="M55.1243 24.3788C55.1243 24.3788 59.2213 20.7238 63.9343 24.3788" stroke="white" stroke-width="2" stroke-miterlimit="10"/>
<path d="M72.4247 104.5C64.5747 107.16 52.3947 111.13 46.7747 112.96L47.9147 100.92C50.3847 102.44 53.1447 103.49 56.2547 103.92C57.3147 104.07 58.4247 104.15 59.5747 104.15C59.5747 104.15 64.1346 104.15 69.8246 101.26C70.5346 100.9 71.2647 100.5 72.0047 100.04L72.4247 104.5Z" fill="black"/>
</svg>
