<svg width="335" height="241" fill="none" xmlns="http://www.w3.org/2000/svg"><path d="M329.05 172.196c-1.144.491-2.222 1.357-2.632 2.178-.475.641-.582 1.619-.281 2.369.163.408.511.919 1.244 1.041 1.258.247 1.792-1.087 1.966-1.673.374-1.258.268-2.819-.297-3.915Zm-1.358 6.211c-.136 0-.275-.015-.416-.043-.774-.129-1.376-.627-1.687-1.402-.378-.944-.243-2.135.329-2.897.442-.893 1.584-1.83 2.811-2.375a2.217 2.217 0 0 0-.915-.713c-.828-.331-2.328-.396-3.477.136-.596.277-.983.666-1.147 1.158a.295.295 0 1 1-.559-.187c.214-.642.719-1.163 1.459-1.506 1.138-.529 2.834-.593 3.943-.148.516.206.938.572 1.265 1.038.212-.07.423-.128.632-.169 1.252-.419 2.334-.395 3.179.084.909.514 1.543 1.554 1.884 3.09a.295.295 0 0 1-.576.128c-.304-1.367-.842-2.277-1.598-2.705-.696-.394-1.617-.403-2.738-.028a4.736 4.736 0 0 0-.475.122c.614 1.24.713 2.922.306 4.289-.404 1.361-1.217 2.127-2.22 2.128ZM80.915 186.894c-.193 0-.394.043-.597.129-1.2.511-1.65 1.506-1.819 2.251a4.97 4.97 0 0 0-.002 2.025c.272-.005.546-.038.82-.101 1.327-.321 2.561-1.359 2.807-2.363.132-.705-.045-1.342-.475-1.687a1.156 1.156 0 0 0-.734-.254Zm1.95 8.548a5.264 5.264 0 0 1-3.822-1.633c-.456-.514-.8-1.197-1.01-1.936a4.43 4.43 0 0 1-2.142-.778c-1.129-.781-1.89-2.059-2.089-3.505-.224-1.792.394-2.895 1.362-4.374a.296.296 0 0 1 .494.324c-.92 1.404-1.475 2.348-1.27 3.973.175 1.28.846 2.41 1.838 3.097a3.829 3.829 0 0 0 1.67.653 5.484 5.484 0 0 1 .028-2.119c.284-1.26 1.032-2.182 2.163-2.663.685-.292 1.407-.214 1.93.207.604.484.859 1.333.683 2.272-.302 1.235-1.696 2.437-3.247 2.813a4.674 4.674 0 0 1-.806.111c.185.583.467 1.117.829 1.525a4.711 4.711 0 0 0 3.639 1.438 5.043 5.043 0 0 0 3.699-1.909.295.295 0 1 1 .463.365 5.628 5.628 0 0 1-4.412 2.139ZM91.858 18.488l-.032.06c-.722 1.4-.442 2.852.786 4.085.896.9 1.741 1.228 2.318.903.604-.34.87-1.36.618-2.373-.149-.6-.853-2.546-3.69-2.675Zm-6.598 7.957a.295.295 0 0 1-.295-.293c-.011-2.517.96-5.037 2.536-6.576 1.113-1.088 2.5-1.668 4.023-1.684 1.194-1.872 3.686-3.025 5.874-2.663 1.282.213 2.406.915 3.492 1.594 2.009 1.254 3.744 2.339 5.976-.016a.295.295 0 0 1 .428.406c-2.563 2.705-4.674 1.386-6.717.11-1.036-.648-2.11-1.319-3.276-1.512-1.823-.301-3.95.619-5.08 2.112 2.355.234 3.558 1.721 3.9 3.097.318 1.282-.061 2.556-.9 3.03-.486.273-1.524.508-3.027-1-1.341-1.347-1.698-2.995-.997-4.555-1.247.084-2.35.589-3.284 1.502-1.465 1.433-2.368 3.79-2.358 6.152a.295.295 0 0 1-.294.296h-.001Z" fill="#292929"/><path d="M327.771 101.211c-1.179 0-2.294.508-2.982 1.358-.68.841-.902 1.937-.639 3.17.359 1.688 1.739 2.779 3.515 2.779a4.51 4.51 0 0 0 1.544-.279c.871-.317 1.685-1.129 2.123-2.12.373-.843.424-1.684.143-2.369-.671-1.589-2.057-2.539-3.704-2.539Zm-.106 7.896c-2.066 0-3.672-1.274-4.092-3.246-.38-1.783.202-2.977.758-3.663.798-.987 2.085-1.576 3.44-1.576 1.892 0 3.48 1.084 4.249 2.901.344.839.29 1.844-.148 2.835-.502 1.132-1.445 2.065-2.462 2.435a5.08 5.08 0 0 1-1.745.314Z" fill="#FAAD3A"/><path d="M32.612 181.807c-1.18 0-2.294.508-2.982 1.358-.68.841-.902 1.937-.64 3.169.36 1.688 1.74 2.78 3.515 2.78.517 0 1.036-.094 1.545-.279.87-.317 1.684-1.129 2.123-2.118.373-.844.424-1.686.143-2.372-.672-1.587-2.057-2.538-3.704-2.538Zm-.107 7.897c-2.065 0-3.672-1.275-4.091-3.247-.38-1.784.202-2.977.758-3.663.799-.987 2.085-1.577 3.44-1.577 1.892 0 3.48 1.085 4.249 2.901.343.84.29 1.846-.149 2.837-.501 1.132-1.444 2.064-2.461 2.434a5.107 5.107 0 0 1-1.746.315ZM323.971 128.331c-.545 0-1.07.161-1.519.465l-8.703 5.912a2.7 2.7 0 0 0-1.139 1.74 2.696 2.696 0 0 0 .418 2.036l5.911 8.702a2.72 2.72 0 0 0 2.256 1.188c.545 0 1.071-.161 1.521-.467l8.7-5.909a2.724 2.724 0 0 0 .723-3.778l-5.912-8.701a2.72 2.72 0 0 0-2.256-1.188Zm-2.776 20.633a3.31 3.31 0 0 1-2.744-1.446l-5.912-8.702a3.293 3.293 0 0 1-.508-2.479 3.283 3.283 0 0 1 1.386-2.117l8.704-5.912a3.279 3.279 0 0 1 1.85-.567c1.103 0 2.13.541 2.745 1.447l5.911 8.701a3.317 3.317 0 0 1-.879 4.597l-8.7 5.909a3.282 3.282 0 0 1-1.853.569Z" fill="#40BDDE"/><path d="M60.074 208.417c-.516 0-.944.178-1.236.514-.378.436-.522 1.132-.405 1.961l1.71 12.082c.178 1.253.825 2.001 1.731 2.001.501 0 1.057-.228 1.606-.658l9.607-7.523c.773-.606 1.148-1.304 1.054-1.966-.094-.661-.648-1.228-1.56-1.596l-11.317-4.557c-.424-.171-.824-.258-1.19-.258Zm1.8 17.148c-1.209 0-2.095-.961-2.315-2.508l-1.71-12.082c-.144-1.015.045-1.855.543-2.43.667-.769 1.822-.929 3.092-.417l11.318 4.558c1.115.449 1.798 1.181 1.923 2.06.125.878-.327 1.771-1.274 2.512l-9.608 7.523c-.653.513-1.334.784-1.969.784Z" fill="#FAAD3A"/><path d="M153.298 6.446c-.446 0-.952.164-1.464.473l-10.438 6.32c-.841.508-1.296 1.156-1.282 1.824.014.668.496 1.297 1.357 1.771l10.693 5.88c1.006.552 1.946.542 2.504-.028.391-.4.589-1.034.573-1.837l-.256-12.198c-.027-1.36-.674-2.205-1.687-2.205Zm.267 17.27c-.532 0-1.099-.164-1.685-.486l-10.693-5.88c-1.053-.578-1.644-1.386-1.663-2.274-.018-.888.538-1.72 1.566-2.342l10.439-6.32c.612-.37 1.207-.558 1.769-.558 1.348 0 2.242 1.092 2.277 2.783l.255 12.198c.02.965-.236 1.747-.74 2.262-.396.403-.923.617-1.525.617Z" fill="#FDCA81"/><path d="M209.373 93.549c-25.584 0-50.276 12.867-69.526 36.233-26.566 32.243-32.142 48.401-35.137 57.082-.156.451-.305.883-.45 1.297-3.794 10.843-3.613 20.188.54 27.774 4.929 9.005 15.445 15.47 31.259 19.215 14 3.316 35.119 5.143 59.469 5.143h.01c38.42 0 85.137-4.746 102.909-15.352 9.609-5.735 14.605-20.303 13.036-38.021-2.538-28.7-23.504-69.021-74.233-88.206-9.064-3.428-18.443-5.165-27.877-5.165Zm-13.835 147.334h-.01c-24.394-.001-45.561-1.833-59.605-5.159-15.982-3.785-26.628-10.348-31.64-19.506-4.236-7.739-4.431-17.244-.579-28.252.145-.414.293-.844.448-1.294 3.008-8.716 8.606-24.94 35.24-57.266 19.364-23.503 44.217-36.447 69.981-36.447 9.505 0 18.955 1.75 28.085 5.203 22.762 8.609 41.796 22.447 55.044 40.019 11.15 14.788 18.1 32.079 19.569 48.687 1.588 17.945-3.517 32.728-13.322 38.579-17.867 10.663-64.711 15.436-103.211 15.436Z" fill="#292929"/><path d="M79.694 69.259c1.173 1.92 2.132 5.335 2.667 9.07.374 2.612 1.067 2.88 3.627 4.054 2.562 1.173 3.149 3.414 1.762 4.694-1.976 1.823-1.974.827-2.24 2.88-.18 1.37.192 2.464-1.65 1.874-.724-.231-2.22-1.122-2.433-.958-.638.493-.443 2.359 1.99 3.76.887.51 1.622.442.838 4.5-.683 3.536-4.961 4.082-9.203 3.281-4.24-.8-3.36 2.401-5.04 6.962-1.681 4.562-1.921 7.122.399 9.043 2.32 1.921 4.161 11.123 3.921 13.364-.24 2.24-8.242 6.881-15.044-.64-3.68-5.122-7.842-14.965-7.842-14.965s4.32-6.001 4.241-11.843c-.08-5.842-2.56-27.848 5.522-34.09 8.082-6.241 17.684-2.532 18.485-.986Z" fill="#FEFEFE"/><path d="M51.781 116.214c.54 1.257 4.373 10.064 7.746 14.757 2.988 3.301 6.06 3.999 8.11 3.999 3.558 0 6.28-2.088 6.402-3.218.232-2.165-1.626-11.292-3.817-13.105-2.538-2.101-2.13-4.915-.488-9.372.448-1.213.71-2.326.942-3.308.543-2.305.936-3.97 3.216-3.97.361 0 .76.042 1.215.128 1.116.21 2.18.317 3.161.317 2.303 0 5.16-.584 5.697-3.364.67-3.47.227-3.702-.445-4.053-.081-.043-.165-.087-.25-.137-1.456-.838-2.37-1.997-2.445-3.1-.034-.497.12-.914.421-1.148.256-.198.701-.005 1.644.446.39.187.792.38 1.059.465.31.1.56.15.74.15.35 0 .415-.144.465-1.026.013-.236.029-.49.063-.754.177-1.367.248-1.514.936-1.967.291-.19.73-.478 1.396-1.093.497-.46.714-1.067.612-1.714-.155-.975-1.013-1.909-2.296-2.496l-.15-.068c-2.435-1.116-3.256-1.491-3.646-4.213-.554-3.866-1.512-7.13-2.627-8.957-.374-.72-3.52-2.369-7.963-2.369-2.575 0-6.414.597-10.09 3.435-6.837 5.28-5.965 22.35-5.545 30.554.067 1.331.126 2.481.138 3.298.074 5.454-3.542 10.931-4.201 11.883Zm15.855 19.346c-2.168 0-5.414-.732-8.567-4.219-3.678-5.116-7.854-14.949-7.895-15.047a.294.294 0 0 1 .032-.287c.043-.059 4.263-5.993 4.186-11.668-.011-.806-.07-1.951-.138-3.276-.424-8.304-1.307-25.582 5.774-31.05 3.808-2.94 7.784-3.558 10.45-3.558 4.332 0 7.914 1.58 8.477 2.669 1.146 1.873 2.133 5.22 2.698 9.163.344 2.402.913 2.663 3.308 3.759l.15.069c1.484.68 2.443 1.751 2.632 2.94.135.847-.147 1.642-.793 2.239-.702.648-1.166.952-1.473 1.153-.509.335-.518.34-.676 1.55-.032.25-.046.49-.058.711-.053.931-.14 1.993-1.973 1.405-.306-.098-.727-.3-1.134-.495-.355-.17-.876-.418-1.08-.463-.107.123-.16.338-.142.593.047.7.637 1.758 2.15 2.63.078.044.156.085.23.124.96.503 1.469.97.75 4.689-.478 2.477-2.707 3.841-6.276 3.841-1.018 0-2.118-.11-3.27-.327a5.999 5.999 0 0 0-1.106-.118c-1.74 0-2.067 1.078-2.642 3.516-.236.998-.503 2.129-.962 3.376-1.785 4.845-1.707 7.044.31 8.714 2.42 2.002 4.28 11.256 4.027 13.622-.161 1.508-3.167 3.745-6.989 3.745Z" fill="#292929"/><path d="M55.474 171.261c1.494.641 15.578 1.387 15.578 1.387s6.188-19.738 3.628-42.358c-5.122 4.481-10.884 3.413-16.645-1.281 3.627 11.097 1.92 33.929-2.561 42.252ZM77.143 83.69c.312.999 1.026 1.665 1.595 1.488.569-.178.777-1.132.466-2.131-.312-.998-1.026-1.664-1.594-1.485-.569.178-.779 1.13-.467 2.128Z" fill="#292929"/><path d="M78.101 82.04a.295.295 0 0 1-.282-.378l.534-1.815a.294.294 0 1 1 .565.167l-.534 1.814a.295.295 0 0 1-.283.211Z" fill="#292929"/><path d="M63.903 142.239c-1.647-12.148-7.078-20.185-11.882-27.632-.738-1.142-1.42-.979-1.733-.917-2.297.456-4.86 1.534-4.204 2.942.14.297.354.604.62.944-.996.201-2.19.451-3.607.763-5.335 1.173-8.637 3.283-11.945 6.591-3.307 3.307-20.221 23.816-24.915 29.044 6.188 11.951 16.807 13.711 16.807 13.711s9.704-9.762 15.785-17.231c-.214 1.493-.96 15.365-3.094 20.806 3.77 2.187 14.246 2.083 20.072 1.833.957.878 4.682.088 4.682.088s5.12-18.352 3.414-30.942Z" fill="#40BDDE"/><path d="M45.924 72.566c-2.8 1.04-5.921 3.601-7.602 14.564-.813 5.302-2.78 10.994-2.41 16.401.347 5.06 4.73 6.44 9.198 7.333 3.935.788 19.233 4.435 20.198-2.152 1.125-7.684-10.987-11.542-9.25-18.674.354-1.45 1.81-3.252 3.309-3.587 1.913-.428 2.482 1.207 3.97 2.21 1.812 1.222 2.897.508 3.985-1.326 1.03-1.733.644-4.51.48-6.456-.213-2.55-.516-3.472 1.697-4.202 2.991-.986 5.552-3.012 2.673-6.431 3.841 4.56 5.761 3.84 8.882 1.84 3.121-2 3.281-3.841 2.08-7.282-1.2-3.44-4.88-8.722-11.362-7.922-6.482.8-5.842 2.56-13.604 4.161-7.763 1.6-12.724 3.921-12.244 11.523Z" fill="#292929"/><path d="M74.893 78.542a.295.295 0 0 1-.278-.394c.21-.586 1.393-3.542 4.138-4.11a.295.295 0 0 1 .12.577c-2.437.504-3.512 3.197-3.703 3.732a.296.296 0 0 1-.277.195Z" fill="#292929"/><path d="M55.58 172.836h-.017a.295.295 0 0 1-.276-.313c.016-.256.07-.955.149-1.971.462-5.932 1.69-21.69 1.239-25.288-.471-3.768.55-4.712 2.096-6.141.193-.178.395-.366.607-.569a305.64 305.64 0 0 0-4.271-2.678c-1.58-.965-1.927-2.275-2.856-5.777-.277-1.045-.591-2.23-1.008-3.676-1.267-4.401-3.073-6.593-4.267-8.043-.294-.356-.546-.663-.758-.958a.295.295 0 1 1 .48-.343c.2.278.447.578.733.926 1.225 1.488 3.078 3.737 4.379 8.255.418 1.453.747 2.692 1.011 3.688.885 3.335 1.216 4.583 2.594 5.425a321.142 321.142 0 0 1 4.593 2.884.293.293 0 0 1 .05.456c-.313.312-.61.587-.887.844-1.512 1.397-2.345 2.166-1.91 5.633.456 3.658-.774 19.46-1.237 25.408-.079 1.012-.133 1.707-.149 1.962a.295.295 0 0 1-.294.276Z" fill="#FEFEFE"/><path d="m96.766 134.237-2.242 6.615s-5.334-9.709-8.749-13.977c-3.19-3.989-7.778-6.486-11.413-7.841-2.452-4.058-5.917-4.645-5.917-4.645s-.275.962.233 2.177c.507 1.215 6 10.735 4.72 25.887-1.279 15.15-5.654 30.195-5.654 30.195h3.308l.072-.238c2.489.32 7.556.83 7.716-.295.214-1.494 3.095-13.444 4.802-17.179 5.12 9.495 9.873 11.433 16.748 8.545 4.915-2.064 8.966-18.574 9.499-25.083.106-.107-13.123-4.161-13.123-4.161Z" fill="#40BDDE"/><path d="M71.052 172.943a.295.295 0 0 1-.282-.381c.066-.217 6.622-21.696 7.57-25.8.974-4.222.942-4.729.308-5.969-.798-1.559-1.484-2.928-1.484-2.928a.296.296 0 0 1 .11-.383c.72-.445 2.52-1.863 2.214-3.066-.68-2.672-3.276-11.526-5.173-14.892l-.061-.108a.295.295 0 0 1 .512-.292l.063.111c1.926 3.416 4.545 12.344 5.23 15.036.404 1.581-1.563 3.092-2.25 3.564.229.455.764 1.519 1.363 2.689.742 1.449.713 2.163-.257 6.37-.952 4.124-7.515 25.623-7.581 25.841a.295.295 0 0 1-.282.208Z" fill="#FEFEFE"/><path d="M83.641 155.231a.296.296 0 0 1-.267-.418c4.796-10.499 3.008-14.278 1.94-16.536-.185-.392-.346-.732-.458-1.067a.296.296 0 0 1 .56-.186c.1.301.253.625.431 1.001 1.112 2.351 2.974 6.285-1.937 17.034a.297.297 0 0 1-.269.172ZM96.26 145.148a.295.295 0 0 1-.267-.168c-.011-.025-1.19-2.49-2.247-5.028a.296.296 0 0 1 .545-.227 121.292 121.292 0 0 0 2.235 5 .296.296 0 0 1-.266.423Z" fill="#292929"/><path d="M97.619 131.702c1.2-3.76 2.961-13.923 3.361-17.684.4-3.761-1.84-9.043.8-12.403 2.641-3.361 4.322-5.042 5.042-6.723.72-1.68 2.4-1.92 3.28-.24.881 1.68-.48 4.642-2.48 6.722 4.881-3.12 5.281-2 6.801-4.4 1.521-2.402 4.482-8.564 6.403-8.403 1.6-2.16 3.44-.96 3.761 2 .96-.08 1.84 2.161 1.2 5.522 2.32 1.36 2.08 6.321-1.2 10.082-3.282 3.762-9.523 6.002-10.884 9.043-1.36 3.041-3.601 20.886-3.601 20.886l-12.483-4.402Z" fill="#FEFEFE"/><path d="m97.984 131.519 11.872 4.186c.334-2.623 2.308-17.767 3.578-20.607.765-1.71 2.966-3.155 5.297-4.686 2.034-1.335 4.137-2.716 5.633-4.43 1.943-2.228 2.96-5.134 2.59-7.405-.172-1.055-.627-1.826-1.316-2.23a.295.295 0 0 1-.141-.31c.468-2.455.108-4.241-.456-4.922-.095-.115-.242-.25-.405-.25-.151 0-.327-.112-.343-.262-.184-1.699-.896-2.84-1.771-2.84-.479 0-.983.34-1.46.983a.288.288 0 0 1-.261.118h-.001c-1.381 0-3.536 3.779-4.962 6.28-.429.752-.834 1.463-1.166 1.986-.917 1.449-1.472 1.693-2.686 2.229-.901.396-2.135.939-4.206 2.263a.296.296 0 0 1-.387-.061.296.296 0 0 1 .016-.391c1.812-1.885 3.28-4.762 2.432-6.381-.334-.638-.798-.989-1.307-.989-.579 0-1.118.451-1.442 1.208-.516 1.204-1.474 2.367-2.925 4.126-.632.766-1.348 1.634-2.155 2.662-1.653 2.103-1.301 5.041-.961 7.882.187 1.562.364 3.037.222 4.371-.378 3.553-2.074 13.454-3.289 17.47Zm12.118 4.88a.302.302 0 0 1-.098-.017l-12.483-4.402a.295.295 0 0 1-.184-.368c1.21-3.789 2.964-14.009 3.349-17.626.135-1.267-.037-2.71-.22-4.238-.355-2.96-.721-6.021 1.082-8.316.812-1.034 1.53-1.905 2.164-2.673 1.419-1.72 2.356-2.857 2.838-3.983.42-.98 1.162-1.565 1.984-1.565.728 0 1.395.475 1.829 1.304.788 1.503-.015 3.777-1.39 5.693a26.761 26.761 0 0 1 2.776-1.39c1.167-.514 1.604-.706 2.425-2.003.324-.512.726-1.217 1.152-1.964 2.021-3.545 3.822-6.488 5.355-6.576.714-.907 1.391-1.101 1.841-1.101 1.163 0 2.063 1.218 2.328 3.126.191.047.42.167.645.439.59.712 1.095 2.498.618 5.212.746.515 1.236 1.385 1.423 2.531.397 2.437-.674 5.532-2.727 7.887-1.549 1.775-3.687 3.179-5.754 4.536-2.257 1.482-4.389 2.881-5.083 4.433-1.326 2.967-3.555 20.625-3.577 20.803a.299.299 0 0 1-.293.258Z" fill="#292929"/><path d="M110.502 106.871a.296.296 0 0 1-.287-.227c-.404-1.699-1.924-4.469-2.757-5.024a.295.295 0 1 1 .327-.491c1.036.691 2.596 3.664 3.004 5.378a.294.294 0 0 1-.287.364ZM120.266 105.271a.295.295 0 0 1-.264-.163c-.298-.596-3.841-4.844-5.192-5.294a.295.295 0 0 1 .187-.56c1.549.517 5.209 4.943 5.532 5.59a.293.293 0 0 1-.132.395.281.281 0 0 1-.131.032Z" fill="#292929"/><path d="M119.545 105.671a.296.296 0 0 1-.124-.563c.927-.428 2.965-3.041 3.515-6.028.282-1.53.753-2.482 1.44-2.907.635-.394 1.338-.259 1.812-.124a.295.295 0 0 1 .203.365.298.298 0 0 1-.365.203c-.59-.17-1.003-.151-1.34.057-.529.329-.923 1.174-1.17 2.514-.566 3.075-2.691 5.922-3.848 6.455a.286.286 0 0 1-.123.028ZM118.505 103.029a.295.295 0 0 1-.194-.517c1.745-1.517 2.459-3.728 3.105-7.036.594-3.044 1.752-4.738 3.439-5.035a.295.295 0 1 1 .102.58c-1.423.251-2.419 1.788-2.962 4.568-.67 3.433-1.425 5.74-3.297 7.368a.295.295 0 0 1-.193.072ZM116.664 100.949a.294.294 0 0 1-.241-.464c.868-1.234 1.959-4.761 2.834-7.596.655-2.119 1.221-3.95 1.63-4.7a.296.296 0 0 1 .518.282c-.381.7-.966 2.59-1.584 4.592-.934 3.024-1.994 6.45-2.915 7.761a.295.295 0 0 1-.242.125ZM38.188 151.39a.295.295 0 0 1-.224-.486c1.799-2.115 5.416-5.947 5.453-5.986a.294.294 0 1 1 .428.405c-.036.039-3.643 3.86-5.431 5.963a.294.294 0 0 1-.226.104ZM97.098 130.751c-1.18 2.212-1.862 5.798-1.622 6.119.24.32 8.993 1.032 14.964 5.307 1.361.64 1.796-5.664 1.583-6.393-.56-1.921-14.205-5.833-14.925-5.033Z" fill="#292929"/><path d="M63.796 142.001a.293.293 0 0 1-.194-.073c-.027-.023-2.715-2.357-3.966-3.19a.295.295 0 0 1 .327-.491c1.282.854 3.915 3.139 4.027 3.237a.294.294 0 0 1-.194.517ZM73.515 140.801a.295.295 0 0 1-.209-.503c1.127-1.127 2.568-1.991 3.52-2.563.237-.141.44-.263.594-.363a.295.295 0 1 1 .321.494c-.16.103-.368.229-.611.375-.929.557-2.331 1.399-3.406 2.474a.297.297 0 0 1-.209.086Z" fill="#FEFEFE"/><path d="M64.944 98.892c-.311-2.91-2.605-5.892-5.328-4.152-2.367 1.512-3.088 5.583-.92 7.513.922.821 2.415 1.205 3.663.961 2.096-.411 2.796-2.35 2.585-4.322Z" fill="#FAAD3A"/><path d="M70.955 36.998c-2.151 0-4.308.095-6.414.28-32.848 2.91-53.395 21.384-61.07 54.912-3.373 14.737-6.263 49.44 6.337 62.65 13.487 14.14 23.754 15.714 45.672 16.126 7.568.144 13.922.383 19.529.595 6.518.246 12.147.459 17.89.459h.002c4.551 0 8.723-.132 13.129-.414l1.361-.086c16.381-1.02 41.135-2.562 43.817-38.905 2.084-28.255-5.459-52.495-21.814-70.101-14.842-15.978-36.689-25.516-58.44-25.516ZM92.9 172.61H92.9c-5.755 0-11.39-.212-17.913-.459-5.604-.211-11.956-.451-19.518-.594-22.093-.416-32.446-2.007-46.087-16.309C-3.384 141.863-.5 106.896 2.896 92.059c7.739-33.806 28.462-52.434 61.593-55.367a73.724 73.724 0 0 1 6.466-.284c21.912 0 43.92 9.61 58.871 25.704 11.484 12.363 24.619 34.638 21.97 70.546-2.72 36.857-27.783 38.418-44.367 39.451l-1.361.086a202.02 202.02 0 0 1-13.167.414Z" fill="#292929"/><path d="M101.096 51.174c3.996-1.043 16.769-3.476 23.46-4.866 6.69-1.392 13.989-2.347 14.945-1.912.955.434-9.645 13.815-14.598 19.116-1.651 1.13-3.91-.956-3.91-.956-4.692 4.866-9.993 6.69-10.861 6.864-.869.174-1.304-5.213-1.391-8.429-.087-3.214.484-3.84-2.171-5.126-8.255-3.997-5.474-4.691-5.474-4.691Z" fill="#40BDDE"/><path d="M110.132 69.715a.295.295 0 0 1-.077-.579c.435-.158 2.021-2.727 3.179-4.602 1.244-2.016 2.419-3.92 3.12-4.62 1.319-1.319 13.473-9.616 18.632-13.107L109.72 56.834a.295.295 0 0 1-.218-.548l27.805-11.034a.295.295 0 0 1 .241.537c-.859.456-19.398 13.163-20.777 14.543-.652.651-1.864 2.614-3.035 4.512-2.013 3.26-2.956 4.705-3.526 4.86a.295.295 0 0 1-.078.011Z" fill="#292929"/><path d="M121.514 63.198a.293.293 0 0 1-.173-.056l-.127-.094c-1.782-1.302-3.999-2.927-4.519-2.662a.295.295 0 0 1-.265-.528c.803-.4 2.393.712 5.132 2.715l.126.092a.294.294 0 0 1-.174.533Z" fill="#292929"/><path d="M144.191 110.75c-3.341.306-5.239 2.382-4.904 8.288.335 5.908-1.004 12.006 1.338 14.291 2.341 2.288 8.247 2.289 13.71 2.383 5.462.095 12.535-.065 14.63-.095 4.932-.072 6.687-.928 7.356-4.788.394-2.272-.551-15.087-.585-16.435-.084-3.358-2.257-3.788-7.022-4.002-4.569-.205-21.401.072-24.523.358Z" fill="#FAAD3A"/><path d="M157.608 126.389h-.066c-2.351-.036-4.263-2.014-5.666-3.733-2.591-3.18-8.423-9.699-9.84-10.91a.295.295 0 0 1 .382-.449c1.436 1.228 7.311 7.791 9.916 10.985 1.322 1.621 3.109 3.485 5.217 3.517 1.508.009 3.083-.905 4.688-2.756 4.415-5.094 10.967-11.511 11.033-11.575a.294.294 0 1 1 .412.421c-.066.065-6.6 6.464-11 11.54-1.725 1.991-3.386 2.96-5.076 2.96Z" fill="#292929"/><path d="M140.624 133.624a.294.294 0 0 1-.131-.558c.766-.382 4.676-4.072 7.531-6.767 2.364-2.232 3.718-3.505 4.039-3.7a.295.295 0 1 1 .307.503c-.283.173-2.06 1.85-3.942 3.627-3.868 3.651-6.889 6.475-7.672 6.864a.284.284 0 0 1-.132.031ZM173.954 134.577a.296.296 0 0 1-.254-.145c-.188-.32-2.385-2.7-4.509-5.001-2.804-3.037-5.703-6.178-6.142-6.874a.297.297 0 0 1 .092-.407.296.296 0 0 1 .407.092c.41.651 3.421 3.912 6.077 6.789 2.705 2.931 4.374 4.745 4.584 5.102a.296.296 0 0 1-.255.444ZM279.821 36.275c-1.622-6.88-16.562-15.725-22.951-13.268-6.388 2.457 1.769 5.307 1.769 5.307-9.828-1.77-14.546-.59-15.529 1.868-.983 2.457 3.145 3.44 3.145 3.44-6.683.196-14.153 5.406-13.072 9.042 1.081 3.637 5.504 2.31 5.504 2.31-6.291 5.061-5.264 10.21 1.299 9.601-6.901 5.19-7.883 14.725-5.23 18.165 2.653 3.44 5.229-1.767 5.229-1.767-2.772 7.664 1.355 12.677 5.287 6.288-.884 8.748 6.88 9.927 9.338 5.603 2.359 8.355 7.961 7.076 8.944 2.948 3.047 3.834 9.042 2.556 10.222-1.572 3.342 3.931 6.29.343 5.996-2.703 3.439 4.03 8.846 4.52 9.926-2.801 4.915 3.636 7.372 3.538 6.045-5.16 8.207 2.997 12.532-6.144 3.096-14.006 6.291 1.67 5.603-4.817-3.391-8.699 6.34-.147 7.126-4.472 3.981-7.666-3.145-3.195-8.453-9.387-19.608-6.93Z" fill="#292929"/><path d="M248.582 53.064c-.96 5.761.747 7.47 2.454 11.524 1.708 4.054-.68 8.327 3.868 13.39 4.241 4.721 10.643 4.428 10.643 4.428l1.814 7.362 15.685-4.055-3.414-14.777s3.2-1.76 2.24-8.056c-.96-6.295-1.067-21.872-16.325-19.525-15.258 2.346-15.577 5.12-16.965 9.709Z" fill="#FEFEFE"/><path d="M265.547 82.112c.135 0 .254.092.286.224l1.742 7.072 15.119-3.908-3.35-14.497a.297.297 0 0 1 .145-.325c.029-.016 3.005-1.764 2.091-7.753a76.507 76.507 0 0 1-.286-2.202c-.78-6.475-2.085-17.312-12.796-17.312-.913 0-1.891.08-2.906.236-14.559 2.239-15.323 4.8-16.59 9.043l-.138.46c-.749 4.508.177 6.459 1.458 9.158.32.673.65 1.368.986 2.166.657 1.56.725 3.114.797 4.758.117 2.68.238 5.453 3.019 8.55 3.705 4.124 9.147 4.333 10.2 4.333.284 0 .214-.003.223-.003Zm1.814 7.951a.292.292 0 0 1-.151-.041.288.288 0 0 1-.135-.183l-1.758-7.135c-1.114 0-6.768-.227-10.632-4.529-2.922-3.253-3.054-6.262-3.169-8.917-.07-1.59-.136-3.092-.752-4.555-.33-.786-.658-1.475-.974-2.142-1.278-2.692-2.287-4.817-1.499-9.545l.146-.495c1.333-4.466 2.138-7.161 17.065-9.457a19.793 19.793 0 0 1 2.996-.242c11.234 0 12.578 11.161 13.382 17.83.096.806.185 1.543.283 2.184.854 5.598-1.489 7.729-2.198 8.235l3.368 14.576a.295.295 0 0 1-.214.352l-15.685 4.055a.281.281 0 0 1-.073.01Z" fill="#292929"/><path d="M285.494 57.503c-.532-3.215-1.186-6.256-2.847-9.121-1.025-1.767-1.951-3.585-3.683-4.762-4.867-3.307-11.422-3.11-16.96-1.96-4.399.912-9.296 2.471-12.704 5.503-1.133 1.008-5.72 5.58-2.749 6.902 1.739.774 3.656-.868 4.969-1.976.059.167.152.346.289.551.884 1.327 3.096 1.474 4.57 1.18 3.833-.59 7.519-3.096 10.32-5.898-.59.885-1.327 2.064-1.032 3.244.59 1.327 1.917 1.474 3.096 1.474 2.507-.147 4.865-2.211 6.635-3.833-1.475 2.801-3.096 5.602-3.244 8.846-.147 1.474 0 3.096.59 4.423.737 1.769 2.359 1.769 3.833.737-.737 2.359-1.179 4.57-.147 6.93.615 1.405 2.555 3.784 5.258 3.292 2.159-.392 2.559-5.456 3.342-7.224 1.46-3.3 1.059-4.717.464-8.308Z" fill="#292929"/><path d="M245.626 55.124c-1.32 0-2.597-.47-2.953-1.808-.207-.778-.084-1.72.101-2.344.357-1.213 1.46-2.931 2.458-3.829a.294.294 0 1 1 .394.439c-.913.822-1.961 2.451-2.287 3.558-.162.546-.272 1.365-.095 2.024.443 1.664 2.792 1.375 3.259 1.298 1.398-.225 2.435-.545 3.262-1.008a.297.297 0 0 1 .402.114.293.293 0 0 1-.114.4c-.889.499-1.988.84-3.457 1.077-.317.05-.645.08-.97.08Z" fill="#FEFEFE"/><path d="M261.189 72.444h-.016c-1.94-.108-3.153-.556-3.707-1.372-.689-1.013-.249-2.335.177-3.614.083-.25.166-.498.239-.742.654-2.18-.843-4.81-2.51-6.332-1.316-1.201-2.994-1.427-4.072-1.119-.612.175-1.032.52-1.153.948a.295.295 0 1 1-.568-.16c.178-.63.745-1.123 1.559-1.355 1.237-.354 3.148-.104 4.631 1.25 1.86 1.698 3.408 4.5 2.677 6.938-.074.249-.159.503-.244.759-.38 1.142-.773 2.324-.249 3.095.438.645 1.533 1.02 3.252 1.115a.294.294 0 0 1-.016.589ZM260.287 59.41a.297.297 0 0 1-.184-.064.297.297 0 0 1-.048-.414c1.03-1.3 4.012-3.991 9.445-.898.141.08.191.26.111.402a.296.296 0 0 1-.402.11c-4.855-2.763-7.528-.715-8.691.752a.296.296 0 0 1-.231.112ZM267.214 63.968c.493.922.47 1.898-.056 2.179-.524.282-1.352-.237-1.847-1.159-.494-.92-.468-1.896.055-2.176.526-.282 1.353.235 1.848 1.156Z" fill="#292929"/><path d="M265.728 63.25a.3.3 0 0 1-.139-.034l-1.669-.89a.295.295 0 0 1 .277-.52l1.67.89a.295.295 0 0 1-.139.554ZM256.091 64.928c.493.921.47 1.897-.056 2.18-.524.281-1.352-.238-1.846-1.16-.496-.92-.47-1.896.055-2.177.526-.282 1.352.235 1.847 1.157Z" fill="#292929"/><path d="M254.605 64.21a.304.304 0 0 1-.139-.034l-1.669-.89a.297.297 0 0 1-.122-.399.297.297 0 0 1 .4-.121l1.669.889a.295.295 0 0 1-.139.555ZM260.041 73.998c.943 1.833 2.068 2.873 3.129 2.873 1.521 0 2.726-2.08 3.138-5.352-3.697 2.352-4.934 2.573-6.267 2.479Zm3.129 3.463c-1.407 0-2.789-1.307-3.891-3.68a.293.293 0 0 1 .027-.295.294.294 0 0 1 .269-.122c.302.03.614.061.92.061 1.139 0 2.487-.448 6.012-2.736a.295.295 0 0 1 .454.275c-.368 4.007-1.821 6.497-3.791 6.497Z" fill="#292929"/><path d="M262.347 77.232a.294.294 0 0 1-.285-.373c.52-1.905 2.636-3.329 4.029-3.247.163.01.286.15.276.314a.287.287 0 0 1-.313.275c-1.185-.076-2.985 1.211-3.423 2.814a.295.295 0 0 1-.284.217Z" fill="#292929"/><path d="M226.897 127.351c2.8-2.72 16.164-20.405 21.365-26.727 5.202-6.322 11.203-6.482 19.366-6.562-2.01-8.053-1.476-8.231-1.076-8.152.4.08 8.025 1.744 15.628-3.538 2.015-.54 1.933 7.53 3.853 8.57 1.92 1.04 14.724-1.601 21.046 4.721 6.322 6.321 10.723 21.286 10.723 21.286-3.441 5.521-26.808 22.885-56.176 14.884-.56-2.481-4.561-6.323-5.761-11.203a761.716 761.716 0 0 0-8.483 11.283s-15.764-1.041-20.485-4.562Z" fill="#FAAD3A"/><path d="M273.752 96.488c-3.215 0-5.456-1.3-6.337-2.222a.294.294 0 1 1 .426-.407c1.653 1.728 8.437 4.834 17.596-3.298a.293.293 0 0 1 .416.025.294.294 0 0 1-.024.416c-4.735 4.205-8.887 5.486-12.077 5.486Z" fill="#292929"/><path d="M272.056 96.412a.296.296 0 0 1-.282-.21c-.106-.35-2.621-8.612-2.886-9.783a.295.295 0 0 1 .575-.13c.261 1.15 2.849 9.657 2.876 9.742a.296.296 0 0 1-.283.381ZM275.523 96.358a.297.297 0 0 1-.282-.207l-3.093-9.869a.295.295 0 0 1 .563-.176l3.094 9.869a.296.296 0 0 1-.282.383ZM279.151 95.291a.295.295 0 0 1-.28-.203l-3.094-9.443a.294.294 0 1 1 .561-.183l3.094 9.442a.295.295 0 0 1-.281.387ZM282.46 93.584a.295.295 0 0 1-.283-.212l-2.615-8.855a.295.295 0 1 1 .566-.167l2.614 8.855a.295.295 0 0 1-.282.379ZM265.632 82.756l-.093-.001a.295.295 0 0 1-.287-.302.287.287 0 0 1 .302-.288c2.09.073 7.705-1.762 11.287-6.186a.296.296 0 0 1 .459.37c-3.659 4.52-9.42 6.407-11.668 6.407ZM256.985 123.886a.295.295 0 0 1-.27-.176c-1.953-4.441-2.105-8.871-2.105-10.122a.295.295 0 1 1 .59 0c0 .871.099 5.437 2.055 9.884a.296.296 0 0 1-.27.414ZM299.958 129.487a.297.297 0 0 1-.284-.212c-.026-.09-2.652-9.077-3.758-12.475a.294.294 0 1 1 .56-.182c1.11 3.405 3.738 12.401 3.764 12.491a.295.295 0 0 1-.282.378Z" fill="#292929"/><path d="M280.622 73.553c-.914 0-1.969-.303-3.1-.896a.295.295 0 1 1 .273-.522c1.347.705 2.554.969 3.485.76 2.193-.499 3.104-4.342 3.104-6.289 0-.126.081-.239.2-.28.119-.04.252 0 .329.1 1.003 1.305 2.183 1.913 3.714 1.913 1.494-.1 2.937-1.753 3.123-3.054a.295.295 0 0 1 .584.083c-.221 1.548-1.88 3.44-3.687 3.56h-.002c-1.476 0-2.69-.513-3.703-1.565-.203 2.414-1.34 5.61-3.533 6.107a3.606 3.606 0 0 1-.787.083Z" fill="#FEFEFE"/><path d="M257.846.59c-10.032 0-21.369 1.317-33.694 3.915-26.054 5.493-52.504 16.003-51.133 52.312 1.393 36.895 15.006 58.859 41.618 67.15 12.216 3.806 33.234 7.647 52.651 7.648h.007c17.507 0 39.918-3.07 47.275-17.696 7.407-14.723 8.686-31.683 8.456-43.317-.266-13.354-2.731-26.91-6.435-35.378C312.447 25.752 301.44.59 257.846.59Zm9.449 131.615h-.007c-20.813-.001-41.465-4.135-52.826-7.675-26.88-8.374-40.629-30.516-42.033-67.69-.651-17.278 5.243-30.623 17.522-39.665C200.115 9.69 212.882 6.278 224.03 3.928 236.395 1.322 247.772 0 257.846 0c18.166 0 32.709 4.288 43.225 12.743 8.653 6.958 13.128 15.543 16.06 22.244 3.733 8.535 6.218 22.178 6.484 35.603.232 11.701-1.057 28.763-8.519 43.594-7.491 14.893-30.128 18.021-47.801 18.021Z" fill="#292929"/><path d="M198.803 30.544h-23.117c-4.019 0-7.089 3.457-6.844 7.635l.623 10.62c.227 3.872 3.47 6.908 7.23 6.85l16.726-.251c.874 2.595 1.513 5.12 3.186 4.997 1.197-.117 1.71-2.65 2.05-5.092 3.509-.218 6.398-3.208 6.529-6.894l.377-10.397c.148-4.089-2.871-7.468-6.76-7.468Z" fill="#FEFEFE"/><path d="M193.422 55.103c.126 0 .238.08.279.2l.256.774c.728 2.216 1.368 4.122 2.628 4.024 1.121-.11 1.6-3.546 1.781-4.84a.294.294 0 0 1 .273-.253c3.381-.21 6.128-3.113 6.253-6.61l.376-10.397c.071-1.965-.637-3.869-1.943-5.223-1.206-1.25-2.811-1.939-4.522-1.939h-23.117a6.375 6.375 0 0 0-4.681 2.021c-1.303 1.383-1.985 3.315-1.868 5.302l.623 10.62c.212 3.625 3.276 6.573 6.83 6.573h.1l16.727-.252h.005Zm3.069 5.591c-1.639 0-2.313-2.055-3.094-4.433a51.104 51.104 0 0 0-.187-.566l-16.62.25c-3.926 0-7.184-3.131-7.419-7.128l-.623-10.62c-.126-2.148.613-4.241 2.028-5.742a6.957 6.957 0 0 1 5.11-2.206h23.117c1.872 0 3.628.753 4.946 2.12 1.417 1.468 2.185 3.53 2.109 5.654l-.376 10.396c-.133 3.714-2.996 6.811-6.565 7.159-.375 2.604-.924 4.977-2.281 5.11a1.81 1.81 0 0 1-.145.006Z" fill="#292929"/><path d="M180.139 43.422c0 1.281-1.015 2.32-2.266 2.32-1.252 0-2.267-1.039-2.267-2.32 0-1.282 1.015-2.32 2.267-2.32 1.251 0 2.266 1.038 2.266 2.32ZM189.099 43.422c0 1.281-1.015 2.32-2.267 2.32-1.251 0-2.266-1.039-2.266-2.32 0-1.282 1.015-2.32 2.266-2.32 1.252 0 2.267 1.038 2.267 2.32ZM198.058 43.422c0 1.281-1.014 2.32-2.266 2.32s-2.267-1.039-2.267-2.32c0-1.282 1.015-2.32 2.267-2.32s2.266 1.038 2.266 2.32Z" fill="#40BDDE"/><path d="M273.154 230.266H250.2a.294.294 0 0 1 0-.589h22.954a.295.295 0 1 1 0 .589ZM205.318 146.718c-6.802-3.28-8.082-10.643 1.84-13.444-6.962-8.562.08-13.523 4.802-14.484 4.721-.96 14.084 1.441 23.126 9.203 9.043 7.762 12.964 8.162 15.685 14.244 2.721 6.082 1.44 10.803-1.281 16.965-2.721 6.162-3.041 8.082 2.241 13.043 5.281 4.962 9.602 9.924 5.922 19.286-3.681 9.363-47.694 5.922-49.775-.48-2.08-6.402 2.881-29.849 2.881-29.849l-5.441-14.484Z" fill="#292929"/><path d="M200.277 185.049c-1.041-4.561.167-15.034 9.282-20.246 6.648-3.802 10.163 1.521 10.163 1.521l1.041 17.525s-18.246 1.28-20.486 1.2Z" fill="#292929"/><path d="M149.062 158.722c-.8-1.121-1.998-2.654-3.119-1.853-1.12.8.664 7.298 5.68 6.494-1.281-1.92-2.561-4.641-2.561-4.641Z" fill="#FEFEFE"/><path d="M146.6 156.941a.815.815 0 0 0-.485.168c-.219.156-.322.999.054 2.173.597 1.863 2.122 3.854 4.613 3.854h.001c.11 0 .222-.004.334-.011-1.187-1.875-2.31-4.253-2.322-4.278-.39-.538-1.367-1.906-2.195-1.906Zm4.183 6.785h-.001c-2.811 0-4.545-2.297-5.175-4.264-.326-1.02-.478-2.374.166-2.834.257-.184.536-.277.827-.277.995 0 1.886 1.057 2.702 2.199.04.073 1.313 2.77 2.567 4.649.056.083.065.19.024.282a.294.294 0 0 1-.223.173 5.63 5.63 0 0 1-.887.072Z" fill="#292929"/><path d="M163.226 159.442c-2.721-.881-4.482-3.041-3.601-4.802.88-1.76 3.761.56 5.762 2.161 2 1.6 3.921 1.92 3.921 1.92s-2.961 1.521-6.082.721Z" fill="#FEFEFE"/><path d="M160.633 154.305c-.348 0-.585.149-.744.467-.261.52-.265 1.088-.014 1.687.475 1.134 1.794 2.169 3.441 2.702a7.39 7.39 0 0 0 1.814.219c1.339 0 2.528-.332 3.265-.598a10.39 10.39 0 0 1-3.193-1.751c-1.46-1.168-3.408-2.726-4.569-2.726Zm4.497 5.664a7.984 7.984 0 0 1-1.977-.241c-1.824-.59-3.282-1.754-3.822-3.04-.316-.755-.305-1.508.03-2.18.26-.519.7-.793 1.272-.793 1.368 0 3.326 1.567 4.9 2.825 1.949 1.559 3.805 1.888 3.824 1.891a.295.295 0 0 1 .086.552c-.079.041-1.948.986-4.313.986Z" fill="#292929"/><path d="M166.08 184.009c-.213-4.695-.746-14.084-1.493-17.072-.748-2.987-5.443-2.135-5.763-2.241-.319-.106-6.161 2.108-9.042-3.734-2.881-5.842-.56-8.003 1.04-7.443.56-1.92 2.161-1.36 3.041-.399.801-1.681 3.121.08 3.681 2.24.56 2.161 1.12 4.081 5.601 3.521 4.482-.56 10.003-1.84 12.164 4.641 2.161 6.483 3.922 16.565 3.922 16.565s-.854 6.403-13.151 3.922Z" fill="#FEFEFE"/><path d="M166.364 183.765c1.773.346 3.401.521 4.845.521 6.709 0 7.638-3.766 7.722-4.198-.138-.777-1.851-10.319-3.902-16.472-1.456-4.369-4.456-4.929-6.907-4.929-1.295 0-2.637.18-3.934.355-.34.046-.676.09-1.006.132-.535.067-1.032.101-1.48.101-3.447 0-3.976-2.041-4.443-3.84-.393-1.515-1.637-2.69-2.445-2.69-.3 0-.524.164-.685.501a.293.293 0 0 1-.223.165.291.291 0 0 1-.261-.092c-.444-.485-1.007-.786-1.47-.786-.503 0-.863.36-1.07 1.069a.295.295 0 0 1-.38.196c-.579-.201-1.227.064-1.603.669-.371.598-1.024 2.413.924 6.365 1.275 2.584 3.31 3.894 6.051 3.894.953 0 1.755-.16 2.234-.255.227-.046.363-.073.461-.073.031 0 .095.008.125.018l.382-.019c.261-.014.605-.031.994-.031 2.624 0 4.165.841 4.58 2.5.802 3.209 1.332 13.457 1.491 16.899Zm4.845 1.11c-1.544 0-3.289-.194-5.187-.576a.298.298 0 0 1-.237-.276c-.144-3.175-.677-13.782-1.484-17.014-.341-1.362-1.69-2.054-4.008-2.054-.377 0-.711.018-.963.031-.293.015-.454.021-.554.002-.063.005-.176.031-.33.061-.5.1-1.338.267-2.349.267-2.942 0-5.217-1.46-6.579-4.224-2.005-4.065-1.423-6.091-.897-6.936.463-.745 1.244-1.123 2.009-.99.406-1.056 1.13-1.222 1.545-1.222.534 0 1.124.259 1.632.708a1.252 1.252 0 0 1 1.007-.497c1.174 0 2.583 1.464 3.015 3.131.473 1.824.882 3.399 3.873 3.399.423 0 .896-.032 1.407-.096.328-.041.662-.086 1-.131 1.317-.178 2.678-.361 4.013-.361 2.442 0 5.874.553 7.467 5.332 2.143 6.429 3.915 16.506 3.932 16.608.005.029.006.06.001.09-.006.047-.721 4.748-8.313 4.748Z" fill="#292929"/><path d="M152.062 164.093a.292.292 0 0 1-.18-.061c-1.813-1.4-3.014-3.493-3.573-6.219a.295.295 0 1 1 .577-.119c.53 2.584 1.659 4.56 3.356 5.871a.295.295 0 0 1-.18.528ZM159.625 163.018h-.013c-1.648-.072-3.013-.777-4.057-2.096-1.997-2.523-2.223-6.588-1.982-7.858a.293.293 0 0 1 .345-.234c.16.03.265.185.234.345-.219 1.153.013 5.041 1.865 7.381.933 1.179 2.151 1.809 3.621 1.872a.295.295 0 0 1-.013.59ZM156.505 165.178l-.025-.001c-1.541-.129-2.826-.846-3.821-2.134-2.354-3.048-2.341-8.346-2.127-9.573a.292.292 0 0 1 .341-.24c.161.027.268.18.24.34-.204 1.172-.221 6.22 2.013 9.112.889 1.152 2.034 1.794 3.403 1.908a.294.294 0 0 1-.024.588ZM211.961 189.29c2.64 1.2 10.322 3.921 24.246.4-.48 9.603-1.44 29.849-1.44 29.849s-11.603 6.562-19.366 3.841c-2.16-3.681-3.44-34.09-3.44-34.09Z" fill="#292929"/><path d="M214.337 181.692c2.32-.32 4.825-1.204 4.584-5.045-.24-3.841-.879-8.883-.879-8.883-6.002-.079-11.924-3.201-14.645-9.362-2.721-6.162.88-9.363 2.881-15.765 2.001-6.401 5.762-11.683 14.164-11.123 8.403.56 12.884 4.561 12.884 4.561-1.441 7.522-2.881 18.166.24 18.806 3.12.64 3.921-4.881 3.921-4.881 4.722-2.321 9.667.503 7.762 4.64-2.32 5.042-7.842 2.481-7.842 2.481-1.12 2.881-5.841 6.082-5.841 6.082.72 5.922 1.436 15.718 5.918 16.277-1.841 9.363-2.797 12.771-2.797 12.771s-16.085 3.922-21.927-1.84c.24-2 1.577-8.719 1.577-8.719Z" fill="#FEFEFE"/><path d="M213.071 190.302c2.074 1.963 5.647 2.957 10.623 2.957 4.99 0 9.803-1.038 10.754-1.255.207-.782 1.127-4.37 2.687-12.285-4.065-.892-4.994-8.963-5.677-14.896-.063-.55-.124-1.082-.185-1.585a.293.293 0 0 1 .127-.28c.046-.03 4.658-3.183 5.732-5.944a.295.295 0 0 1 .398-.161 7.942 7.942 0 0 0 2.967.623c2.071 0 3.581-.995 4.484-2.959.548-1.19.524-2.308-.07-3.234-.732-1.143-2.216-1.824-3.971-1.824-1.055 0-2.154.254-3.187.74-.153.882-1.015 5.028-3.695 5.028-.18 0-.366-.019-.552-.057-2.629-.54-2.798-6.926-.503-18.98-.78-.629-5.149-3.886-12.581-4.382-6.981-.464-11.385 2.988-13.862 10.917-.574 1.834-1.291 3.437-1.922 4.851-1.602 3.584-2.867 6.414-.972 10.706 2.466 5.582 7.975 9.102 14.379 9.187.147.002.27.111.289.258.006.05.644 5.094.881 8.901.253 4.036-2.458 4.993-4.63 5.325-.219 1.111-1.264 6.436-1.514 8.349Zm10.623 3.547c-5.221 0-8.97-1.087-11.141-3.228a.296.296 0 0 1-.086-.245c.238-1.989 1.526-8.467 1.58-8.742a.294.294 0 0 1 .249-.234c2.268-.314 4.557-1.121 4.331-4.735-.206-3.302-.715-7.542-.847-8.612-6.528-.178-12.127-3.812-14.653-9.532-2.001-4.533-.69-7.468.972-11.185.656-1.468 1.334-2.986 1.897-4.787 2.536-8.117 7.255-11.811 14.465-11.329 8.407.56 12.875 4.469 13.06 4.635a.292.292 0 0 1 .094.275c-2.162 11.288-2.158 18.017.01 18.462.147.03.293.046.433.046 2.43 0 3.13-4.634 3.137-4.681a.295.295 0 0 1 .161-.222c1.153-.566 2.392-.866 3.584-.866 1.957 0 3.627.783 4.468 2.095.696 1.089.735 2.438.109 3.799-1.257 2.73-3.424 3.303-5.02 3.303-1.302 0-2.428-.367-2.933-.561-1.19 2.592-4.882 5.277-5.685 5.839.054.451.109.924.165 1.412.678 5.886 1.605 13.948 5.476 14.431a.299.299 0 0 1 .202.12.29.29 0 0 1 .05.23c-1.821 9.268-2.792 12.76-2.802 12.794a.295.295 0 0 1-.214.207c-.054.013-5.445 1.311-11.062 1.311Z" fill="#292929"/><path d="M212.44 154.855c-.05 0-.1-.012-.146-.038-1.689-.962-2.574-1.905-2.706-2.882-.164-1.214.819-2.2 1.771-3.154.186-.186.371-.372.546-.558 1.557-1.658 1.392-4.68.579-6.787-.348-.903-.936-1.438-1.747-1.59-1.071-.196-2.226.333-2.773.936a.295.295 0 0 1-.437-.397c.671-.738 2.025-1.356 3.318-1.118.705.131 1.658.577 2.19 1.957.906 2.348 1.041 5.549-.701 7.403-.178.19-.367.379-.558.571-.85.852-1.728 1.734-1.604 2.658.105.772.916 1.595 2.413 2.449a.294.294 0 0 1-.145.55ZM226.897 144.88a.291.291 0 0 1-.244-.131c-3.112-4.641-6.418-4.002-8.113-3.205a.295.295 0 1 1-.25-.534c1.502-.704 5.372-1.782 8.852 3.411a.294.294 0 0 1-.245.459ZM222.146 149.075c-.311.998-1.026 1.665-1.595 1.488-.568-.178-.776-1.132-.465-2.13.311-.999 1.026-1.665 1.593-1.486.57.178.779 1.129.467 2.128Z" fill="#292929"/><path d="M221.829 147.6a.294.294 0 0 1-.282-.211l-.535-1.814a.295.295 0 0 1 .566-.167l.534 1.814a.295.295 0 0 1-.283.378ZM210.49 146.888c-.312.998-1.026 1.664-1.595 1.487-.568-.178-.777-1.132-.466-2.13.312-.999 1.027-1.664 1.595-1.485.568.177.778 1.129.466 2.128Z" fill="#292929"/><path d="M210.173 145.413a.295.295 0 0 1-.283-.212l-.533-1.814a.294.294 0 0 1 .2-.366.292.292 0 0 1 .365.199l.534 1.815a.295.295 0 0 1-.283.378ZM210.402 156.573c-.007 1.515.267 2.6.8 3.157 1.122 1.171 3.619-.026 6.29-2.841-2.856.559-5.728.396-7.09-.316Zm1.921 4.202c-.622 0-1.143-.214-1.548-.638-.716-.748-1.036-2.135-.949-4.122a.295.295 0 0 1 .493-.205c.423.387 1.663.837 3.766.837 1.313 0 2.759-.183 4.18-.532a.294.294 0 0 1 .292.481c-2.334 2.656-4.606 4.179-6.234 4.179Z" fill="#292929"/><path d="M211.08 160.244c-.05 0-.1-.013-.146-.04a.293.293 0 0 1-.109-.402c.693-1.207 3.51-1.959 5.191-1.389.154.052.238.22.185.373a.297.297 0 0 1-.374.186c-1.522-.517-3.977.229-4.491 1.124a.295.295 0 0 1-.256.148ZM217.916 168.086c-.173-.002-.329-.122-.329-.296a.295.295 0 0 1 .295-.294h.035c2.988 0 7.804-1.723 11.029-3.433a.295.295 0 1 1 .277.521c-3.291 1.744-8.222 3.502-11.307 3.502Z" fill="#292929"/><path d="M165.867 182.648c1.36.48 8.002.481 13.364-2.561.88 4.882 4.16 19.446 4.16 19.446 4.562-4.961 10.883-10.803 13.765-13.284 2.88-2.481 7.282-4.881 11.603-4.721 4.321.16 6.561-.08 6.561-.08s-3.44 6.082-1.68 22.966c1.761 16.885 2.321 19.126 2.321 19.126l-5.922-.56s1.201-3.761-2.4-8.082c-3.602-4.322-4.642-7.043-5.122-10.244-3.841 3.922-14.084 14.805-22.646 14.885-8.563.079-11.604-7.602-12.804-17.205-1.2-9.603-1.2-19.686-1.2-19.686Z" fill="#40BDDE"/><path d="M231.807 219.434c-2.4.72-12.725 3.786-17.447 3.466-4.721-.321-9.602-2.642-13.444-1.681-3.841.96-10.429 5.802-9.962 7.722.36 1.481 2.12.68 2.12.68.64 1.361 1.921.64 1.921.64.64 1.361 3.601.561 5.362-.96 1.76-1.52 3.92-2.321 6.642-1.36 2.72.96 6.961 2.32 11.922 2.561 4.962.24 16.646-.306 16.646-.306s1.761-6.921-3.76-10.762Z" fill="#FEFEFE"/><path d="M194.995 229.967a.27.27 0 0 1 .09.015c.078.025.143.08.177.154.205.436.737.527 1.149.527 1.129 0 2.673-.651 3.753-1.585 2.131-1.84 4.415-2.304 6.933-1.415 3.014 1.064 7.083 2.314 11.839 2.545.833.04 1.916.06 3.22.06 4.967 0 11.841-.296 13.171-.356.227-1.163 1.052-6.836-3.572-10.154-4.654 1.391-13.207 3.723-17.414 3.436-1.876-.127-3.772-.566-5.605-.989-2.054-.474-3.994-.922-5.782-.922-.724 0-1.367.073-1.966.223-3.863.964-10.149 5.715-9.748 7.365.112.458.383.672.853.672.434 0 .856-.188.86-.19a.296.296 0 0 1 .388.143c.21.444.504.662.899.662.329 0 .609-.153.612-.154a.288.288 0 0 1 .143-.037Zm1.416 1.286c-.84 0-1.291-.299-1.534-.62a1.958 1.958 0 0 1-.637.114c-.392 0-.918-.139-1.302-.759a2.848 2.848 0 0 1-.845.145c-.743 0-1.249-.399-1.426-1.123-.557-2.293 6.491-7.155 10.178-8.077a8.641 8.641 0 0 1 2.109-.24c1.856 0 3.827.455 5.915.938 1.811.418 3.683.851 5.512.974 4.154.287 12.763-2.08 17.342-3.454a.298.298 0 0 1 .253.041c5.624 3.912 3.896 11.006 3.877 11.077a.294.294 0 0 1-.272.222c-.079.004-7.918.367-13.424.367h-.001a69.61 69.61 0 0 1-3.249-.062c-4.832-.234-8.955-1.499-12.006-2.577-2.316-.816-4.383-.395-6.351 1.306-1.179 1.018-2.881 1.728-4.139 1.728Z" fill="#292929"/><path d="m245.489 216.738.56-6.722 1.841 6.242-2.401.48Zm22.567-2.961c-3.522-9.442-6.562-19.685-9.443-24.327-2.881-4.641-6.322-8.962-12.724-9.603-4.641-.32-8.802-.48-8.802-.48-1.521 4.002-6.402 23.367-3.841 39.612-1.121 0-1.92.64-1.92.64 2.56 2.081 4 5.841 3.36 10.883 11.123.88 22.887-.88 26.727-1.841 3.842-.96 10.164-5.441 6.643-14.884Z" fill="#40BDDE"/><path d="M161.571 159.228a.295.295 0 0 1-.018-.589 68.387 68.387 0 0 0 1.932-.165c2.418-.229 5.428-.511 7.227-.048a.296.296 0 0 1-.148.572c-1.701-.44-4.652-.161-7.024.063-.728.068-1.396.132-1.95.166l-.019.001ZM202.756 206.31a.295.295 0 0 1-.288-.237c-.535-2.678.063-6.111.894-8.324a.291.291 0 0 1 .379-.172c.153.057.23.226.172.379-.597 1.594-1.453 5.072-.867 8.001a.294.294 0 0 1-.29.353ZM231.503 219.699a.296.296 0 0 1-.285-.219.295.295 0 0 1 .21-.36c2.588-.686 18.802-3.867 24.519-4.357a.295.295 0 0 1 .051.588c-5.693.488-21.841 3.656-24.419 4.339a.335.335 0 0 1-.076.009ZM246.449 211.351a.294.294 0 0 1-.28-.205c-.58-1.81-2.003-7.52-2.687-10.264l-.2-.797a.297.297 0 0 1 .215-.358.297.297 0 0 1 .358.215l.199.798c.683 2.737 2.103 8.435 2.677 10.227a.297.297 0 0 1-.282.384ZM194.995 230.556l-.027-.001a.294.294 0 0 1-.267-.32c.097-1.071 4.406-4.667 8.295-5.778a.292.292 0 0 1 .364.202.294.294 0 0 1-.202.365c-3.913 1.118-7.807 4.571-7.87 5.264a.294.294 0 0 1-.293.268ZM193.074 229.917a.295.295 0 0 1-.295-.295c0-1.538 3.23-4.782 8.29-6.364a.295.295 0 0 1 .176.563c-5.196 1.624-7.876 4.802-7.876 5.801a.294.294 0 0 1-.295.295Z" fill="#292929"/><path d="M213.957 229.392h-25.271l-10.169-29.701c-.887-2.59-3.853-4.71-6.591-4.71h-43.155c-2.736 0-4.251 2.12-3.364 4.71l10.476 30.595c1.146 2.971 1.28 5.416 4.258 5.416h73.816a3.156 3.156 0 0 0 0-6.31Z" fill="#FAAD3A"/><path d="M186.459 230.234h-50.191a.294.294 0 1 1 0-.589h50.191a.295.295 0 1 1 0 .589ZM153.674 210.419c-.743 0-1.357.294-1.776.852-.606.805-.73 2.038-.342 3.381.7 2.425 2.845 4.398 4.781 4.398.742 0 1.355-.295 1.774-.852.606-.807.73-2.039.342-3.381-.699-2.425-2.843-4.398-4.779-4.398Zm2.663 9.22c-2.18 0-4.579-2.163-5.347-4.824-.441-1.522-.282-2.943.437-3.898.527-.702 1.325-1.088 2.247-1.088 2.181 0 4.579 2.165 5.345 4.824.441 1.522.282 2.943-.437 3.899-.527.701-1.324 1.087-2.245 1.087Z" fill="#292929"/></svg>