<svg width="600" height="432" fill="none" xmlns="http://www.w3.org/2000/svg"><path d="M589.344 308.41c-2.05.879-3.98 2.431-4.715 3.901-.851 1.149-1.043 2.899-.504 4.243.293.731.917 1.646 2.23 1.865 2.253.443 3.209-1.947 3.52-2.996.67-2.254.481-5.049-.531-7.013Zm-2.434 11.124a3.76 3.76 0 0 1-.744-.077c-1.387-.23-2.466-1.122-3.021-2.51-.677-1.69-.435-3.825.588-5.19.792-1.598 2.838-3.277 5.035-4.253-.448-.573-.995-1.019-1.639-1.277-1.483-.592-4.17-.71-6.227.244-1.068.495-1.761 1.194-2.054 2.073a.528.528 0 1 1-1.002-.333c.383-1.151 1.287-2.084 2.613-2.699 2.038-.946 5.077-1.061 7.062-.265.925.37 1.68 1.024 2.265 1.86a9.476 9.476 0 0 1 1.133-.303c2.243-.751 4.181-.707 5.694.151 1.627.921 2.763 2.782 3.374 5.533a.529.529 0 0 1-1.032.23c-.543-2.448-1.507-4.077-2.862-4.844-1.246-.706-2.895-.722-4.904-.051a8.3 8.3 0 0 0-.85.219c1.099 2.221 1.277 5.232.548 7.682-.724 2.436-2.18 3.809-3.977 3.81ZM144.922 334.735c-.345 0-.706.078-1.068.232-2.149.915-2.958 2.697-3.259 4.03-.256 1.144-.245 2.416-.004 3.627a7.133 7.133 0 0 0 1.47-.179c2.376-.576 4.586-2.436 5.026-4.232.236-1.264-.079-2.404-.85-3.023a2.072 2.072 0 0 0-1.315-.455Zm3.492 15.31c-2.59 0-5.005-1.026-6.844-2.924-.816-.921-1.434-2.144-1.808-3.469a7.912 7.912 0 0 1-3.838-1.392c-2.021-1.398-3.385-3.687-3.741-6.277-.402-3.211.705-5.186 2.439-7.835a.53.53 0 0 1 .884.58c-1.648 2.516-2.64 4.206-2.275 7.116.315 2.292 1.516 4.317 3.293 5.548a6.89 6.89 0 0 0 2.991 1.169c-.223-1.279-.219-2.599.05-3.795.509-2.257 1.849-3.908 3.875-4.771 1.226-.523 2.519-.383 3.458.372 1.079.866 1.537 2.387 1.222 4.068-.542 2.212-3.039 4.365-5.817 5.039a8.465 8.465 0 0 1-1.444.198c.333 1.045.838 2.001 1.485 2.732a8.432 8.432 0 0 0 6.518 2.575 9.027 9.027 0 0 0 6.625-3.419.529.529 0 0 1 .741-.088c.23.181.269.513.088.741a10.076 10.076 0 0 1-7.902 3.832ZM164.521 33.113l-.057.108c-1.293 2.508-.792 5.107 1.408 7.316 1.604 1.611 3.119 2.2 4.152 1.617 1.082-.609 1.557-2.436 1.107-4.25-.267-1.076-1.527-4.56-6.61-4.79Zm-11.817 14.252a.529.529 0 0 1-.528-.526c-.02-4.507 1.721-9.02 4.542-11.778 1.994-1.949 4.477-2.987 7.205-3.015 2.138-3.354 6.602-5.42 10.52-4.77 2.298.382 4.31 1.639 6.255 2.854 3.599 2.247 6.706 4.19 10.703-.028a.529.529 0 0 1 .767.726c-4.589 4.845-8.371 2.484-12.029.197-1.857-1.16-3.779-2.36-5.869-2.707-3.265-.539-7.073 1.109-9.098 3.783 4.218.419 6.372 3.082 6.984 5.547.57 2.297-.109 4.578-1.612 5.426-.868.49-2.728.91-5.42-1.791-2.403-2.412-3.042-5.364-1.786-8.158-2.234.152-4.209 1.055-5.882 2.691-2.624 2.566-4.242 6.787-4.224 11.018a.528.528 0 0 1-.526.53h-.002Z" fill="#292929"/><path d="M587.053 181.274c-2.112 0-4.109.91-5.341 2.432-1.219 1.506-1.615 3.469-1.145 5.677.643 3.023 3.115 4.977 6.295 4.977.924 0 1.855-.168 2.765-.499 1.561-.568 3.019-2.022 3.804-3.797.667-1.509.758-3.015.256-4.244-1.203-2.844-3.684-4.546-6.634-4.546Zm-.191 14.142c-3.699 0-6.576-2.283-7.329-5.814-.68-3.195.363-5.331 1.358-6.561 1.43-1.768 3.734-2.823 6.162-2.823 3.389 0 6.233 1.942 7.61 5.197.615 1.501.519 3.302-.266 5.077-.898 2.028-2.588 3.699-4.409 4.361a9.11 9.11 0 0 1-3.126.563Z" fill="#FAAD3A"/><path d="M58.41 325.625c-2.113 0-4.11.909-5.341 2.431-1.22 1.507-1.616 3.47-1.146 5.676.644 3.024 3.116 4.979 6.295 4.979a8.08 8.08 0 0 0 2.766-.499c1.56-.568 3.018-2.022 3.803-3.794.668-1.511.76-3.019.256-4.247-1.203-2.844-3.684-4.546-6.634-4.546Zm-.192 14.142c-3.699 0-6.576-2.282-7.328-5.814-.681-3.195.362-5.332 1.358-6.561 1.43-1.768 3.734-2.824 6.161-2.824 3.389 0 6.233 1.943 7.61 5.196.615 1.504.52 3.305-.266 5.08-.898 2.028-2.587 3.698-4.409 4.361a9.157 9.157 0 0 1-3.126.562ZM580.246 229.846a4.82 4.82 0 0 0-2.72.834l-15.588 10.589a4.834 4.834 0 0 0-2.04 3.115 4.832 4.832 0 0 0 .749 3.647l10.587 15.585a4.87 4.87 0 0 0 4.04 2.129c.977 0 1.919-.29 2.724-.837l15.584-10.584a4.877 4.877 0 0 0 1.293-6.765l-10.587-15.584a4.875 4.875 0 0 0-4.042-2.129Zm-4.972 36.955a5.932 5.932 0 0 1-4.915-2.59l-10.587-15.586a5.89 5.89 0 0 1-.911-4.44 5.88 5.88 0 0 1 2.483-3.791l15.588-10.589a5.882 5.882 0 0 1 3.314-1.016c1.976 0 3.815.969 4.917 2.592l10.587 15.585a5.938 5.938 0 0 1-1.574 8.232l-15.583 10.585a5.893 5.893 0 0 1-3.319 1.018Z" fill="#40BDDE"/><path d="M107.596 373.285c-.926 0-1.692.317-2.215.919-.677.782-.935 2.028-.725 3.514l3.063 21.638c.318 2.244 1.477 3.584 3.1 3.584.898 0 1.893-.407 2.876-1.179l17.207-13.474c1.385-1.085 2.057-2.335 1.888-3.52-.168-1.185-1.16-2.2-2.794-2.858l-20.27-8.163c-.759-.306-1.475-.461-2.13-.461Zm3.223 30.711c-2.165 0-3.752-1.721-4.145-4.491l-3.063-21.64c-.258-1.817.079-3.323.972-4.352 1.195-1.377 3.262-1.664 5.538-.747l20.27 8.164c1.999.803 3.222 2.115 3.446 3.689.222 1.574-.588 3.173-2.284 4.5l-17.207 13.474c-1.17.918-2.39 1.403-3.527 1.403Z" fill="#FAAD3A"/><path d="M274.564 11.544c-.8 0-1.706.294-2.622.849L253.246 23.71c-1.505.91-2.321 2.072-2.295 3.268.025 1.197.888 2.323 2.43 3.172l19.152 10.53c1.801.99 3.485.971 4.484-.049.701-.715 1.055-1.853 1.026-3.29l-.457-21.847c-.05-2.437-1.209-3.95-3.022-3.95Zm.478 30.932c-.953 0-1.969-.292-3.019-.87l-19.15-10.53c-1.888-1.037-2.946-2.484-2.979-4.075-.033-1.59.963-3.079 2.805-4.194l18.696-11.318c1.096-.664 2.162-1 3.169-1 2.414 0 4.015 1.955 4.078 4.984l.457 21.848c.036 1.727-.423 3.127-1.327 4.05-.708.723-1.651 1.105-2.73 1.105Z" fill="#FDCA81"/><path d="M374.996 167.55c-45.823 0-90.046 23.046-124.524 64.895-47.581 57.748-57.567 86.689-62.932 102.237-.279.806-.545 1.581-.805 2.322-6.796 19.421-6.472 36.158.966 49.745 8.828 16.129 27.664 27.707 55.987 34.415 25.074 5.939 62.9 9.211 106.511 9.212h.018c68.813 0 152.485-8.502 184.315-27.497 17.21-10.271 26.157-36.364 23.349-68.097-4.547-51.403-42.097-123.619-132.956-157.98-16.234-6.14-33.033-9.252-49.929-9.252Zm-24.779 263.882h-.018c-43.69-.001-81.602-3.283-106.755-9.24-28.625-6.78-47.692-18.534-56.669-34.936-7.587-13.861-7.937-30.885-1.037-50.6.26-.742.525-1.513.803-2.319 5.387-15.611 15.413-44.669 63.115-102.565 34.684-42.096 79.196-65.278 125.34-65.278 17.024 0 33.949 3.135 50.302 9.319 40.767 15.418 74.858 40.202 98.587 71.675 19.969 26.486 32.417 57.454 35.049 87.2 2.843 32.141-6.3 58.617-23.862 69.098-31.999 19.097-115.9 27.646-184.855 27.646Z" fill="#292929"/><path d="M142.736 124.046c2.101 3.439 3.818 9.555 4.776 16.244.671 4.68 1.912 5.159 6.497 7.261 4.587 2.102 5.639 6.115 3.155 8.408-3.539 3.266-3.535 1.482-4.013 5.159-.32 2.454.346 4.412-2.955 3.356-1.296-.415-3.976-2.01-4.357-1.716-1.143.883-.792 4.225 3.565 6.733 1.589.915 2.905.792 1.501 8.062-1.223 6.331-8.886 7.309-16.483 5.875-7.596-1.432-6.019 4.301-9.028 12.47-3.01 8.17-3.44 12.756.715 16.196 4.157 3.44 7.454 19.922 7.024 23.935-.43 4.013-14.763 12.325-26.946-1.147-6.592-9.172-14.045-26.802-14.045-26.802s7.739-10.749 7.596-21.212c-.143-10.462-4.586-49.877 9.889-61.056 14.476-11.178 31.675-4.536 33.109-1.766Z" fill="#FEFEFE"/><path d="M92.742 208.145c.968 2.251 7.833 18.024 13.874 26.43 5.351 5.913 10.855 7.162 14.524 7.162 6.374 0 11.25-3.739 11.467-5.764.415-3.877-2.913-20.224-6.836-23.471-4.546-3.764-3.815-8.803-.874-16.786.802-2.173 1.271-4.166 1.687-5.924.972-4.128 1.677-7.111 5.759-7.111.648 0 1.361.075 2.177.229 1.999.378 3.904.569 5.662.569 4.124 0 9.243-1.046 10.204-6.025 1.2-6.215.405-6.631-.798-7.261-.145-.077-.295-.155-.449-.244-2.606-1.5-4.244-3.577-4.378-5.553-.06-.89.215-1.637.755-2.056.458-.354 1.255-.008 2.944.8.697.334 1.418.678 1.896.832.556.178 1.003.267 1.327.267.625 0 .741-.257.832-1.836.023-.422.051-.877.112-1.351.318-2.447.444-2.712 1.677-3.522.521-.341 1.308-.857 2.5-1.959.891-.822 1.28-1.911 1.096-3.068-.278-1.747-1.815-3.419-4.111-4.471l-.268-.123c-4.364-1.998-5.834-2.67-6.532-7.544-.992-6.925-2.707-12.772-4.705-16.044-.67-1.29-6.303-4.241-14.263-4.241-4.61 0-11.487 1.068-18.072 6.151-12.244 9.457-10.681 40.03-9.931 54.723.122 2.384.227 4.444.248 5.908.133 9.768-6.343 19.578-7.524 21.283Zm28.398 34.648c-3.884 0-9.697-1.311-15.345-7.556-6.588-9.162-14.066-26.773-14.14-26.95a.527.527 0 0 1 .057-.514c.077-.106 7.636-10.733 7.497-20.896-.02-1.445-.124-3.495-.246-5.869-.76-14.873-2.341-45.819 10.341-55.612 6.82-5.267 13.942-6.373 18.717-6.373 7.758 0 14.174 2.831 15.182 4.781 2.053 3.356 3.82 9.35 4.832 16.412.616 4.302 1.635 4.768 5.925 6.732l.269.124c2.657 1.217 4.375 3.137 4.713 5.265.242 1.518-.263 2.941-1.42 4.01-1.257 1.161-2.089 1.705-2.638 2.066-.911.599-.928.61-1.21 2.775-.058.448-.083.878-.105 1.275-.095 1.667-.25 3.568-3.534 2.515-.548-.176-1.302-.536-2.031-.885-.636-.305-1.567-.75-1.934-.829-.191.219-.286.604-.255 1.06.086 1.254 1.142 3.15 3.853 4.711.139.08.277.152.41.223 1.721.901 2.631 1.735 1.345 8.397-.857 4.437-4.849 6.88-11.241 6.88-1.823 0-3.794-.198-5.857-.586a10.799 10.799 0 0 0-1.982-.212c-3.116 0-3.702 1.931-4.732 6.298-.422 1.787-.9 3.813-1.722 6.047-3.198 8.678-3.057 12.615.556 15.606 4.334 3.586 7.666 20.161 7.212 24.399-.289 2.7-5.673 6.706-12.517 6.706Z" fill="#292929"/><path d="M99.356 306.736c2.676 1.148 27.901 2.484 27.901 2.484s11.084-35.351 6.499-75.865c-9.174 8.026-19.494 6.114-29.812-2.294 6.495 19.875 3.44 60.768-4.588 75.675ZM138.167 149.893c.559 1.788 1.838 2.981 2.856 2.664 1.019-.319 1.392-2.027.835-3.816-.558-1.787-1.838-2.98-2.854-2.66-1.02.318-1.396 2.024-.837 3.812Z" fill="#292929"/><path d="M139.883 146.936a.528.528 0 0 1-.506-.677l.956-3.249a.527.527 0 1 1 1.013.298l-.956 3.25a.529.529 0 0 1-.507.378Z" fill="#292929"/><path d="M114.453 254.757c-2.95-21.758-12.678-36.153-21.282-49.49-1.32-2.046-2.541-1.755-3.103-1.643-4.114.817-8.705 2.748-7.529 5.269.25.533.633 1.081 1.11 1.691-1.785.36-3.921.808-6.46 1.367-9.556 2.1-15.47 5.881-21.393 11.804-5.925 5.923-36.218 42.656-44.626 52.019 11.084 21.405 30.102 24.557 30.102 24.557s17.38-17.483 28.273-30.86c-.384 2.674-1.719 27.519-5.541 37.264 6.75 3.917 25.514 3.73 35.95 3.283 1.712 1.572 8.385.157 8.385.157s9.171-32.868 6.114-55.418Z" fill="#40BDDE"/><path d="M82.252 129.97c-5.016 1.863-10.606 6.449-13.616 26.084-1.455 9.496-4.979 19.69-4.316 29.374.622 9.063 8.471 11.535 16.473 13.135 7.05 1.41 34.448 7.943 36.176-3.854 2.015-13.763-19.677-20.674-16.566-33.448.633-2.596 3.241-5.823 5.926-6.424 3.426-.765 4.444 2.163 7.109 3.959 3.246 2.189 5.189.91 7.139-2.375 1.843-3.104 1.153-8.078.861-11.564-.382-4.567-.925-6.217 3.038-7.524 5.357-1.766 9.944-5.396 4.788-11.52 6.879 8.169 10.318 6.88 15.907 3.297 5.59-3.584 5.877-6.88 3.727-13.042-2.151-6.164-8.743-15.623-20.352-14.19-11.609 1.433-10.463 4.586-24.365 7.453-13.903 2.867-22.789 7.023-21.929 20.639Z" fill="#292929"/><path d="M134.136 140.673a.529.529 0 0 1-.498-.706c.375-1.051 2.495-6.344 7.413-7.362a.53.53 0 0 1 .213 1.035c-4.363.902-6.29 5.724-6.631 6.682a.529.529 0 0 1-.497.351Z" fill="#292929"/><path d="m99.548 309.557-.033-.001a.527.527 0 0 1-.494-.559c.028-.459.126-1.711.267-3.531.827-10.624 3.026-38.847 2.219-45.293-.844-6.747.985-8.438 3.754-10.997.345-.319.709-.656 1.087-1.019a528.673 528.673 0 0 0-7.65-4.797c-2.828-1.728-3.45-4.075-5.114-10.346a299.39 299.39 0 0 0-1.806-6.584c-2.27-7.882-5.503-11.809-7.643-14.407-.525-.637-.978-1.187-1.356-1.715a.528.528 0 0 1 .86-.615c.357.499.8 1.036 1.312 1.658 2.195 2.666 5.512 6.695 7.842 14.787.75 2.601 1.339 4.82 1.812 6.605 1.584 5.973 2.178 8.208 4.645 9.715 3.405 2.082 8.178 5.135 8.227 5.166a.529.529 0 0 1 .089.818 53.707 53.707 0 0 1-1.589 1.51c-2.707 2.503-4.198 3.881-3.421 10.089.819 6.553-1.385 34.854-2.215 45.507-.14 1.812-.238 3.058-.266 3.515a.528.528 0 0 1-.527.494Z" fill="#FEFEFE"/><path d="m173.311 240.424-4.013 11.848s-9.555-17.389-15.671-25.033c-5.715-7.144-13.931-11.616-20.441-14.044-4.393-7.269-10.598-8.318-10.598-8.318s-.492 1.721.417 3.898c.909 2.176 10.747 19.228 8.455 46.364-2.292 27.136-10.128 54.081-10.128 54.081h5.925l.13-.426c4.457.573 13.532 1.487 13.819-.529.383-2.675 5.543-24.078 8.6-30.767 9.172 17.006 17.683 20.477 29.997 15.304 8.802-3.697 16.058-33.267 17.014-44.924.19-.192-23.506-7.454-23.506-7.454Z" fill="#40BDDE"/><path d="M127.257 309.748a.529.529 0 0 1-.505-.682c.118-.388 11.861-38.859 13.559-46.209 1.743-7.562 1.687-8.469.551-10.691a718.242 718.242 0 0 1-2.657-5.243.531.531 0 0 1 .195-.687c1.29-.796 4.515-3.335 3.967-5.49-1.22-4.786-5.867-20.645-9.265-26.673l-.11-.193a.53.53 0 0 1 .918-.524l.113.199c3.448 6.119 8.139 22.108 9.368 26.931.721 2.831-2.8 5.537-4.031 6.383.409.815 1.368 2.72 2.441 4.816 1.329 2.594 1.277 3.873-.462 11.409-1.704 7.387-13.458 45.892-13.577 46.281a.528.528 0 0 1-.505.373Z" fill="#FEFEFE"/><path d="M149.805 278.025a.529.529 0 0 1-.479-.747c8.591-18.804 5.389-25.573 3.476-29.617-.333-.704-.621-1.312-.821-1.911a.53.53 0 0 1 1.004-.334c.178.539.453 1.12.772 1.793 1.991 4.21 5.325 11.256-3.471 30.508a.53.53 0 0 1-.481.308ZM172.406 259.966a.528.528 0 0 1-.478-.3c-.021-.044-2.13-4.461-4.024-9.006a.53.53 0 0 1 .284-.691.532.532 0 0 1 .691.285c1.883 4.521 3.982 8.912 4.003 8.956a.528.528 0 0 1-.476.756Z" fill="#292929"/><path d="M174.84 235.885c2.149-6.736 5.303-24.938 6.019-31.674.716-6.736-3.296-16.196 1.434-22.215 4.729-6.019 7.74-9.03 9.029-12.04 1.29-3.009 4.3-3.439 5.876-.43 1.577 3.01-.86 8.314-4.442 12.04 8.742-5.589 9.458-3.584 12.181-7.882 2.724-4.301 8.027-15.337 11.468-15.05 2.865-3.87 6.162-1.72 6.735 3.583 1.72-.142 3.297 3.87 2.151 9.89 4.155 2.436 3.725 11.321-2.151 18.058-5.877 6.737-17.056 10.749-19.493 16.196-2.435 5.446-6.449 37.407-6.449 37.407l-22.358-7.883Z" fill="#FEFEFE"/><path d="m175.494 235.556 21.262 7.497c.599-4.697 4.134-31.82 6.409-36.908 1.37-3.062 5.313-5.651 9.487-8.391 3.644-2.393 7.411-4.866 10.089-7.936 3.481-3.99 5.302-9.195 4.639-13.262-.308-1.889-1.122-3.271-2.357-3.995a.529.529 0 0 1-.253-.554c.838-4.397.194-7.596-.816-8.816-.17-.205-.433-.449-.726-.449-.269 0-.585-.2-.614-.468-.329-3.042-1.604-5.086-3.171-5.086-.858 0-1.762.608-2.615 1.76a.517.517 0 0 1-.468.212h-.002c-2.473 0-6.333 6.767-8.887 11.246-.768 1.348-1.494 2.622-2.088 3.559-1.643 2.594-2.636 3.032-4.812 3.991-1.613.709-3.822 1.682-7.532 4.054a.531.531 0 0 1-.693-.109.53.53 0 0 1 .029-.702c3.245-3.375 5.875-8.528 4.355-11.428-.598-1.142-1.429-1.77-2.341-1.77-1.036 0-2.002.808-2.582 2.163-.925 2.157-2.641 4.238-5.239 7.39a241.988 241.988 0 0 0-3.861 4.768c-2.959 3.767-2.329 9.028-1.72 14.117.334 2.797.651 5.439.397 7.827-.677 6.364-3.714 24.097-5.89 31.29Zm21.704 8.74a.566.566 0 0 1-.177-.029l-22.357-7.884a.529.529 0 0 1-.328-.659c2.166-6.786 5.308-25.092 5.998-31.57.241-2.27-.068-4.853-.395-7.59-.635-5.302-1.292-10.785 1.938-14.895 1.454-1.851 2.741-3.411 3.875-4.787 2.542-3.082 4.22-5.117 5.084-7.133.752-1.757 2.081-2.805 3.553-2.805 1.304 0 2.499.852 3.276 2.337 1.411 2.691-.027 6.764-2.489 10.197 2.256-1.294 3.828-1.986 4.971-2.49 2.09-.921 2.872-1.265 4.344-3.588.581-.917 1.3-2.18 2.063-3.517 3.62-6.349 6.845-11.621 9.59-11.779 1.279-1.624 2.492-1.972 3.299-1.972 2.082 0 3.693 2.182 4.169 5.6.342.083.752.298 1.155.785 1.057 1.277 1.961 4.475 1.106 9.335 1.337.923 2.215 2.482 2.55 4.534.711 4.364-1.207 9.909-4.885 14.126-2.774 3.179-6.603 5.693-10.306 8.125-4.042 2.653-7.859 5.159-9.102 7.939-2.377 5.313-6.368 36.94-6.409 37.259a.527.527 0 0 1-.523.461Z" fill="#292929"/><path d="M197.914 191.41a.528.528 0 0 1-.513-.406c-.725-3.043-3.448-8.005-4.938-8.999a.529.529 0 1 1 .585-.878c1.856 1.236 4.65 6.562 5.38 9.632a.526.526 0 0 1-.514.651ZM215.401 188.544a.528.528 0 0 1-.473-.291c-.533-1.068-6.879-8.676-9.298-9.482a.53.53 0 0 1 .335-1.002c2.774.925 9.329 8.853 9.908 10.011a.527.527 0 0 1-.472.764Z" fill="#292929"/><path d="M214.111 189.261a.528.528 0 0 1-.222-1.008c1.659-.765 5.309-5.446 6.295-10.795.505-2.742 1.349-4.446 2.578-5.208 1.138-.705 2.397-.463 3.246-.221a.528.528 0 1 1-.291 1.016c-1.056-.303-1.795-.271-2.398.103-.949.589-1.654 2.103-2.096 4.502-1.015 5.507-4.82 10.607-6.892 11.562a.528.528 0 0 1-.22.049ZM212.247 184.53a.527.527 0 0 1-.346-.927c3.124-2.716 4.404-6.677 5.561-12.6 1.063-5.453 3.137-8.487 6.16-9.018a.528.528 0 1 1 .182 1.039c-2.548.449-4.333 3.201-5.305 8.18-1.201 6.15-2.552 10.281-5.905 13.197a.527.527 0 0 1-.347.129ZM208.95 180.805a.528.528 0 0 1-.431-.833c1.555-2.209 3.508-8.526 5.075-13.603 1.174-3.796 2.187-7.074 2.92-8.418a.526.526 0 0 1 .716-.21c.257.139.351.46.211.716-.682 1.251-1.729 4.638-2.837 8.224-1.673 5.415-3.57 11.553-5.221 13.9a.528.528 0 0 1-.433.224ZM68.397 271.146a.527.527 0 0 1-.4-.87c3.22-3.788 9.698-10.652 9.764-10.721a.527.527 0 1 1 .767.726c-.065.068-6.525 6.912-9.727 10.679a.524.524 0 0 1-.404.186ZM173.906 234.181c-2.112 3.961-3.334 10.385-2.904 10.958.43.574 16.107 1.849 26.802 9.506 2.436 1.146 3.215-10.144 2.834-11.45-1.003-3.44-25.441-10.447-26.732-9.014Z" fill="#292929"/><path d="M114.262 254.33a.526.526 0 0 1-.347-.13c-.049-.041-4.864-4.222-7.104-5.714a.528.528 0 0 1 .586-.879c2.296 1.529 7.012 5.622 7.212 5.796a.53.53 0 0 1-.347.927ZM131.669 252.182a.529.529 0 0 1-.374-.901c2.018-2.019 4.598-3.566 6.304-4.591a37.81 37.81 0 0 0 1.063-.65.528.528 0 1 1 .576.885c-.285.185-.659.409-1.095.671-1.663.998-4.175 2.505-6.1 4.431a.53.53 0 0 1-.374.155Z" fill="#FEFEFE"/><path d="M116.318 177.12c-.558-5.211-4.666-10.552-9.542-7.436-4.241 2.708-5.532 9.999-1.65 13.455 1.652 1.471 4.326 2.159 6.561 1.722 3.754-.736 5.009-4.209 4.631-7.741Z" fill="#FAAD3A"/><path d="M127.083 66.265c-3.852 0-7.716.17-11.487.503-58.832 5.21-95.633 38.299-109.378 98.349-6.043 26.394-11.219 88.548 11.349 112.209 24.156 25.324 42.544 28.143 81.8 28.882 13.554.257 24.936.686 34.977 1.065 11.675.441 21.756.822 32.043.822h.002c8.152 0 15.624-.236 23.515-.742l2.439-.153c29.339-1.827 73.674-4.589 78.477-69.681 3.732-50.605-9.778-94.021-39.069-125.554-26.583-28.616-65.711-45.7-104.668-45.7Zm39.306 242.886h-.002c-10.307 0-20.398-.381-32.083-.823-10.036-.378-21.413-.808-34.957-1.063-39.568-.746-58.112-3.596-82.544-29.211-22.864-23.97-17.7-86.598-11.615-113.173 13.86-60.547 50.975-93.911 110.315-99.165 3.801-.336 7.697-.507 11.58-.507 39.245 0 78.662 17.21 105.441 46.037 20.569 22.143 44.093 62.037 39.349 126.351-4.871 66.011-49.76 68.807-79.464 70.657l-2.437.155c-7.914.506-15.409.742-23.583.742Z" fill="#292929"/><path d="M181.067 91.654c7.157-1.867 30.034-6.225 42.018-8.715 11.983-2.491 25.056-4.203 26.768-3.424 1.711.778-17.276 24.744-26.146 34.237-2.956 2.023-7.003-1.712-7.003-1.712-8.403 8.715-17.898 11.983-19.452 12.295-1.557.31-2.336-9.337-2.492-15.097-.155-5.757.867-6.879-3.889-9.181-14.785-7.16-9.804-8.403-9.804-8.403Z" fill="#40BDDE"/><path d="M197.251 124.863a.528.528 0 0 1-.139-1.037c.781-.284 3.621-4.884 5.695-8.243 2.228-3.61 4.333-7.02 5.588-8.273 2.362-2.363 24.131-17.223 33.372-23.477l-45.253 17.96a.528.528 0 1 1-.391-.981l49.8-19.764a.528.528 0 0 1 .431.963c-1.538.815-34.742 23.575-37.212 26.045-1.167 1.168-3.338 4.683-5.437 8.082-3.605 5.84-5.292 8.427-6.314 8.706a.524.524 0 0 1-.14.019Z" fill="#292929"/><path d="M217.638 113.191a.53.53 0 0 1-.311-.101l-.228-.167c-3.191-2.332-7.162-5.243-8.094-4.768a.53.53 0 0 1-.709-.237.527.527 0 0 1 .236-.708c1.438-.718 4.285 1.273 9.191 4.86l.226.166a.526.526 0 0 1 .115.738.526.526 0 0 1-.426.217Z" fill="#292929"/><path d="M258.253 198.358c-5.985.548-9.384 4.266-8.784 14.845.599 10.581-1.797 21.503 2.396 25.596 4.193 4.097 14.771 4.099 24.555 4.268 9.783.169 22.452-.118 26.204-.171 8.833-.128 11.977-1.663 13.175-8.576.706-4.068-.987-27.021-1.047-29.435-.151-6.015-4.044-6.784-12.578-7.167-8.182-.369-38.33.127-43.921.64Z" fill="#FAAD3A"/><path d="m282.283 226.369-.118-.002c-4.21-.063-7.635-3.605-10.148-6.685-4.642-5.696-15.087-17.37-17.625-19.541a.527.527 0 1 1 .686-.802c2.572 2.198 13.093 13.952 17.759 19.674 2.367 2.902 5.569 6.241 9.343 6.298 2.701.017 5.523-1.621 8.396-4.936 7.908-9.123 19.644-20.616 19.761-20.731a.529.529 0 0 1 .739.755c-.118.115-11.822 11.577-19.701 20.667-3.09 3.566-6.066 5.303-9.092 5.303Z" fill="#292929"/><path d="M251.864 239.327a.528.528 0 0 1-.235-1c1.373-.685 8.376-7.294 13.488-12.12 4.235-3.997 6.659-6.277 7.234-6.627a.528.528 0 1 1 .55.901c-.507.31-3.689 3.314-7.06 6.495-6.927 6.539-12.338 11.598-13.741 12.295a.512.512 0 0 1-.236.056ZM311.559 241.034a.529.529 0 0 1-.455-.261c-.337-.572-4.27-4.834-8.075-8.956-5.022-5.44-10.215-11.065-11-12.312a.529.529 0 1 1 .893-.564c.734 1.166 6.126 7.007 10.883 12.16 4.846 5.25 7.836 8.499 8.211 9.138a.528.528 0 0 1-.457.795ZM501.171 64.97c-2.905-12.322-29.663-28.165-41.105-23.763-11.442 4.4 3.168 9.505 3.168 9.505-17.603-3.169-26.053-1.058-27.813 3.345-1.761 4.4 5.633 6.16 5.633 6.16-11.971.352-25.349 9.683-23.413 16.196 1.936 6.514 9.858 4.137 9.858 4.137-11.267 9.066-9.429 18.285 2.327 17.197-12.361 9.296-14.12 26.372-9.368 32.533 4.752 6.162 9.366-3.164 9.366-3.164-4.966 13.727 2.427 22.705 9.469 11.263-1.584 15.667 12.323 17.779 16.724 10.034 4.225 14.963 14.259 12.674 16.02 5.281 5.457 6.865 16.195 4.577 18.308-2.817 5.985 7.042 11.266.616 10.738-4.841 6.161 7.217 15.844 8.097 17.78-5.017 8.801 6.514 13.203 6.338 10.826-9.242 14.7 5.369 22.445-11.003 5.545-25.085 11.267 2.992 10.034-8.626-6.073-15.58 11.354-.264 12.762-8.01 7.129-13.73-5.632-5.722-15.138-16.813-35.119-12.411Z" fill="#292929"/><path d="M445.221 95.04c-1.719 10.318 1.339 13.378 4.395 20.64 3.059 7.261-1.217 14.914 6.929 23.981 7.595 8.457 19.062 7.932 19.062 7.932l3.248 13.186 28.092-7.263-6.114-26.467s5.732-3.152 4.012-14.428c-1.719-11.275-1.91-39.174-29.238-34.97-27.328 4.202-27.9 9.17-30.386 17.39Z" fill="#FEFEFE"/><path d="M475.607 147.065c.241 0 .455.165.512.402l3.12 12.667 27.078-6.999-6-25.966a.532.532 0 0 1 .26-.582c.053-.028 5.383-3.159 3.745-13.886-.176-1.156-.336-2.489-.512-3.944-1.396-11.596-3.735-31.006-22.918-31.006-1.636 0-3.387.142-5.205.422-26.075 4.01-27.444 8.598-29.714 16.197l-.246.823c-1.341 8.075.317 11.569 2.611 16.403a89.924 89.924 0 0 1 1.765 3.88c1.178 2.795 1.299 5.577 1.428 8.522.209 4.801.426 9.766 5.407 15.312 6.636 7.387 16.383 7.761 18.27 7.761.508 0 .383-.006.399-.006Zm3.248 14.243a.532.532 0 0 1-.513-.402l-3.148-12.779c-1.995-.001-12.12-.408-19.042-8.112-5.233-5.827-5.469-11.216-5.676-15.971-.125-2.848-.243-5.538-1.346-8.158a89.701 89.701 0 0 0-1.746-3.837c-2.287-4.82-4.095-8.627-2.683-17.095l.26-.886c2.389-7.999 3.829-12.827 30.566-16.939a35.418 35.418 0 0 1 5.365-.434c20.12 0 22.528 19.992 23.967 31.935.173 1.443.333 2.765.508 3.913 1.529 10.025-2.667 13.842-3.938 14.748l6.033 26.107a.53.53 0 0 1-.383.63l-28.092 7.263a.543.543 0 0 1-.132.017Z" fill="#292929"/><path d="M511.333 102.991c-.954-5.759-2.124-11.206-5.101-16.337-1.835-3.163-3.492-6.42-6.596-8.528-8.717-5.924-20.456-5.57-30.376-3.512-7.878 1.635-16.648 4.427-22.753 9.858-2.029 1.804-10.245 9.995-4.924 12.36 3.116 1.388 6.55-1.554 8.9-3.539.105.3.273.62.517.988 1.585 2.376 5.545 2.64 8.186 2.112 6.865-1.056 13.467-5.545 18.484-10.562-1.056 1.584-2.377 3.697-1.848 5.81 1.056 2.376 3.432 2.64 5.545 2.64 4.489-.264 8.714-3.96 11.882-6.866-2.64 5.018-5.545 10.035-5.809 15.844-.264 2.641 0 5.545 1.056 7.922 1.321 3.168 4.225 3.168 6.866 1.32-1.32 4.225-2.113 8.186-.264 12.411 1.101 2.518 4.576 6.777 9.418 5.897 3.867-.703 4.583-9.773 5.985-12.939 2.616-5.909 1.897-8.447.832-14.879Z" fill="#292929"/><path d="M439.927 98.73c-2.364 0-4.651-.84-5.288-3.239-.372-1.393-.151-3.08.179-4.197.641-2.174 2.616-5.25 4.403-6.858a.528.528 0 1 1 .705.785c-1.635 1.472-3.511 4.39-4.095 6.373-.29.978-.487 2.444-.171 3.626.794 2.98 5.002 2.461 5.838 2.325 2.504-.404 4.361-.977 5.843-1.806a.53.53 0 0 1 .719.203.526.526 0 0 1-.203.719c-1.593.891-3.561 1.503-6.192 1.926-.568.092-1.156.143-1.738.143Z" fill="#FEFEFE"/><path d="m467.8 129.75-.028-.001c-3.475-.192-5.647-.995-6.64-2.456-1.233-1.814-.445-4.182.318-6.472.148-.447.297-.893.428-1.329 1.17-3.904-1.51-8.616-4.496-11.342-2.357-2.151-5.362-2.556-7.293-2.004-1.096.314-1.849.932-2.064 1.698a.53.53 0 0 1-1.018-.287c.318-1.126 1.334-2.01 2.792-2.427 2.215-.633 5.638-.186 8.295 2.241 3.33 3.039 6.104 8.06 4.795 12.424-.133.447-.285.902-.437 1.359-.682 2.046-1.386 4.163-.446 5.545.784 1.154 2.744 1.825 5.824 1.996a.527.527 0 0 1-.03 1.055ZM466.184 106.406a.531.531 0 0 1-.414-.857c1.845-2.329 7.186-7.148 16.916-1.608a.53.53 0 0 1-.522.918c-8.694-4.948-13.483-1.281-15.565 1.346a.529.529 0 0 1-.415.201ZM478.592 114.569c.884 1.651.842 3.399-.099 3.903-.939.506-2.422-.423-3.309-2.075-.886-1.648-.838-3.396.099-3.899.942-.505 2.422.422 3.309 2.071Z" fill="#292929"/><path d="M475.931 113.284a.539.539 0 0 1-.249-.061l-2.99-1.593a.528.528 0 1 1 .497-.932l2.99 1.592a.529.529 0 0 1-.248.994ZM458.671 116.289c.883 1.65.84 3.398-.101 3.903-.939.505-2.422-.425-3.307-2.077-.887-1.647-.841-3.395.098-3.898.943-.505 2.422.42 3.31 2.072Z" fill="#292929"/><path d="M456.009 115.003a.536.536 0 0 1-.248-.062l-2.991-1.592a.531.531 0 0 1-.217-.716.53.53 0 0 1 .715-.217l2.99 1.593a.529.529 0 0 1-.249.994ZM465.744 132.533c1.689 3.284 3.706 5.146 5.606 5.146 2.724 0 4.882-3.724 5.619-9.586-6.621 4.213-8.837 4.609-11.225 4.44Zm5.606 6.202c-2.52 0-4.996-2.339-6.97-6.588a.526.526 0 0 1 .531-.749c.541.054 1.099.11 1.648.11 2.038 0 4.453-.802 10.767-4.9a.528.528 0 0 1 .813.491c-.66 7.178-3.262 11.636-6.789 11.636Z" fill="#292929"/><path d="M469.874 138.326a.528.528 0 0 1-.509-.667c.931-3.413 4.721-5.963 7.216-5.816a.53.53 0 0 1 .495.561.515.515 0 0 1-.561.494c-2.123-.136-5.347 2.169-6.131 5.039a.528.528 0 0 1-.51.389Z" fill="#292929"/><path d="M406.382 228.091c5.016-4.871 28.951-36.545 38.267-47.869 9.316-11.323 20.065-11.609 34.684-11.753-3.599-14.423-2.643-14.742-1.926-14.6.716.144 14.373 3.123 27.99-6.337 3.608-.968 3.461 13.486 6.901 15.348 3.439 1.864 26.371-2.867 37.695 8.457 11.322 11.322 19.204 38.124 19.204 38.124-6.163 9.889-48.014 40.989-100.613 26.658-1.003-4.444-8.17-11.324-10.319-20.065-8.886 11.609-15.193 20.207-15.193 20.207s-28.234-1.863-36.69-8.17Z" fill="#FAAD3A"/><path d="M490.301 172.813c-5.758 0-9.771-2.329-11.349-3.978a.528.528 0 1 1 .764-.73c2.961 3.096 15.11 8.658 31.515-5.906a.525.525 0 0 1 .745.045.525.525 0 0 1-.044.745c-8.481 7.53-15.916 9.824-21.631 9.824Z" fill="#292929"/><path d="M487.265 172.678a.53.53 0 0 1-.506-.375c-.19-.628-4.694-15.426-5.168-17.522a.529.529 0 0 1 1.03-.234c.466 2.059 5.102 17.296 5.15 17.449a.529.529 0 0 1-.506.682ZM493.474 172.582a.531.531 0 0 1-.505-.371l-5.541-17.676a.53.53 0 0 1 .347-.662.531.531 0 0 1 .662.346l5.541 17.676a.528.528 0 0 1-.504.687ZM499.972 170.67a.529.529 0 0 1-.502-.363l-5.542-16.912a.529.529 0 1 1 1.005-.329l5.542 16.912a.53.53 0 0 1-.503.692ZM505.898 167.613a.53.53 0 0 1-.507-.379l-4.682-15.86a.528.528 0 1 1 1.013-.299l4.682 15.86a.528.528 0 0 1-.506.678ZM475.759 148.22l-.167-.002a.527.527 0 0 1-.514-.541.514.514 0 0 1 .541-.516c3.743.131 13.8-3.155 20.216-11.08a.528.528 0 0 1 .821.665c-6.552 8.093-16.871 11.474-20.897 11.474ZM460.271 221.885a.53.53 0 0 1-.484-.316c-3.497-7.953-3.77-15.887-3.77-18.128a.528.528 0 0 1 1.057 0c0 1.559.177 9.739 3.681 17.703a.53.53 0 0 1-.484.741ZM537.237 231.917a.53.53 0 0 1-.507-.38c-.048-.162-4.751-16.258-6.732-22.343a.528.528 0 1 1 1.004-.326c1.987 6.099 6.695 22.21 6.741 22.372a.527.527 0 0 1-.506.677Z" fill="#292929"/><path d="M502.607 131.737c-1.637 0-3.528-.543-5.553-1.604a.528.528 0 1 1 .49-.936c2.411 1.263 4.574 1.735 6.241 1.361 3.928-.893 5.56-7.777 5.56-11.263 0-.226.145-.428.358-.501a.531.531 0 0 1 .589.179c1.797 2.336 3.91 3.425 6.652 3.425 2.676-.18 5.26-3.14 5.593-5.47a.528.528 0 1 1 1.046.15c-.395 2.771-3.366 6.16-6.604 6.375h-.004c-2.643 0-4.816-.919-6.632-2.803-.363 4.323-2.399 10.047-6.327 10.938a6.462 6.462 0 0 1-1.409.149Z" fill="#FEFEFE"/><path d="M461.814 1.056c-17.969 0-38.274 2.36-60.348 7.013-46.664 9.837-94.037 28.661-91.581 93.693 2.495 66.08 26.877 105.419 74.54 120.269 21.88 6.817 59.523 13.696 94.3 13.697h.012c31.356 0 71.495-5.499 84.672-31.693 13.265-26.371 15.557-56.746 15.144-77.584-.475-23.917-4.891-48.196-11.525-63.364-7.422-16.965-27.136-62.03-105.214-62.03Zm16.923 235.728h-.012c-37.278-.001-74.266-7.405-94.614-13.745-48.144-14.998-72.769-54.655-75.282-121.237-1.168-30.944 9.389-54.845 31.381-71.04 18.204-13.407 41.071-19.517 61.037-23.726C423.393 2.367 443.771 0 461.814 0c32.536 0 58.582 7.68 77.418 22.824 15.498 12.461 23.513 27.837 28.763 39.84 6.687 15.287 11.137 39.72 11.615 63.765.415 20.958-1.894 51.516-15.259 78.08-13.417 26.673-53.961 32.275-85.614 32.275Z" fill="#292929"/><path d="M356.065 54.706h-41.404c-7.197 0-12.697 6.19-12.257 13.674l1.116 19.023c.406 6.933 6.214 12.37 12.948 12.268l29.958-.451c1.564 4.648 2.709 9.171 5.706 8.95 2.144-.21 3.062-4.745 3.672-9.12 6.284-.39 11.458-5.745 11.694-12.348l.674-18.62c.265-7.324-5.141-13.376-12.107-13.376Z" fill="#FEFEFE"/><path d="M346.427 98.691c.227 0 .428.144.5.36.157.464.309.928.459 1.385 1.304 3.97 2.45 7.382 4.706 7.208 2.008-.198 2.866-6.351 3.19-8.669a.527.527 0 0 1 .49-.453c6.056-.376 10.975-5.575 11.198-11.839l.674-18.621c.128-3.52-1.14-6.93-3.48-9.355-2.16-2.24-5.035-3.473-8.098-3.473h-41.404a11.421 11.421 0 0 0-8.385 3.62c-2.334 2.477-3.554 5.938-3.346 9.495l1.117 19.023c.38 6.49 5.867 11.772 12.233 11.772l.18-.002 29.957-.45h.009Zm5.496 10.016c-2.934 0-4.142-3.681-5.541-7.941-.109-.336-.22-.674-.333-1.013l-29.768.447c-7.032 0-12.868-5.608-13.287-12.766l-1.117-19.022c-.225-3.847 1.099-7.596 3.633-10.283a12.456 12.456 0 0 1 9.152-3.951h41.404c3.351 0 6.498 1.348 8.858 3.796 2.538 2.63 3.914 6.321 3.777 10.126l-.674 18.621c-.238 6.651-5.366 12.199-11.758 12.82-.672 4.666-1.655 8.916-4.086 9.155a3.499 3.499 0 0 1-.26.011Z" fill="#292929"/><path d="M322.637 77.77c0 2.296-1.818 4.157-4.059 4.157-2.243 0-4.06-1.861-4.06-4.157 0-2.296 1.817-4.156 4.06-4.156 2.241 0 4.059 1.86 4.059 4.156ZM338.685 77.77c0 2.296-1.818 4.157-4.061 4.157-2.241 0-4.059-1.861-4.059-4.157 0-2.296 1.818-4.156 4.059-4.156 2.243 0 4.061 1.86 4.061 4.156ZM354.731 77.77c0 2.296-1.817 4.157-4.059 4.157-2.243 0-4.061-1.861-4.061-4.157 0-2.296 1.818-4.156 4.061-4.156 2.242 0 4.059 1.86 4.059 4.156Z" fill="#40BDDE"/><path d="M489.231 412.417H448.12a.528.528 0 0 1 0-1.056h41.111a.527.527 0 1 1 0 1.056ZM367.733 262.778c-12.182-5.874-14.475-19.061 3.297-24.078-12.47-15.335.142-24.221 8.6-25.942 8.456-1.719 25.225 2.581 41.42 16.483 16.196 13.902 23.219 14.619 28.091 25.512 4.874 10.893 2.58 19.349-2.294 30.385-4.872 11.036-5.446 14.475 4.014 23.361 9.459 8.887 17.198 17.773 10.606 34.542-6.593 16.769-85.421 10.606-89.147-.861-3.727-11.465 5.159-53.46 5.159-53.46l-9.746-25.942Z" fill="#292929"/><path d="M358.704 331.43c-1.863-8.169.3-26.926 16.625-36.261 11.908-6.808 18.203 2.724 18.203 2.724l1.863 31.388s-32.678 2.293-36.691 2.149Z" fill="#292929"/><path d="M266.976 284.278c-1.432-2.007-3.579-4.752-5.585-3.319-2.006 1.433 1.188 13.071 10.172 11.631-2.294-3.439-4.587-8.312-4.587-8.312Z" fill="#FEFEFE"/><path d="M262.567 281.088c-.302 0-.586.099-.868.3-.393.28-.577 1.79.097 3.894 1.068 3.336 3.8 6.902 8.262 6.902h.001c.196 0 .397-.007.599-.02-2.127-3.358-4.138-7.616-4.159-7.662-.699-.964-2.448-3.414-3.932-3.414Zm7.492 12.152h-.001c-5.035 0-8.141-4.114-9.269-7.636-.585-1.826-.857-4.251.296-5.075.461-.33.96-.497 1.482-.497 1.782 0 3.379 1.893 4.84 3.938.071.131 2.352 4.961 4.596 8.327a.527.527 0 0 1-.356.814c-.536.086-1.071.129-1.588.129Z" fill="#292929"/><path d="M292.344 285.567c-4.872-1.577-8.026-5.446-6.448-8.6 1.576-3.152 6.736 1.004 10.318 3.87 3.584 2.867 7.024 3.44 7.024 3.44s-5.304 2.723-10.894 1.29Z" fill="#FEFEFE"/><path d="M287.701 276.367c-.624 0-1.047.266-1.333.837-.466.931-.475 1.949-.025 3.022.851 2.03 3.213 3.884 6.164 4.839 1.005.256 2.107.391 3.248.391 2.398 0 4.528-.595 5.847-1.07-1.381-.457-3.517-1.376-5.717-3.136-2.615-2.093-6.104-4.883-8.184-4.883Zm8.054 10.145c-1.229 0-2.42-.145-3.541-.433-3.267-1.056-5.877-3.14-6.845-5.445-.566-1.35-.547-2.699.054-3.903.465-.93 1.253-1.42 2.278-1.42 2.451 0 5.957 2.805 8.775 5.059 3.491 2.792 6.816 3.381 6.85 3.387a.527.527 0 0 1 .153.989c-.14.073-3.487 1.766-7.724 1.766Z" fill="#292929"/><path d="M297.457 329.569c-.381-8.41-1.337-25.226-2.674-30.577-1.34-5.35-9.749-3.824-10.322-4.013-.572-.191-11.035 3.774-16.195-6.688-5.161-10.464-1.003-14.334 1.863-13.331 1.004-3.439 3.87-2.436 5.446-.716 1.435-3.01 5.59.145 6.593 4.014 1.004 3.87 2.007 7.309 10.032 6.305 8.028-1.003 17.916-3.296 21.786 8.313 3.87 11.61 7.024 29.668 7.024 29.668s-1.528 11.469-23.553 7.025Z" fill="#FEFEFE"/><path d="M297.965 329.132c3.175.619 6.093.932 8.677.932 12.018 0 13.681-6.744 13.831-7.519-.247-1.391-3.314-18.48-6.988-29.501-2.609-7.826-7.982-8.829-12.37-8.829-2.321 0-4.724.323-7.047.636-.609.082-1.211.162-1.802.236a21.34 21.34 0 0 1-2.651.181c-6.174 0-7.121-3.655-7.958-6.877-.703-2.714-2.931-4.818-4.378-4.818-.538 0-.939.294-1.227.898a.524.524 0 0 1-.399.295.52.52 0 0 1-.467-.165c-.796-.868-1.805-1.407-2.634-1.407-.901 0-1.545.645-1.916 1.914a.527.527 0 0 1-.681.351c-1.036-.36-2.197.114-2.871 1.199-.665 1.07-1.834 4.321 1.655 11.4 2.284 4.628 5.929 6.974 10.837 6.974 1.707 0 3.144-.286 4.001-.458.407-.081.652-.131.826-.131.056 0 .171.016.225.034.197-.009.413-.02.684-.035.466-.024 1.083-.056 1.779-.056 4.701 0 7.46 1.508 8.204 4.479 1.437 5.748 2.386 24.102 2.67 30.267Zm8.677 1.988c-2.764 0-5.889-.348-9.289-1.033a.53.53 0 0 1-.424-.494c-.258-5.686-1.213-24.684-2.659-30.471-.611-2.441-3.026-3.679-7.179-3.679-.675 0-1.272.03-1.724.055-.524.026-.814.038-.991.004-.114.008-.316.054-.592.108-.896.179-2.396.478-4.208.478-5.268 0-9.343-2.615-11.783-7.565-3.591-7.28-2.548-10.908-1.607-12.422.831-1.335 2.228-2.012 3.599-1.773.728-1.892 2.024-2.19 2.767-2.19.956 0 2.013.465 2.923 1.269.459-.578 1.081-.89 1.804-.89 2.102 0 4.626 2.621 5.4 5.608.848 3.266 1.58 6.087 6.936 6.087.758 0 1.606-.057 2.52-.172.588-.073 1.187-.154 1.792-.235 2.358-.318 4.796-.646 7.188-.646 4.373 0 10.519.99 13.373 9.55 3.838 11.514 7.011 29.563 7.042 29.745.009.052.01.107.003.161-.012.085-1.293 8.505-14.891 8.505Z" fill="#292929"/><path d="M272.349 293.898a.525.525 0 0 1-.322-.11c-3.246-2.507-5.398-6.255-6.4-11.138a.528.528 0 1 1 1.034-.212c.95 4.627 2.973 8.165 6.011 10.515a.525.525 0 0 1-.323.945ZM285.896 291.972h-.024c-2.952-.129-5.397-1.391-7.266-3.754-3.577-4.518-3.982-11.799-3.549-14.073a.524.524 0 0 1 .617-.419c.287.054.475.33.42.618-.393 2.064.022 9.027 3.34 13.218 1.671 2.112 3.852 3.241 6.484 3.354a.529.529 0 0 1-.022 1.056ZM280.307 295.841l-.045-.002c-2.759-.23-5.061-1.516-6.843-3.822-4.217-5.459-4.192-14.948-3.81-17.146a.529.529 0 0 1 1.042.18c-.366 2.098-.397 11.14 3.604 16.32 1.593 2.062 3.643 3.212 6.095 3.416a.529.529 0 0 1-.043 1.054ZM379.631 339.027c4.729 2.149 18.488 7.023 43.427.716-.86 17.2-2.58 53.461-2.58 53.461s-20.782 11.753-34.685 6.879c-3.869-6.593-6.162-61.056-6.162-61.056Z" fill="#292929"/><path d="M383.887 325.418c4.156-.574 8.642-2.156 8.211-9.036-.43-6.879-1.576-15.909-1.576-15.909-10.749-.143-21.356-5.733-26.228-16.769-4.874-11.035 1.576-16.768 5.159-28.235 3.584-11.465 10.32-20.925 25.369-19.921 15.049 1.002 23.074 8.169 23.074 8.169-2.579 13.472-5.159 32.535.43 33.682 5.59 1.146 7.024-8.743 7.024-8.743 8.456-4.157 17.314.901 13.902 8.312-4.156 9.029-14.046 4.443-14.046 4.443-2.005 5.16-10.462 10.892-10.462 10.892 1.29 10.607 2.573 28.152 10.6 29.154-3.297 16.77-5.01 22.874-5.01 22.874s-28.809 7.023-39.272-3.297c.43-3.582 2.825-15.616 2.825-15.616Z" fill="#FEFEFE"/><path d="M381.619 340.838c3.715 3.517 10.115 5.297 19.027 5.297 8.937 0 17.557-1.859 19.26-2.247.371-1.401 2.019-7.828 4.814-22.004-7.281-1.598-8.946-16.053-10.169-26.679a570.85 570.85 0 0 0-.331-2.838.526.526 0 0 1 .228-.502c.082-.055 8.342-5.7 10.265-10.646a.532.532 0 0 1 .714-.288c.025.012 2.45 1.116 5.313 1.116 3.711 0 6.414-1.783 8.032-5.3.981-2.131.938-4.134-.126-5.793-1.311-2.046-3.969-3.267-7.113-3.267-1.889 0-3.857.457-5.706 1.326-.275 1.58-1.819 9.006-6.62 9.006-.321 0-.654-.035-.987-.103-4.709-.967-5.012-12.404-.901-33.993-1.397-1.128-9.222-6.961-22.534-7.849-12.504-.831-20.39 5.351-24.828 19.553-1.027 3.284-2.311 6.156-3.442 8.689-2.869 6.418-5.134 11.486-1.739 19.175 4.415 9.997 14.282 16.301 25.752 16.453.263.004.484.2.517.462.012.09 1.153 9.125 1.579 15.943.452 7.227-4.403 8.943-8.292 9.537-.393 1.99-2.265 11.527-2.713 14.952Zm19.027 6.354c-9.351 0-16.065-1.946-19.955-5.781a.533.533 0 0 1-.153-.439c.426-3.563 2.732-15.166 2.83-15.658a.526.526 0 0 1 .446-.419c4.062-.561 8.16-2.007 7.756-8.48-.369-5.914-1.28-13.509-1.516-15.424-11.692-.319-21.721-6.828-26.244-17.074-3.585-8.118-1.236-13.375 1.741-20.032 1.174-2.629 2.389-5.348 3.397-8.574 4.542-14.536 12.994-21.153 25.908-20.291 15.057 1.004 23.058 8.005 23.391 8.302a.528.528 0 0 1 .167.493c-3.871 20.218-3.865 32.269.018 33.066.264.055.525.082.775.082 4.354 0 5.608-8.299 5.619-8.383a.527.527 0 0 1 .29-.397c2.065-1.015 4.284-1.552 6.417-1.552 3.506 0 6.497 1.403 8.003 3.753 1.248 1.95 1.318 4.366.195 6.804-2.25 4.889-6.132 5.915-8.991 5.915-2.332 0-4.348-.657-5.252-1.005-2.132 4.644-8.745 9.452-10.183 10.458.098.808.196 1.655.296 2.529 1.214 10.543 2.875 24.982 9.807 25.848a.524.524 0 0 1 .452.626c-3.262 16.599-5.001 22.853-5.019 22.914a.527.527 0 0 1-.383.371c-.096.023-9.751 2.348-19.812 2.348Z" fill="#292929"/><path d="M380.488 277.353a.522.522 0 0 1-.26-.069c-3.024-1.723-4.61-3.411-4.848-5.162-.293-2.173 1.469-3.939 3.172-5.648.334-.334.666-.667.978-1 2.79-2.97 2.494-8.383 1.039-12.157-.623-1.617-1.678-2.575-3.13-2.846-1.918-.352-3.987.597-4.967 1.675a.528.528 0 1 1-.782-.71c1.202-1.322 3.627-2.429 5.943-2.003 1.263.235 2.969 1.035 3.922 3.505 1.623 4.206 1.864 9.938-1.256 13.26-.318.339-.658.679-.999 1.021-1.522 1.528-3.096 3.107-2.873 4.762.188 1.382 1.642 2.857 4.322 4.385a.528.528 0 0 1-.261.987ZM406.383 259.486a.526.526 0 0 1-.438-.235c-5.573-8.311-11.495-7.166-14.531-5.739a.527.527 0 1 1-.448-.957c2.692-1.26 9.623-3.191 15.855 6.109a.526.526 0 0 1-.438.822ZM397.874 267.001c-.559 1.787-1.838 2.98-2.857 2.663-1.018-.319-1.391-2.027-.833-3.815.556-1.788 1.837-2.98 2.854-2.66 1.019.318 1.394 2.022.836 3.812Z" fill="#292929"/><path d="M397.306 264.358a.526.526 0 0 1-.506-.378l-.957-3.249a.529.529 0 0 1 1.013-.299l.957 3.249a.529.529 0 0 1-.507.677ZM376.998 263.083c-.559 1.787-1.838 2.98-2.858 2.663-1.018-.318-1.391-2.027-.834-3.814.559-1.789 1.839-2.981 2.856-2.661 1.017.318 1.394 2.023.836 3.812Z" fill="#292929"/><path d="M376.429 260.44a.526.526 0 0 1-.506-.378l-.956-3.25a.528.528 0 1 1 1.013-.299l.956 3.252a.527.527 0 0 1-.507.675ZM376.839 280.429c-.012 2.714.479 4.657 1.432 5.655 2.01 2.096 6.483-.047 11.266-5.089-5.115 1.002-10.258.709-12.698-.566Zm3.44 7.526c-1.113 0-2.046-.383-2.771-1.142-1.284-1.34-1.856-3.825-1.701-7.383a.527.527 0 0 1 .884-.367c.756.693 2.978 1.5 6.745 1.5 2.351 0 4.94-.33 7.487-.954a.526.526 0 0 1 .523.861c-4.181 4.757-8.251 7.485-11.167 7.485Z" fill="#292929"/><path d="M378.054 287.004a.526.526 0 0 1-.458-.791c1.242-2.161 6.287-3.509 9.299-2.489a.529.529 0 0 1-.339 1.001c-2.726-.925-7.123.411-8.044 2.014a.53.53 0 0 1-.458.265ZM390.297 301.049c-.31-.003-.59-.218-.589-.53a.528.528 0 0 1 .529-.526c.023-.003.042 0 .062 0 5.352 0 13.977-3.087 19.754-6.149a.527.527 0 1 1 .495.933c-5.894 3.123-14.726 6.272-20.251 6.272Z" fill="#292929"/><path d="M297.075 327.132c2.436.859 14.332.859 23.935-4.588 1.576 8.744 7.452 34.828 7.452 34.828 8.17-8.886 19.492-19.347 24.652-23.791 5.16-4.444 13.043-8.744 20.782-8.456 7.74.286 11.752-.144 11.752-.144s-6.162 10.893-3.009 41.134c3.153 30.242 4.156 34.254 4.156 34.254l-10.605-1.002s2.149-6.737-4.3-14.476c-6.45-7.741-8.314-12.613-9.173-18.346-6.88 7.024-25.225 26.515-40.561 26.659-15.335.143-20.782-13.616-22.931-30.815-2.15-17.199-2.15-35.257-2.15-35.257Z" fill="#40BDDE"/><path d="M415.177 393.016c-4.3 1.289-22.792 6.781-31.248 6.207-8.456-.573-17.199-4.731-24.079-3.01-6.879 1.719-18.679 10.391-17.843 13.83.644 2.652 3.797 1.219 3.797 1.219 1.147 2.437 3.44 1.146 3.44 1.146 1.147 2.438 6.451 1.004 9.604-1.72 3.152-2.723 7.021-4.156 11.896-2.435 4.872 1.719 12.468 4.155 21.354 4.586 8.887.43 29.813-.547 29.813-.547s3.155-12.397-6.734-19.276Z" fill="#FEFEFE"/><path d="M349.245 411.881c.055 0 .11.009.162.027a.518.518 0 0 1 .315.275c.368.782 1.322.946 2.058.946 2.024 0 4.788-1.167 6.723-2.839 3.816-3.297 7.907-4.127 12.417-2.535 5.398 1.905 12.686 4.144 21.205 4.557 1.491.072 3.431.108 5.767.108 8.895 0 21.208-.53 23.588-.637.407-2.084 1.886-12.244-6.397-18.187-8.336 2.491-23.653 6.668-31.189 6.154-3.36-.228-6.756-1.012-10.039-1.771-3.678-.849-7.153-1.652-10.356-1.652-1.296 0-2.447.131-3.521.399-6.919 1.728-18.177 10.236-17.458 13.193.2.819.684 1.203 1.526 1.203.778 0 1.534-.337 1.541-.341a.53.53 0 0 1 .695.257c.376.796.903 1.184 1.611 1.184.588 0 1.09-.272 1.095-.274a.519.519 0 0 1 .257-.067Zm2.535 2.304c-1.503 0-2.312-.536-2.747-1.111a3.496 3.496 0 0 1-1.14.205c-.702 0-1.644-.25-2.333-1.361-.374.121-.93.26-1.514.26-1.33 0-2.237-.714-2.553-2.01-.998-4.108 11.625-12.816 18.23-14.467 1.157-.288 2.392-.43 3.776-.43 3.325 0 6.856.815 10.594 1.679 3.243.75 6.597 1.525 9.872 1.746 7.44.514 22.859-3.726 31.061-6.186a.531.531 0 0 1 .453.073c10.073 7.007 6.977 19.712 6.944 19.839a.525.525 0 0 1-.487.397c-.141.008-14.181.657-24.043.657h-.001c-2.354 0-4.311-.037-5.819-.11-8.655-.419-16.039-2.686-21.504-4.615-4.148-1.462-7.85-.708-11.375 2.338-2.112 1.823-5.16 3.096-7.414 3.096Z" fill="#292929"/><path d="m439.682 388.187 1.003-12.039 3.297 11.179-4.3.86Zm40.417-5.303c-6.306-16.912-11.752-35.257-16.912-43.571-5.16-8.312-11.323-16.051-22.788-17.198-8.312-.574-15.766-.86-15.766-.86-2.723 7.166-11.466 41.851-6.879 70.946-2.007 0-3.44 1.146-3.44 1.146 4.586 3.727 7.166 10.463 6.02 19.492 19.921 1.576 40.99-1.577 47.869-3.297 6.88-1.719 18.203-9.745 11.896-26.658Z" fill="#40BDDE"/><path d="M289.381 285.184a.53.53 0 0 1-.033-1.055c.984-.062 2.169-.174 3.461-.295 4.331-.41 9.722-.916 12.943-.086a.53.53 0 0 1-.264 1.024c-3.047-.788-8.332-.287-12.581.113-1.303.122-2.5.236-3.493.298l-.033.001ZM363.145 369.51a.528.528 0 0 1-.516-.425c-.958-4.795.113-10.943 1.601-14.908a.522.522 0 0 1 .679-.308.525.525 0 0 1 .309.679c-1.069 2.854-2.603 9.084-1.554 14.33a.527.527 0 0 1-.519.632ZM414.632 393.491a.529.529 0 0 1-.135-1.038c4.636-1.227 33.676-6.925 43.916-7.802a.528.528 0 0 1 .091 1.052c-10.197.874-39.119 6.548-43.736 7.771a.534.534 0 0 1-.136.017ZM441.402 378.54a.53.53 0 0 1-.503-.368c-1.037-3.242-3.587-13.468-4.812-18.383l-.357-1.429a.529.529 0 0 1 1.025-.255l.357 1.429c1.222 4.903 3.767 15.108 4.793 18.317a.528.528 0 0 1-.503.689ZM349.245 412.937a.529.529 0 0 1-.527-.576c.174-1.919 7.892-8.359 14.857-10.348a.529.529 0 0 1 .29 1.015c-7.008 2.002-13.982 8.186-14.095 9.428a.528.528 0 0 1-.525.481ZM345.804 411.791a.528.528 0 0 1-.528-.528c0-2.755 5.784-8.565 14.846-11.398a.528.528 0 1 1 .316 1.009c-9.306 2.907-14.106 8.6-14.106 10.389a.527.527 0 0 1-.528.528Z" fill="#292929"/><path d="M383.206 410.851h-45.26l-18.214-53.196c-1.59-4.639-6.901-8.435-11.804-8.435h-77.293c-4.901 0-7.613 3.796-6.026 8.435l18.763 54.798c2.052 5.32 2.293 9.699 7.627 9.699h132.207a5.65 5.65 0 1 0 0-11.301Z" fill="#FAAD3A"/><path d="M333.956 412.36h-89.895a.528.528 0 0 1 0-1.056h89.895a.528.528 0 0 1 0 1.056ZM275.236 376.87c-1.33 0-2.43.527-3.179 1.525-1.086 1.443-1.309 3.65-.613 6.056 1.254 4.343 5.096 7.877 8.562 7.877 1.329 0 2.427-.528 3.177-1.527 1.086-1.445 1.309-3.651.613-6.055-1.251-4.343-5.091-7.876-8.56-7.876Zm4.77 16.514c-3.905 0-8.201-3.876-9.577-8.64-.789-2.727-.503-5.272.783-6.983.944-1.257 2.373-1.948 4.024-1.948 3.907 0 8.203 3.877 9.575 8.64.789 2.725.504 5.271-.784 6.983-.944 1.256-2.371 1.948-4.021 1.948Z" fill="#292929"/></svg>