<svg width="335" height="316" fill="none" xmlns="http://www.w3.org/2000/svg"><path d="M270.316 269.372H63.286V63.14h207.03v206.232Z" fill="#AAE0FF"/><path d="M1.83 315.867h331.342a1.829 1.829 0 0 0 0-3.659H1.829a1.83 1.83 0 0 0 0 3.659Z" fill="#2D5B98"/><path d="M91.115 297.712c-10.225 0-18.514-8.289-18.514-18.515v-25.24h37.029v25.24c0 10.226-8.289 18.515-18.515 18.515Z" fill="#5896FA"/><path d="M72.6 312.208h-2.052v-39.177H72.6v39.177ZM111.682 312.208h-2.053v-39.177h2.053v39.177ZM95.978 312.208h-2.052v-39.177h2.052v39.177Z" fill="#0E0E0E"/><path d="M70.548 299.765v-2.052h39.177v2.052H70.548Z" fill="#0E0E0E"/><path d="M119.95 212.258c2.235 3.219-2.263 5.993-2.964 10.455-.7 4.46 4.41 6.971-1.01 12.811-3.338 3.598-6.155-1.18-8.868 4.333-2.714 5.514-.576 6.444-3.625 8.427-5.317 3.459-13.451-4.185-10.715-9.693 2.735-5.507 8.269-5.014 5.709-9.546-2.56-4.531-3.513-6.483.902-8.812 5.464-2.882 10.279-.235 10.719-4.451.439-4.216 6.896-7.781 9.852-3.524Z" fill="#FFCA59"/><path d="m96.593 253.704-.92-.182c4.308-21.775 18.591-37.023 18.734-37.174l.68.645c-.142.15-14.24 15.211-18.494 36.711Z" fill="#0E0E0E"/><path d="M48.341 204.213c-2.31 4.708 4.2 7.475 6.024 13.238 1.824 5.762-4.892 7.798 3.454 14.438 5.141 4.091 6.217 1.534 8.107 10.682 1.664 8.055 7.784.39 12.36 5.118 5.906 6.099 15.133-7.288 10.406-14.026-4.728-6.738-10.245-4.996-7.768-11.507 2.477-6.512-.477-11.417-6.788-13.611-7.81-2.715-10.62 3.841-12.049-1.65-1.43-5.492-10.69-8.91-13.746-2.682Z" fill="#ED5A24"/><path d="M87.585 254.362c-9.958-27.61-31.639-44.69-31.856-44.859l.77-.993c.22.172 22.187 17.477 32.267 45.426l-1.18.426Z" fill="#0E0E0E"/><path d="M193.906 98.741c0 43.733-35.453 79.185-79.186 79.185-43.733 0-79.185-35.452-79.185-79.185 0-43.733 35.452-79.186 79.185-79.186 43.733 0 79.186 35.453 79.186 79.186Z" stroke="#2E77E6" stroke-width="8.731" stroke-miterlimit="10" stroke-dasharray="13.1 13.1"/><path d="M134.769 93.543a13.95 13.95 0 0 0 .142-1.885c0-7.708-6.249-13.956-13.956-13.956-5.782 0-10.743 3.517-12.86 8.528a9.707 9.707 0 0 0-6.476-2.475c-5.386 0-9.752 4.366-9.752 9.753h-1.82c-5.18 0-9.416 4.237-9.416 9.415v.001c0 5.178 4.237 9.415 9.416 9.415h44.027c5.179 0 9.416-4.237 9.416-9.415v-.001c0-4.944-3.865-9.02-8.721-9.38Z" fill="#fff"/><path d="M143.429 195.972H84.482a3.592 3.592 0 0 1-3.592-3.592v-49.454a3.592 3.592 0 0 1 3.592-3.591h58.947a3.592 3.592 0 0 1 3.592 3.591v49.454a3.592 3.592 0 0 1-3.592 3.592Z" fill="#5896FA"/><path d="M133.977 173.533H94.11a2.38 2.38 0 0 1-2.372-2.372 2.38 2.38 0 0 1 2.372-2.372h39.867a2.38 2.38 0 0 1 2.372 2.372 2.38 2.38 0 0 1-2.372 2.372ZM133.977 181.172H94.11a2.379 2.379 0 0 1-2.372-2.372 2.38 2.38 0 0 1 2.372-2.372h39.867a2.38 2.38 0 0 1 2.372 2.372 2.38 2.38 0 0 1-2.372 2.372Z" fill="#fff"/><path d="M101.554 179.011a.835.835 0 1 1-1.67-.002.835.835 0 0 1 1.67.002ZM104.417 179.011a.835.835 0 1 1-1.67-.002.835.835 0 0 1 1.67.002ZM107.281 179.011a.835.835 0 1 1-1.67-.002.835.835 0 0 1 1.67.002ZM110.143 179.011a.835.835 0 1 1-1.67-.002.835.835 0 0 1 1.67.002ZM113.007 179.011a.835.835 0 1 1-1.67-.002.835.835 0 0 1 1.67.002ZM115.87 179.011a.835.835 0 1 1-1.67-.002.835.835 0 0 1 1.67.002ZM118.733 179.011a.835.835 0 1 1-1.67-.002.835.835 0 0 1 1.67.002ZM121.596 179.011a.835.835 0 1 1-1.67-.002.835.835 0 0 1 1.67.002ZM124.46 179.011a.835.835 0 1 1-1.67-.002.835.835 0 0 1 1.67.002Z" fill="#80B2FF"/><path d="M123.221 152.987a9.165 9.165 0 1 1-18.33 0 9.165 9.165 0 0 1 18.33 0Z" fill="#fff"/><path d="M114.07 152.619c.895 0 1.721-.436 2.249-1.101a2.832 2.832 0 0 0 .619-1.791c0-1.583-1.285-2.89-2.868-2.89a2.892 2.892 0 0 0-2.89 2.89c0 .689.228 1.308.619 1.791a2.906 2.906 0 0 0 2.271 1.101ZM119.149 157.77c0 1.825-10.187 1.825-10.187 0l.003-2.126c.403-2.907 9.356-3.029 10.186 0l-.002 2.126Z" fill="#005CEA"/><path d="M95.313 179.21v.486c0 .088-.075.149-.163.149a.143.143 0 0 1-.149-.149v-.486a.284.284 0 0 1-.15-.25c0-.161.138-.299.3-.299.162 0 .299.138.299.299a.3.3 0 0 1-.137.25Zm-.76-.975c0-.322.2-.615.6-.615.402 0 .608.275.608.615v.127h-1.208v-.127Zm1.534.127v-.127a.934.934 0 0 0-1.867 0v.127h-.141v1.683c0 .29 2.156.29 2.156 0v-1.683h-.148ZM95.157 170.987a.61.61 0 0 0 .605-.609.61.61 0 0 0-.605-.61.61.61 0 0 0 0 1.219ZM96.227 172.076c0 .384-2.16.384-2.16 0l.011-.448c.085-.615 1.975-.64 2.15 0v.448Z" fill="#5896FA"/><path d="M109.121 171.856h-8.736a.697.697 0 0 1-.696-.695c0-.384.313-.696.696-.696h8.736c.383 0 .696.312.696.696a.697.697 0 0 1-.696.695ZM120.643 171.856h-8.737a.698.698 0 0 1-.696-.695c0-.384.314-.696.696-.696h8.737c.383 0 .696.312.696.696a.697.697 0 0 1-.696.695Z" fill="#80B2FF"/><path d="M116.965 188.574h-7.917a2.032 2.032 0 0 1 0-4.064h7.917a2.033 2.033 0 0 1 0 4.064Z" fill="#1251B3"/><path d="M13.342 105.84v-.102.102ZM13.342 105.84v-.102.102ZM52.312 106.014v-.103.103ZM52.312 106.014v-.103.103Z" fill="#D9FFFF"/><path d="M32.907 95.31c-4.541 4.864-11.788 8.851-19.542 10.55l-.074 16.612c-.08 17.642 16.71 26.263 19.317 27.586 2.526-1.163 19.528-9.771 19.606-27.412l.075-16.612c-7.739-1.768-14.885-5.819-19.382-10.724Z" fill="#fff"/><path d="M32.86 98.498c-4.448 4.079-10.609 7.286-17.383 9.033l-.067 14.948c-.031 6.839 2.686 13.027 8.076 18.391 3.541 3.524 7.265 5.711 9.154 6.693l.258-.133V98.533l-.039-.035Z" fill="#296ACC"/><path d="M32.9 98.533v48.897c1.964-1.022 5.535-3.134 8.955-6.478 5.437-5.316 8.21-11.478 8.24-18.318l.067-14.948c-6.74-1.802-12.855-5.051-17.262-9.153Z" fill="#2E77E6"/><path d="M33.695 126.226v3.283a.8.8 0 0 1-.793.8.802.802 0 0 1-.8-.8v-3.29a1.95 1.95 0 0 1-1.149-1.771c0-1.074.875-1.941 1.949-1.941s1.941.867 1.941 1.941a1.94 1.94 0 0 1-1.148 1.778Zm-8.669-6.149v11.58c0 1.29 15.744 1.29 15.744 0v-11.58H25.026ZM39.393 119.252H37.8v-.779c0-2.702-2.198-4.9-4.899-4.9a4.905 4.905 0 0 0-4.9 4.9v.779h-1.593v-.779a6.5 6.5 0 0 1 6.493-6.494 6.5 6.5 0 0 1 6.493 6.494v.779Z" fill="#fff"/><path d="M149.438 35.498h-28.439V0h28.439v35.498Z" fill="#296ACC"/><path d="M153.126 39.164h-28.439V3.666h28.439v35.498Z" fill="#fff"/><path d="M153.126 39.164h-28.439V3.666h28.439v35.498Z" stroke="#5896FA" stroke-width="6.341" stroke-miterlimit="10"/><path d="M157.809 42.763h-28.438V7.265h28.438v35.498Z" fill="#fff"/><path d="M157.809 42.763h-28.438V7.265h28.438v35.498Z" stroke="#5896FA" stroke-width="6.341" stroke-miterlimit="10"/><path d="M161.216 46.429h-28.438V10.93h28.438V46.43Z" fill="#5896FA"/><path d="M156.793 19.067h-14.71V16.76h14.71v2.308ZM156.792 24.491h-19.061v-2.308h19.061v2.308ZM156.792 29.915h-19.061v-2.308h19.061v2.308ZM156.792 35.34h-19.061v-2.31h19.061v2.31ZM156.792 40.764h-19.061v-2.309h19.061v2.31Z" fill="#005CEA"/><path d="M68.653 38.639c0 5.547-4.498 10.044-10.045 10.044S48.564 44.186 48.564 38.64c0-5.548 4.497-10.045 10.044-10.045 5.548 0 10.045 4.497 10.045 10.045Z" fill="#fff"/><path d="M53.425 47.24A10.041 10.041 0 0 1 50.01 33.45c2.863-4.748 9.032-6.275 13.787-3.408 4.747 2.863 6.275 9.032 3.412 13.78-2.868 4.754-9.037 6.282-13.784 3.42Zm21.03.95a18.432 18.432 0 0 0 2.462-6.849l.748.11 1.478.217.019.002c.398-2.696.263-5.421-.388-8.026l-2.198.545a18.438 18.438 0 0 0-3.11-6.58l1.822-1.354a20.544 20.544 0 0 0-5.948-5.407l-1.174 1.946a18.395 18.395 0 0 0-6.849-2.461l.328-2.245a20.763 20.763 0 0 0-8.025.388l.545 2.198a18.44 18.44 0 0 0-6.58 3.11l-1.354-1.822a20.55 20.55 0 0 0-5.407 5.948l1.946 1.173a18.396 18.396 0 0 0-2.461 6.85l-1.588-.234-.65-.09-.007-.005a20.77 20.77 0 0 0 .388 8.025l2.198-.544a18.471 18.471 0 0 0 3.117 6.584l-1.822 1.355a20.508 20.508 0 0 0 5.94 5.402l1.174-1.946a18.442 18.442 0 0 0 6.857 2.466l-.258 1.744-.07.5c2.695.4 5.417.252 8.017-.392l-.544-2.198a18.627 18.627 0 0 0 6.592-3.113l1.354 1.822a20.663 20.663 0 0 0 5.395-5.945l-1.947-1.173Z" fill="#005CEA"/><path d="M31.66 56.644a5.287 5.287 0 1 1-5.836-8.819 5.285 5.285 0 0 1 7.323 1.491 5.286 5.286 0 0 1-1.488 7.328Zm5.203-9.787a9.703 9.703 0 0 0-2.7-2.718l.22-.33.438-.654.005-.01a10.867 10.867 0 0 0-3.904-1.628l-.238 1.168a9.713 9.713 0 0 0-3.832-.008l-.232-1.172c-1.359.263-2.69.796-3.915 1.607l.66.998a9.684 9.684 0 0 0-2.718 2.7l-.994-.663a10.932 10.932 0 0 0-1.629 3.904l1.169.238a9.706 9.706 0 0 0-.008 3.832l-1.173.232c.263 1.359.797 2.69 1.607 3.915l.998-.66a9.687 9.687 0 0 0 2.701 2.718l-.47.703-.19.288-.003.003a10.94 10.94 0 0 0 3.904 1.629l.238-1.169a9.724 9.724 0 0 0 3.835.006l.232 1.172a10.798 10.798 0 0 0 3.912-1.604l-.66-.998a9.71 9.71 0 0 0 2.722-2.704l.77.517.223.147a10.915 10.915 0 0 0 1.625-3.902l-1.169-.238a9.808 9.808 0 0 0 .01-3.838l1.172-.232a10.873 10.873 0 0 0-1.608-3.909l-.998.66Z" fill="#1251B3"/><path d="M201.14 67.27h-24.419a.931.931 0 0 1-.931-.931V52.484c0-.514.417-.931.931-.931h24.419c.515 0 .932.417.932.93V66.34c0 .514-.417.93-.932.93Z" fill="#005CEA"/><path d="M202.072 57.233H175.79V54.52h26.282v2.712Z" fill="#5896FA"/><path d="M181.81 64.254h-3.863a.445.445 0 1 0 0 .89h3.863c.245 0 .446-.2.446-.445a.446.446 0 0 0-.446-.445ZM187.754 64.254h-3.866a.444.444 0 0 0 0 .89h3.866a.444.444 0 0 0 0-.89ZM193.696 64.254h-3.866a.444.444 0 0 0 0 .89h3.866a.444.444 0 0 0 0-.89ZM199.637 64.254h-3.863a.446.446 0 0 0-.446.445c0 .246.201.445.446.445h3.863a.445.445 0 1 0 0-.89ZM177.769 52.35a.49.49 0 0 0-.491.49v.173a.49.49 0 1 0 .982 0v-.172c0-.271-.22-.49-.491-.49ZM178.827 52.927c0 .319.258.577.577.577h2.046a.577.577 0 0 0 0-1.154h-2.046a.577.577 0 0 0-.577.577Z" fill="#D1F5FF"/><path d="M178.558 58.691h2.641c.423 0 .767.343.767.767v2.277a.767.767 0 0 1-.767.767h-2.641a.767.767 0 0 1-.767-.767v-2.277c0-.424.343-.767.767-.767Z" fill="#5896FA"/><path d="M191.469 107.304v-1.795c0-.816-.661-1.477-1.475-1.477h-15.715c-.814 0-1.476.661-1.476 1.477v31.735h40.647v-29.94h-21.981Z" fill="#1251B3"/><path d="M215.141 108.395h-39.858l-2.479 28.849h40.448l1.889-28.849Z" fill="#fff"/><path d="M213.451 137.245h-40.647l4.312-28.491a1.706 1.706 0 0 1 1.686-1.449H216c1.044 0 1.842.928 1.686 1.959l-4.235 27.981Z" fill="#3383FF"/><path d="M227.018 108.395a9.312 9.312 0 0 1-9.313 9.313 9.314 9.314 0 1 1 9.313-9.313Z" fill="#005CEA"/><path d="M217.706 99.422c-4.948 0-8.972 4.025-8.972 8.972 0 4.948 4.024 8.974 8.972 8.974 4.949 0 8.973-4.026 8.973-8.974 0-4.947-4.024-8.972-8.973-8.972Zm0 18.627c-5.323 0-9.655-4.331-9.655-9.655 0-5.322 4.332-9.653 9.655-9.653 5.324 0 9.656 4.331 9.656 9.653 0 5.324-4.332 9.655-9.656 9.655Z" fill="#fff"/><path d="M218.16 110.211v1.869a.456.456 0 0 1-.452.455.456.456 0 0 1-.456-.455v-1.874a1.11 1.11 0 0 1-.654-1.008c0-.612.497-1.105 1.11-1.105.612 0 1.105.493 1.105 1.105 0 .452-.266.84-.653 1.013Zm-4.937-3.502v6.594c0 .734 8.965.734 8.965 0v-6.594h-8.965ZM221.403 106.239h-.908v-.444a2.793 2.793 0 0 0-2.79-2.791 2.794 2.794 0 0 0-2.79 2.791v.444h-.908v-.444a3.702 3.702 0 0 1 3.698-3.698 3.702 3.702 0 0 1 3.698 3.698v.444Z" fill="#fff"/><path d="M188.931 30.453a3.565 3.565 0 1 1-7.13 0 3.565 3.565 0 0 1 7.13 0ZM95.303 43.758a3.565 3.565 0 1 1-7.13 0 3.565 3.565 0 0 1 7.13 0Z" fill="#AAE0FF"/><path d="M212.233 91.23a1.865 1.865 0 1 1-3.73 0 1.865 1.865 0 0 1 3.73 0Z" fill="#fff"/><path d="M17.02 94.728a1.865 1.865 0 1 1-3.73 0 1.865 1.865 0 0 1 3.73 0ZM47.902 162.703a3.565 3.565 0 1 1-7.13 0 3.565 3.565 0 0 1 7.13 0ZM101.553 8.362a.618.618 0 0 1-.618-.617V1.13a.618.618 0 0 1 1.236 0v6.615a.618.618 0 0 1-.618.617Z" fill="#AAE0FF"/><path d="M97.627 4.437c0-.341.276-.618.618-.618h6.614a.617.617 0 0 1 0 1.236h-6.614a.618.618 0 0 1-.618-.618Z" fill="#AAE0FF"/><path d="M171.866 93.29a.617.617 0 0 1-.618-.618v-6.614a.618.618 0 1 1 1.236 0v6.614a.618.618 0 0 1-.618.618Z" fill="#fff"/><path d="M167.942 89.365c0-.341.276-.618.617-.618h6.614a.617.617 0 0 1 0 1.236h-6.614a.617.617 0 0 1-.617-.618ZM165.141 180.404a.618.618 0 0 1-.617-.618v-6.613a.619.619 0 0 1 1.236 0v6.613a.618.618 0 0 1-.619.618Z" fill="#fff"/><path d="M161.216 176.479c0-.34.276-.617.618-.617h6.614a.617.617 0 0 1 0 1.236h-6.614a.617.617 0 0 1-.618-.619Z" fill="#fff"/><path d="M112.07 131.035a1.977 1.977 0 1 1-3.955.001 1.977 1.977 0 0 1 3.955-.001Z" stroke="#fff" stroke-width="4.226" stroke-miterlimit="10"/><path d="M158.695 312.187h-7.739l-.801-16.826h9.34l-.8 16.826ZM293.192 312.187h-7.739l-.801-16.826h9.34l-.8 16.826Z" fill="#0E0E0E"/><path d="M286.446 266.158a225.747 225.747 0 0 1-2.801 8.147h-128.47s-16.58-67.483 0-79.824a10.88 10.88 0 0 1 1.526-.931c22.33-11.473 111.857-14.168 130.033.593.139.11.268.224.392.338 6.697 6.147 12.52 30.689-.68 71.677Z" fill="#EA7B00"/><path d="M203.611 274.305h-48.408l4.721-47.297c8.44 3.662 30.914 23 43.687 47.297ZM286.446 266.158a226.418 226.418 0 0 1-2.801 8.147h-46.661c8.025-14.882 27.482-37.425 46.377-47.801l3.085 39.654Z" fill="#982C20"/><path d="M302.542 226.345h-17.811a5.969 5.969 0 0 0-5.917 5.187l-5.68 42.952H169.037l-5.679-42.952a5.97 5.97 0 0 0-5.918-5.187h-17.811c-3.717 0-6.528 3.359-5.877 7.017l9.889 71.53h154.888l9.89-71.53c.652-3.658-2.16-7.017-5.877-7.017Z" fill="#EA7B00"/><path d="M272.095 251.023c8.382 2.806 6.748 20.553 0 23.281H170.413c-7.594-1.96-8.235-25.434 2.716-23.669 67.026 12.602 70.273-7.502 98.966.388Z" fill="#F2B066"/><path d="M194.596 233.034c-.031 4.583.216 8.896.709 12.674h47.678l2.823-46.555c-2.832-17.005-10.584-21.125-22.857-21.125-10.982 0-18.297 8.958-22.742 20.951-3.843 10.362-5.542 22.986-5.611 34.055Z" fill="#007880"/><path d="m194.595 233.934 17.254-1.039c-9.579-3.136-10.341-17.838-.604-26.985l-11.039-6.931c-3.843 10.362-5.542 23.884-5.611 34.955Z" fill="#005459"/><path d="M191.312 255.328h65.506v-22.293h-59.007l-6.499 22.293Z" fill="#0E0E0E"/><path d="m265.187 248.253-17.595 63.934h-13.721c4.344-27.206 3.372-44.892 7.457-67.483 3.584-18.544 28.124-13.636 23.859 3.549Z" fill="#0E0E0E"/><path d="M242.664 312.188c0-.042-.003-.084-.003-.128a8.58 8.58 0 0 1 8.582-8.58 8.58 8.58 0 0 1 8.577 8.708h-17.156Z" fill="#B15626"/><path d="m252.896 303.64-3.119-.954c-2.058-4.05-10.84-3.549-9.616 1.381-3.447.513-5.258-1.203-5.258-1.203l-1.032 9.324h18.605l.42-8.548Z" fill="#B15626"/><path d="m187.926 248.253 17.597 63.934h13.719c-4.344-27.206-3.371-44.892-7.455-67.483-3.585-18.544-28.126-13.636-23.861 3.549Z" fill="#0E0E0E"/><path d="M210.451 312.188c0-.042.003-.084.003-.128a8.581 8.581 0 0 0-8.582-8.58 8.58 8.58 0 0 0-8.582 8.58c0 .044.003.086.004.128h17.157Z" fill="#B15626"/><path d="m200.217 303.64 3.119-.954c2.059-4.05 10.84-3.549 9.618 1.381 3.445.513 5.258-1.203 5.258-1.203l1.03 9.324h-18.605l-.42-8.548Z" fill="#B15626"/><path d="M215.601 179.524c6.436 3.905 7.352 15.502 4.053 20.122l-18.361 13.678 18.694 9.627-3.037 9.944s-19.513-1.589-29.064-11.386c-9.171-9.407 13.187-37.04 27.715-41.985ZM228.655 197.115c-5.504-6.912-1.703-17.591 5.313-17.277 22.85 8.044 29.903 30.378 22.664 40.404-6.202 8.589-33.481 11.897-33.481 11.897v-9.404l18.954-4.096s-9.774-15.142-13.45-21.524Z" fill="#007880"/><path d="M208.634 229.753c-.355-3.149 1.488-7.087 6.228-7.946 8.278-1.504 11.275 3.038 12.058 6.284.204.846-.566 1.742-1.276 1.662-.712-.077-1.211-.479-1.333-1.123-.147-.776-.558-1.736-1.446-2.236.857 1.677.5 3.359-1.832 3.359h-12.399Z" fill="#F7A594"/><path d="m227.325 229.746 6.515-32.666h1.381l-7.05 35.956h-19.524l-2.133-3.29h20.811Z" fill="#99C1FF"/><path d="M235.221 197.08h48.477l-7.171 35.956H228.17l7.051-35.956Z" fill="#fff"/><path d="M221.086 181.865c0 3.717 11.142 6.183 14.785 2.276a4.136 4.136 0 0 0 1.076-2.205l2.098-9.414-13.308-5.018-.396 1.23-4.255 13.131Z" fill="#F7A594"/><path d="m236.947 181.936 2.098-9.414-12.59-3.39c-3.259 9.698 8.371 17.448 10.492 12.804Z" fill="#F4856D"/><path d="M224.754 163.887c-.701 9.253 6.612 17.402 12.748 17.816 6.135.412 14.583-6.441 15.284-15.694.701-9.253-5.007-17.23-12.748-17.816-7.74-.586-14.583 6.441-15.284 15.694Z" fill="#F7A594"/><path d="M235.013 148.895c8.484-5.374 13.154-.32 17.38 5.039 2.963 3.761 5.063 6.463 8.754 7.028-7.098 8.953-21.293 3.048-25.765-5.923-.441 5.106-6.459 9.335-10.628 8.848-1.35-5.682 2.586-17.17 10.259-14.992Z" fill="#0E0E0E"/><path d="M222.679 164.009a3.693 3.693 0 1 0 7.387.001 3.693 3.693 0 0 0-7.387-.001Z" fill="#F7A594"/></svg>