<svg width="600" height="566" fill="none" xmlns="http://www.w3.org/2000/svg"><path d="M484.148 482.457H113.349V113.086h370.799v369.371Z" fill="#AAE0FF"/><path d="M3.277 565.732h593.449a3.276 3.276 0 0 0 0-6.553H3.276a3.276 3.276 0 1 0 0 6.553Z" fill="#2D5B98"/><path d="M163.191 533.215c-18.314 0-33.16-14.846-33.16-33.161v-45.206h66.321v45.206c0 18.315-14.847 33.161-33.161 33.161Z" fill="#5896FA"/><path d="M130.03 559.179h-3.675v-70.168h3.675v70.168ZM200.027 559.179h-3.676v-70.168h3.676v70.168ZM171.901 559.179h-3.675v-70.168h3.675v70.168Z" fill="#0E0E0E"/><path d="M126.355 536.892v-3.675h70.167v3.675h-70.167Z" fill="#0E0E0E"/><path d="M214.836 380.163c4.002 5.766-4.054 10.735-5.308 18.725-1.255 7.988 7.898 12.486-1.809 22.947-5.979 6.443-11.025-2.115-15.885 7.76-4.859 9.876-1.03 11.541-6.492 15.093-9.523 6.194-24.091-7.496-19.191-17.36 4.899-9.864 14.81-8.981 10.225-17.098-4.585-8.116-6.291-11.612 1.616-15.783 9.787-5.161 18.411-.42 19.198-7.972.787-7.551 12.351-13.936 17.646-6.312Z" fill="#FFCA59"/><path d="m173.002 454.396-1.647-.327c7.716-39 33.296-66.31 33.554-66.58l1.218 1.156c-.255.268-25.506 27.243-33.125 65.751Z" fill="#0E0E0E"/><path d="M86.58 365.755c-4.136 8.433 7.523 13.388 10.79 23.71 3.267 10.319-8.762 13.965 6.187 25.859 9.207 7.327 11.134 2.747 14.519 19.132 2.981 14.426 13.942.699 22.139 9.166 10.576 10.924 27.103-13.053 18.636-25.121-8.467-12.067-18.348-8.949-13.913-20.609 4.436-11.664-.854-20.449-12.157-24.379-13.988-4.861-19.02 6.88-21.58-2.955-2.561-9.835-19.148-15.957-24.62-4.803Z" fill="#ED5A24"/><path d="M156.869 455.574c-17.835-49.45-56.667-80.042-57.057-80.345l1.38-1.777c.395.308 39.737 31.301 57.791 81.359l-2.114.763Z" fill="#0E0E0E"/><path d="M347.294 176.85c0 78.327-63.497 141.824-141.824 141.824-78.328 0-141.826-63.497-141.826-141.824 0-78.328 63.498-141.826 141.826-141.826 78.327 0 141.824 63.498 141.824 141.826Z" stroke="#2E77E6" stroke-width="8.731" stroke-miterlimit="10" stroke-dasharray="13.1 13.1"/><path d="M241.378 167.539a25.04 25.04 0 0 0 .254-3.375c0-13.805-11.192-24.996-24.996-24.996-10.356 0-19.241 6.298-23.034 15.273-3.086-2.748-7.141-4.431-11.598-4.431-9.647 0-17.467 7.819-17.467 17.466h-3.259c-9.276 0-16.865 7.589-16.865 16.864v.001c0 9.275 7.589 16.864 16.865 16.864h78.855c9.276 0 16.865-7.589 16.865-16.864v-.001c0-8.855-6.923-16.156-15.62-16.801Z" fill="#fff"/><path d="M256.888 350.994H151.312a6.433 6.433 0 0 1-6.434-6.432v-88.575a6.433 6.433 0 0 1 6.434-6.432h105.576a6.433 6.433 0 0 1 6.433 6.432v88.575a6.433 6.433 0 0 1-6.433 6.432Z" fill="#5896FA"/><path d="M239.959 310.806h-71.404a4.262 4.262 0 0 1-4.248-4.248 4.261 4.261 0 0 1 4.248-4.249h71.404a4.263 4.263 0 0 1 4.248 4.249 4.264 4.264 0 0 1-4.248 4.248ZM239.959 324.488h-71.404a4.26 4.26 0 0 1-4.248-4.248 4.261 4.261 0 0 1 4.248-4.249h71.404a4.263 4.263 0 0 1 4.248 4.249 4.262 4.262 0 0 1-4.248 4.248Z" fill="#fff"/><path d="M181.888 320.617a1.496 1.496 0 1 1-2.992-.004 1.496 1.496 0 0 1 2.992.004ZM187.015 320.617a1.496 1.496 0 1 1-2.992-.004 1.496 1.496 0 0 1 2.992.004ZM192.145 320.617a1.496 1.496 0 1 1-2.992-.004 1.496 1.496 0 0 1 2.992.004ZM197.271 320.617a1.495 1.495 0 1 1-2.99-.002 1.495 1.495 0 0 1 2.99.002ZM202.401 320.617a1.495 1.495 0 1 1-2.99-.002 1.495 1.495 0 0 1 2.99.002ZM207.528 320.617a1.496 1.496 0 1 1-2.992-.004 1.496 1.496 0 0 1 2.992.004ZM212.656 320.617a1.495 1.495 0 1 1-2.99-.002 1.495 1.495 0 0 1 2.99.002ZM217.784 320.617a1.495 1.495 0 1 1-2.99-.002 1.495 1.495 0 0 1 2.99.002ZM222.913 320.617a1.496 1.496 0 1 1-2.992-.004 1.496 1.496 0 0 1 2.992.004Z" fill="#80B2FF"/><path d="M220.694 274.006c0 9.067-7.349 16.415-16.414 16.415-9.065 0-16.413-7.348-16.413-16.415 0-9.064 7.348-16.412 16.413-16.412 9.065 0 16.414 7.348 16.414 16.412Z" fill="#fff"/><path d="M204.305 273.348c1.602 0 3.082-.781 4.027-1.973.698-.864 1.109-1.973 1.109-3.207 0-2.834-2.301-5.177-5.136-5.177a5.183 5.183 0 0 0-5.178 5.177c0 1.234.41 2.343 1.11 3.207a5.203 5.203 0 0 0 4.068 1.973ZM213.401 282.573c0 3.268-18.246 3.268-18.246 0l.006-3.807c.721-5.206 16.757-5.426 18.243 0l-.003 3.807Z" fill="#005CEA"/><path d="M170.709 320.973v.87c0 .158-.134.268-.29.268a.257.257 0 0 1-.268-.268v-.87a.508.508 0 0 1-.268-.447c0-.289.246-.535.536-.535.29 0 .535.246.535.535a.538.538 0 0 1-.245.447Zm-1.36-1.745c0-.578.356-1.103 1.076-1.103.718 0 1.087.492 1.087 1.103v.227h-2.163v-.227Zm2.747.227v-.227c0-.921-.75-1.671-1.671-1.671-.922 0-1.672.75-1.672 1.671v.227h-.254v3.015c0 .519 3.861.519 3.861 0v-3.015h-.264ZM170.43 306.246a1.093 1.093 0 0 0 0-2.184 1.094 1.094 0 0 0-.858 1.769c.199.252.511.415.858.415ZM172.348 308.196c0 .688-3.87.688-3.87 0l.02-.803c.153-1.1 3.537-1.146 3.85 0v.803Z" fill="#5896FA"/><path d="M195.441 307.802h-15.648a1.248 1.248 0 0 1-1.246-1.244 1.25 1.25 0 0 1 1.246-1.248h15.648c.685 0 1.246.56 1.246 1.248 0 .685-.561 1.244-1.246 1.244ZM216.077 307.802h-15.648a1.248 1.248 0 0 1-1.246-1.244 1.25 1.25 0 0 1 1.246-1.248h15.648c.685 0 1.246.56 1.246 1.248 0 .685-.561 1.244-1.246 1.244Z" fill="#80B2FF"/><path d="M209.49 337.744h-14.18a3.64 3.64 0 1 1 0-7.278h14.18a3.64 3.64 0 0 1 0 7.278Z" fill="#1251B3"/><path d="M23.896 189.562v-.181.181ZM23.896 189.562v-.181.181ZM93.692 189.874l.001-.182v.182Z" fill="#D9FFFF"/><path d="m93.692 189.874.001-.182v.182Z" fill="#D9FFFF"/><path d="M58.938 170.704c-8.134 8.713-21.113 15.853-35.001 18.895l-.133 29.753c-.141 31.599 29.93 47.039 34.599 49.408 4.523-2.082 34.974-17.499 35.115-49.096.106-23.687.13-28.826.133-29.753-13.86-3.166-26.658-10.422-34.713-19.207Z" fill="#fff"/><path d="M58.853 176.414c-7.965 7.307-19 13.05-31.134 16.18l-.12 26.771c-.054 12.249 4.812 23.332 14.465 32.939 6.343 6.313 13.012 10.229 16.395 11.988.146-.073.306-.158.463-.239v-87.577a2.254 2.254 0 0 1-.07-.062Z" fill="#296ACC"/><path d="M58.924 176.477v87.577c3.52-1.831 9.915-5.613 16.04-11.602 9.738-9.522 14.704-20.559 14.758-32.808l.12-26.773c-12.071-3.228-23.024-9.046-30.918-16.394Z" fill="#2E77E6"/><path d="M60.348 226.077v5.879c0 .782-.636 1.433-1.42 1.433a1.436 1.436 0 0 1-1.432-1.433v-5.892a3.49 3.49 0 0 1-2.057-3.172 3.482 3.482 0 0 1 3.49-3.476 3.471 3.471 0 0 1 3.476 3.476c0 1.42-.836 2.641-2.057 3.185Zm-15.525-11.014v20.74c0 2.31 28.198 2.31 28.198 0v-20.74H44.823ZM70.555 213.586H67.7v-1.396c0-4.839-3.937-8.776-8.775-8.776-4.839 0-8.775 3.937-8.775 8.776v1.396h-2.855v-1.396c0-6.413 5.217-11.63 11.63-11.63 6.413 0 11.63 5.217 11.63 11.63v1.396Z" fill="#fff"/><path d="M267.649 63.58h-50.935V0h50.935v63.58Z" fill="#296ACC"/><path d="M274.256 70.145h-50.937V6.565h50.937v63.58Z" fill="#fff"/><path d="M274.256 70.145h-50.937V6.565h50.937v63.58Z" stroke="#5896FA" stroke-width="6.341" stroke-miterlimit="10"/><path d="M282.643 76.59h-50.934V13.012h50.934v63.58Z" fill="#fff"/><path d="M282.643 76.59h-50.934V13.012h50.934v63.58Z" stroke="#5896FA" stroke-width="6.341" stroke-miterlimit="10"/><path d="M288.746 83.156h-50.934v-63.58h50.934v63.58Z" fill="#5896FA"/><path d="M280.824 34.15h-26.347v-4.134h26.347v4.135ZM280.821 43.865h-34.139V39.73h34.139v4.135ZM280.821 53.58h-34.139v-4.135h34.139v4.135ZM280.821 63.294h-34.139V59.16h34.139v4.136ZM280.821 73.01h-34.139v-4.135h34.139v4.135Z" fill="#005CEA"/><path d="M122.96 69.204c0 9.936-8.055 17.99-17.99 17.99-9.936 0-17.99-8.054-17.99-17.99 0-9.936 8.054-17.99 17.99-17.99 9.935 0 17.99 8.054 17.99 17.99Z" fill="#fff"/><path d="M95.686 84.61c-8.516-5.136-11.252-16.186-6.117-24.702 5.128-8.503 16.177-11.239 24.693-6.103 8.503 5.128 11.239 16.176 6.112 24.68-5.136 8.516-16.185 11.252-24.688 6.124Zm37.667 1.701a33.014 33.014 0 0 0 4.409-12.268l1.34.197 2.646.389.035.003a36.94 36.94 0 0 0-.696-14.374l-3.936.975c-1.057-4.22-2.917-8.24-5.57-11.784l3.264-2.426a36.803 36.803 0 0 0-10.654-9.683l-2.102 3.486a32.94 32.94 0 0 0-12.267-4.41l.588-4.02a37.189 37.189 0 0 0-14.373.695l.974 3.937c-4.22 1.056-8.24 2.917-11.785 5.569l-2.425-3.263a36.807 36.807 0 0 0-9.683 10.653l3.486 2.102a32.95 32.95 0 0 0-4.41 12.268l-2.844-.419-1.163-.161-.013-.008a37.198 37.198 0 0 0 .695 14.373l3.937-.975a33.085 33.085 0 0 0 5.582 11.793l-3.263 2.426a36.732 36.732 0 0 0 10.64 9.675l2.102-3.486a33.022 33.022 0 0 0 12.281 4.417l-.462 3.124-.126.897c4.827.714 9.704.45 14.36-.704l-.975-3.937a33.362 33.362 0 0 0 11.806-5.574l2.425 3.263a36.996 36.996 0 0 0 9.663-10.648l-3.486-2.102Z" fill="#005CEA"/><path d="M56.703 101.452a9.47 9.47 0 0 1-13.129-2.673c-2.885-4.36-1.69-10.232 2.678-13.122a9.465 9.465 0 0 1 13.117 2.67c2.89 4.367 1.694 10.24-2.666 13.125Zm9.32-17.528a17.378 17.378 0 0 0-4.837-4.869l.396-.593.783-1.17.01-.016a19.46 19.46 0 0 0-6.993-2.917l-.426 2.092a17.393 17.393 0 0 0-6.863-.014l-.416-2.1a19.38 19.38 0 0 0-7.012 2.878l1.183 1.787a17.345 17.345 0 0 0-4.87 4.838L35.2 82.652a19.578 19.578 0 0 0-2.918 6.992l2.093.426a17.384 17.384 0 0 0-.014 6.863l-2.1.416a19.375 19.375 0 0 0 2.878 7.012l1.787-1.183a17.34 17.34 0 0 0 4.838 4.869l-.842 1.258-.34.517-.006.004a19.594 19.594 0 0 0 6.992 2.918l.426-2.093c2.245.451 4.585.471 6.87.01l.415 2.1a19.323 19.323 0 0 0 7.006-2.874l-1.183-1.787a17.384 17.384 0 0 0 4.876-4.842l1.381.926.398.262a19.545 19.545 0 0 0 2.91-6.988l-2.092-.426c.451-2.245.47-4.585.016-6.874l2.1-.416a19.478 19.478 0 0 0-2.88-7l-1.787 1.182Z" fill="#1251B3"/><path d="M360.252 120.483h-43.736a1.667 1.667 0 0 1-1.668-1.667V94.001c0-.921.747-1.668 1.668-1.668h43.736c.92 0 1.667.747 1.667 1.668v24.815c0 .921-.747 1.667-1.667 1.667Z" fill="#005CEA"/><path d="M361.919 102.506h-47.071v-4.857h47.071v4.857Z" fill="#5896FA"/><path d="M325.63 115.082h-6.919a.797.797 0 1 0 0 1.593h6.919a.798.798 0 0 0 .798-.797.799.799 0 0 0-.798-.796ZM336.275 115.082h-6.922a.796.796 0 0 0 0 1.593h6.922a.796.796 0 0 0 0-1.593ZM346.917 115.082h-6.922a.796.796 0 0 0 0 1.593h6.922a.796.796 0 0 0 0-1.593ZM357.559 115.082h-6.92a.798.798 0 0 0 0 1.593h6.92a.796.796 0 1 0 0-1.593ZM318.393 93.761a.88.88 0 0 0-.881.88v.308a.88.88 0 0 0 1.759 0v-.308a.88.88 0 0 0-.878-.88ZM320.287 94.795c0 .57.463 1.034 1.033 1.034h3.665a1.034 1.034 0 0 0 0-2.068h-3.665c-.57 0-1.033.463-1.033 1.034Z" fill="#D1F5FF"/><path d="M319.805 105.119h4.73c.758 0 1.373.614 1.373 1.373v4.079c0 .758-.615 1.373-1.373 1.373h-4.73c-.76 0-1.373-.615-1.373-1.373v-4.079c0-.759.613-1.373 1.373-1.373Z" fill="#5896FA"/><path d="M342.929 192.186v-3.215a2.643 2.643 0 0 0-2.642-2.644h-28.145a2.645 2.645 0 0 0-2.645 2.644v56.839h72.802v-53.624h-39.37Z" fill="#1251B3"/><path d="M385.327 194.14h-71.388l-4.439 51.671h72.443l3.384-51.671Z" fill="#fff"/><path d="M382.299 245.811H309.5l7.723-51.028a3.056 3.056 0 0 1 3.02-2.596h66.623a3.055 3.055 0 0 1 3.02 3.51l-7.587 50.114Z" fill="#3383FF"/><path d="M406.6 194.14c0 9.213-7.466 16.681-16.68 16.681-9.212 0-16.68-7.468-16.68-16.681 0-9.212 7.468-16.68 16.68-16.68 9.214 0 16.68 7.468 16.68 16.68Z" fill="#005CEA"/><path d="M389.922 178.069c-8.864 0-16.07 7.209-16.07 16.07s7.206 16.072 16.07 16.072c8.863 0 16.069-7.211 16.069-16.072 0-8.861-7.206-16.07-16.069-16.07Zm0 33.361c-9.536 0-17.293-7.756-17.293-17.291 0-9.532 7.757-17.289 17.293-17.289 9.535 0 17.293 7.757 17.293 17.289 0 9.535-7.758 17.291-17.293 17.291Z" fill="#fff"/><path d="M390.734 197.392v3.348a.817.817 0 0 1-.809.816.816.816 0 0 1-.816-.816v-3.355a1.989 1.989 0 0 1-1.173-1.806c0-1.096.892-1.98 1.989-1.98 1.095 0 1.979.884 1.979 1.98a1.98 1.98 0 0 1-1.17 1.813Zm-8.842-6.272v11.811c0 1.315 16.056 1.315 16.056 0V191.12h-16.056ZM396.542 190.278h-1.625v-.795a5.002 5.002 0 0 0-4.998-4.998 5.004 5.004 0 0 0-4.997 4.998v.795h-1.625v-.795a6.63 6.63 0 0 1 6.622-6.623 6.628 6.628 0 0 1 6.623 6.623v.795Z" fill="#fff"/><path d="M338.385 54.542a6.386 6.386 0 1 1-12.772.001 6.386 6.386 0 0 1 12.772 0ZM170.692 78.372a6.386 6.386 0 1 1-12.772 0 6.386 6.386 0 0 1 12.772 0Z" fill="#AAE0FF"/><path d="M380.119 163.397a3.34 3.34 0 1 1-6.68 0 3.34 3.34 0 0 1 6.68 0Z" fill="#fff"/><path d="M30.485 169.663a3.34 3.34 0 1 1-6.68 0 3.34 3.34 0 0 1 6.68 0ZM85.794 291.409a6.386 6.386 0 1 1-12.771-.001 6.386 6.386 0 0 1 12.771.001ZM181.886 14.977a1.107 1.107 0 0 1-1.107-1.106V2.025a1.107 1.107 0 0 1 2.213 0V13.87c0 .61-.495 1.106-1.106 1.106Z" fill="#AAE0FF"/><path d="M174.854 7.947c0-.612.496-1.107 1.106-1.107h11.847a1.106 1.106 0 0 1 0 2.213H175.96c-.61 0-1.106-.495-1.106-1.106Z" fill="#AAE0FF"/><path d="M307.82 167.086a1.107 1.107 0 0 1-1.108-1.107v-11.846a1.106 1.106 0 0 1 2.214 0v11.846c0 .611-.495 1.107-1.106 1.107Z" fill="#fff"/><path d="M300.792 160.057c0-.611.495-1.107 1.105-1.107h11.845a1.107 1.107 0 0 1 0 2.213h-11.845c-.61 0-1.105-.495-1.105-1.106ZM295.775 323.111c-.61 0-1.105-.495-1.105-1.106V310.16a1.108 1.108 0 1 1 2.214 0v11.845c0 .611-.495 1.106-1.109 1.106Z" fill="#fff"/><path d="M288.745 316.083c0-.611.495-1.106 1.108-1.106h11.845a1.106 1.106 0 1 1 0 2.214h-11.845a1.107 1.107 0 0 1-1.108-1.108Z" fill="#fff"/><path d="M200.722 234.69a3.54 3.54 0 0 1-3.542 3.541 3.54 3.54 0 1 1 0-7.083 3.544 3.544 0 0 1 3.542 3.542Z" stroke="#fff" stroke-width="4.226" stroke-miterlimit="10"/><path d="M284.231 559.141h-13.862l-1.434-30.137h16.728l-1.432 30.137ZM525.121 559.141H511.26l-1.435-30.137h16.728l-1.432 30.137Z" fill="#0E0E0E"/><path d="M513.037 476.701a402.667 402.667 0 0 1-5.016 14.592H277.925s-29.695-120.866 0-142.969c.761-.565 1.671-1.122 2.734-1.668 39.993-20.548 200.341-25.375 232.895 1.063.249.198.479.401.701.605 11.996 11.01 22.425 54.965-1.218 128.377Z" fill="#EA7B00"/><path d="M364.676 491.293h-86.701l8.457-84.712c15.116 6.559 55.367 41.196 78.244 84.712ZM513.037 476.701a402.667 402.667 0 0 1-5.016 14.592H424.45c14.372-26.654 49.22-67.031 83.062-85.614l5.525 71.022Z" fill="#982C20"/><path d="M541.867 405.394h-31.901a10.692 10.692 0 0 0-10.598 9.289l-10.172 76.93H302.753l-10.172-76.93a10.692 10.692 0 0 0-10.598-9.289h-31.901c-6.658 0-11.693 6.015-10.526 12.569l17.711 128.112h277.412l17.713-128.112c1.168-6.554-3.868-12.569-10.525-12.569Z" fill="#EA7B00"/><path d="M487.335 449.594c15.012 5.025 12.086 36.811 0 41.696H305.218c-13.602-3.51-14.75-45.553 4.864-42.392 120.047 22.572 125.861-13.435 177.253.696Z" fill="#F2B066"/><path d="M348.531 417.375c-.057 8.207.385 15.933 1.269 22.7h85.393l5.057-83.384c-5.073-30.455-18.958-37.835-40.938-37.835-19.67 0-32.771 16.045-40.732 37.525-6.883 18.559-9.926 41.168-10.049 60.994Z" fill="#007880"/><path d="m348.529 418.986 30.902-1.861c-17.156-5.616-18.521-31.949-1.081-48.332l-19.772-12.413c-6.882 18.559-9.926 42.778-10.049 62.606Z" fill="#005459"/><path d="M342.648 457.303h117.325v-39.926H354.288l-11.64 39.926Z" fill="#0E0E0E"/><path d="m474.961 444.633-31.513 114.508h-24.574c7.779-48.728 6.039-80.404 13.355-120.866 6.419-33.212 50.372-24.421 42.732 6.358Z" fill="#0E0E0E"/><path d="M434.622 559.142c0-.075-.006-.15-.006-.228 0-8.488 6.883-15.368 15.371-15.368 8.489 0 15.369 6.88 15.369 15.368 0 .078-.003.153-.006.228h-30.728Z" fill="#B15626"/><path d="m452.949 543.833-5.587-1.708c-3.686-7.255-19.416-6.358-17.223 2.473-6.173.918-9.418-2.155-9.418-2.155l-1.847 16.699h33.322l.753-15.309Z" fill="#B15626"/><path d="M336.585 444.633 368.1 559.141h24.572c-7.78-48.728-6.037-80.404-13.353-120.866-6.419-33.212-50.374-24.421-42.734 6.358Z" fill="#0E0E0E"/><path d="M376.927 559.142c0-.075.005-.15.005-.228 0-8.488-6.882-15.368-15.371-15.368-8.488 0-15.37 6.88-15.37 15.368 0 .078.005.153.008.228h30.728Z" fill="#B15626"/><path d="m358.597 543.833 5.586-1.708c3.689-7.255 19.416-6.358 17.226 2.473 6.171.918 9.418-2.155 9.418-2.155l1.844 16.699h-33.322l-.752-15.309Z" fill="#B15626"/><path d="M386.151 321.535c11.526 6.995 13.167 27.765 7.259 36.04l-32.886 24.499 33.483 17.242-5.439 17.81s-34.95-2.846-52.056-20.393c-16.425-16.849 23.619-66.34 49.639-75.198ZM409.531 353.043c-9.857-12.381-3.049-31.508 9.516-30.946 40.925 14.408 53.557 54.409 40.593 72.366-11.109 15.384-59.966 21.308-59.966 21.308v-16.843l33.946-7.335s-17.504-27.12-24.089-38.55Z" fill="#007880"/><path d="M373.672 411.499c-.634-5.64 2.666-12.694 11.155-14.233 14.827-2.693 20.195 5.442 21.597 11.256.364 1.515-1.014 3.119-2.286 2.977-1.274-.139-2.168-.859-2.388-2.013-.262-1.39-.998-3.108-2.588-4.005 1.534 3.004.894 6.018-3.282 6.018h-22.208Z" fill="#F7A594"/><path d="m407.149 411.485 11.669-58.506h2.474l-12.628 64.398h-34.968l-3.82-5.892h37.273Z" fill="#99C1FF"/><path d="M421.29 352.979h86.827l-12.844 64.398h-86.61l12.627-64.398Z" fill="#fff"/><path d="M395.975 325.728c0 6.657 19.956 11.074 26.48 4.077.988-1.052 1.665-2.353 1.927-3.949l3.759-16.862-23.836-8.986-.709 2.203-7.621 23.517Z" fill="#F7A594"/><path d="m424.383 325.856 3.758-16.862-22.55-6.071c-5.836 17.37 14.993 31.25 18.792 22.933Z" fill="#F4856D"/><path d="M402.545 293.528c-1.256 16.573 11.842 31.168 22.831 31.909 10.989.739 26.119-11.535 27.374-28.107 1.256-16.573-8.967-30.86-22.831-31.909-13.864-1.05-26.119 11.534-27.374 28.107Z" fill="#F7A594"/><path d="M420.919 266.677c15.194-9.624 23.56-.573 31.127 9.027 5.309 6.735 9.07 11.575 15.679 12.586-12.713 16.035-38.135 5.459-46.145-10.608-.79 9.144-11.57 16.72-19.035 15.847-2.418-10.178 4.631-30.752 18.374-26.852Z" fill="#0E0E0E"/><path d="M398.828 293.748a6.615 6.615 0 1 0 13.23 0 6.615 6.615 0 0 0-13.23 0Z" fill="#F7A594"/></svg>