<svg width="198" height="38" fill="none" xmlns="http://www.w3.org/2000/svg"><path d="M13.221 37.419H5.824V18.97H.782v-6.004h5.042V8.694C5.824 3.632 8.05 0 15.432 0c1.56 0 4.014.312 4.014.312v5.58H16.87c-2.62 0-3.648.796-3.648 3.001v4.073h6.123L18.8 18.97h-5.579V37.42Zm16.98-24.932c-.108 0-.22.006-.328.006-6.86 0-10.002 5.16-10.002 12.487 0 9.227 4.073 12.923 10.056 12.923 3.421 0 5.67-1.442 7.037-4.126v3.647H44V12.971h-7.037v3.761c-1.114-2.42-3.427-4.212-6.763-4.245Zm1.792 5.779c2.883 0 4.61 2.012 4.61 5.428l.006 3.492c0 2.303-1.431 4.998-4.616 4.998-4.902 0-4.773-5.294-4.773-7.059 0-5.929 2.61-6.86 4.773-6.86ZM46.847 25.2c0-2.97-.14-12.692 12.525-12.692 5.084 0 7.21 1.62 7.21 1.62l-1.706 5.293s-2.12-1.167-4.885-1.167c-3.54 0-5.794 2.05-5.794 5.66l.005 2.588c0 3.47 2.179 5.783 5.8 5.783 2.518 0 4.836-1.178 4.836-1.178l1.7 5.181s-1.942 1.625-7.128 1.625c-12.068-.006-12.563-8.727-12.563-12.713Zm61-12.708c6.86 0 10.05 5.16 10.05 12.487 0 9.227-4.072 12.923-10.055 12.923-3.422 0-5.951-1.442-7.317-4.126v3.647l-6.951-.005V.742l7.376-.645v16.302c1.065-2.852 4.562-3.906 6.897-3.906Zm-2.071 5.773c-2.884 0-4.826 2.012-4.826 5.428l-.005 3.492c-.006 2.303 1.345 4.998 4.831 4.998 4.901 0 4.772-5.294 4.772-7.059 0-5.929-2.609-6.86-4.772-6.86Zm-26.395-5.752c-7.78 0-11.89 4.245-11.89 11.783v1.399C67.49 35.482 73.258 38 80.139 38c6.688 0 9.712-1.872 9.712-1.872l-1.383-4.982s-3.562 1.517-7.446 1.517c-4.03 0-5.762-1.028-6.209-4.901h15.624v-3.998c.005-8.167-4.61-11.25-11.056-11.25Zm.188 4.988c2.696 0 4.439 1.651 4.342 5.482h-9.082c.156-4.03 2.04-5.482 4.74-5.482Zm53.038-5.02c-7.99 0-12.197 4.503-12.197 12.573 0 11.073 7.252 12.859 12.213 12.859 7.263 0 12.094-3.911 12.094-12.756-.005-9.206-5.434-12.676-12.11-12.676Zm-.102 5.805c3.513 0 4.906 2.631 4.906 5.622v2.572c0 3.626-1.947 5.725-4.917 5.725-2.782 0-4.735-1.964-4.735-5.725V23.91c0-4.013 2.324-5.622 4.746-5.622Zm26.906-5.805c-7.99 0-12.197 4.503-12.197 12.573 0 11.073 7.252 12.859 12.213 12.859 7.263 0 12.094-3.911 12.094-12.756-.005-9.206-5.434-12.676-12.11-12.676Zm-.097 5.805c3.513 0 4.906 2.631 4.906 5.622v2.572c0 3.626-1.947 5.725-4.917 5.725-2.781 0-4.734-1.964-4.734-5.725V23.91c0-4.013 2.324-5.622 4.745-5.622Zm14.994 19.132V.742l7.398-.645v24.582l7.344-11.713h7.817l-7.656 12.132 7.952 12.32h-7.839l-7.618-11.96v11.96h-7.398Z" fill="#1877F2"/></svg>