<svg width="153" height="50" fill="none" xmlns="http://www.w3.org/2000/svg"><path d="M37.541 17.657H19.72v5.28h12.624c-.619 7.426-6.807 10.561-12.624 10.561-7.467 0-13.943-5.858-13.943-14.067 0-8.004 6.188-14.15 13.943-14.15 5.982 0 9.53 3.836 9.53 3.836l3.713-3.836S28.218 0 19.554 0C8.54 0 0 9.323 0 19.347c0 9.86 8.045 19.472 19.843 19.472 10.396 0 17.987-7.137 17.987-17.657 0-2.227-.289-3.506-.289-3.506Z" fill="#4285F4"/><path d="M52.104 13.82c-7.302 0-12.541 5.735-12.541 12.376 0 6.766 5.074 12.583 12.624 12.583 6.848 0 12.417-5.24 12.417-12.418.041-8.292-6.477-12.54-12.5-12.54Zm.083 4.91c3.589 0 7.013 2.887 7.013 7.59 0 4.58-3.383 7.59-7.013 7.59-4.002 0-7.137-3.176-7.137-7.59 0-4.373 3.094-7.59 7.137-7.59Z" fill="#EA4335"/><path d="M79.413 13.82c-7.302 0-12.54 5.735-12.54 12.376 0 6.766 5.073 12.583 12.623 12.583 6.848 0 12.417-5.24 12.417-12.418 0-8.292-6.518-12.54-12.5-12.54Zm.083 4.91c3.589 0 7.013 2.887 7.013 7.59 0 4.58-3.383 7.59-7.013 7.59-4.002 0-7.137-3.176-7.137-7.59-.041-4.373 3.094-7.59 7.137-7.59Z" fill="#FBBC05"/><path d="M106.147 13.82c-6.724 0-11.964 5.858-11.964 12.459 0 7.508 6.106 12.5 11.881 12.5 3.548 0 5.446-1.403 6.849-3.053v2.475c0 4.29-2.599 6.89-6.56 6.89-3.795 0-5.734-2.847-6.394-4.456l-4.786 2.022C96.865 46.246 100.29 50 106.394 50c6.684 0 11.758-4.208 11.758-12.995V14.563h-5.239v2.104c-1.609-1.692-3.837-2.847-6.766-2.847Zm.495 4.91c3.3 0 6.683 2.805 6.683 7.59 0 4.868-3.383 7.55-6.724 7.55-3.589 0-6.89-2.888-6.89-7.509-.04-4.785 3.424-7.632 6.931-7.632Z" fill="#4285F4"/><path d="M141.377 13.82c-6.312 0-11.633 5.033-11.633 12.459 0 7.88 5.94 12.541 12.252 12.541 5.28 0 8.54-2.888 10.437-5.487l-4.331-2.887c-1.114 1.732-3.012 3.424-6.106 3.424-3.507 0-5.116-1.94-6.106-3.796l16.749-6.93-.866-2.022c-1.609-4.002-5.404-7.302-10.396-7.302Zm.248 4.786c2.269 0 3.919 1.196 4.62 2.681l-11.18 4.662c-.495-3.63 2.929-7.343 6.56-7.343Z" fill="#EA4335"/><path d="M127.268 1.28h-5.486v36.798h5.486V1.279Z" fill="#34A853"/></svg>