<svg width="19" height="19" fill="none" xmlns="http://www.w3.org/2000/svg"><path d="M14.406 3.714a1.055 1.055 0 1 0 0 2.11 1.055 1.055 0 0 0 0-2.11ZM9.714 12.34a2.843 2.843 0 0 1-2.84-2.84 2.843 2.843 0 0 1 2.84-2.84 2.843 2.843 0 0 1 2.84 2.84 2.843 2.843 0 0 1-2.84 2.84Zm0-7.273A4.438 4.438 0 0 0 5.281 9.5a4.438 4.438 0 0 0 4.433 4.433A4.438 4.438 0 0 0 14.147 9.5a4.438 4.438 0 0 0-4.433-4.433Z" fill="#fff"/><path d="M6.047 2.194a3.717 3.717 0 0 0-3.713 3.713v7.186a3.717 3.717 0 0 0 3.713 3.713h7.186a3.718 3.718 0 0 0 3.714-3.713V5.907a3.718 3.718 0 0 0-3.714-3.713H6.047ZM13.233 18.5H6.047a5.412 5.412 0 0 1-5.406-5.407V5.907A5.412 5.412 0 0 1 6.047.5h7.186a5.413 5.413 0 0 1 5.407 5.407v7.186a5.413 5.413 0 0 1-5.407 5.407Z" fill="#fff"/></svg>
