<svg width="123" height="194" viewBox="0 0 123 194" fill="none" xmlns="http://www.w3.org/2000/svg">
<path d="M36.6798 85.3532C38.8288 89.3322 41.9118 92.7413 44.1118 96.6923C47.5358 102.835 48.6708 110.031 48.6078 117.064C48.5908 118.987 48.5068 121 49.3428 122.733C51.1358 126.449 56.0478 127.119 60.1708 127.298C66.7388 127.583 75.2248 126.539 76.8498 120.169C77.5148 117.56 76.6898 114.833 76.5188 112.147C75.9948 103.873 81.6618 96.5282 87.7208 90.8712C93.7808 85.2132 100.757 80.0632 104.301 72.5682C105.219 70.6262 105.867 68.2873 104.868 66.3863C102.706 62.2693 95.3128 63.9413 93.0278 59.8903C92.3428 58.6753 92.3168 57.2172 92.1578 55.8312C90.7328 43.4472 77.2368 35.2383 64.7778 35.6353C55.2568 35.9393 37.7828 40.9382 33.4998 50.5992C29.5578 59.4902 32.3298 77.2942 36.6798 85.3532Z" fill="#FFE7FB"/>
<path d="M2.85518 180.016C2.73218 183.914 3.40416 188.444 6.74916 190.449C8.43016 191.457 10.4732 191.604 12.4302 191.719C47.9602 193.802 83.6182 193.694 119.134 191.399C120.109 191.335 121.147 191.247 121.919 190.65C123.521 189.407 123.037 186.908 122.375 184.993C118.948 175.09 114.871 165.412 110.177 156.043C107.418 150.53 103.938 144.679 98.1092 142.673C89.9992 139.881 81.7082 145.7 73.3332 147.553C56.6692 151.239 42.5352 133.374 27.3952 138.189C12.1282 143.043 3.30918 165.619 2.85518 180.016Z" fill="#C3C62B"/>
<path d="M42.0462 130.614C41.7352 131.114 41.4332 131.664 41.4662 132.251C41.5072 132.961 42.0212 133.543 42.5242 134.046C52.9192 144.447 70.8622 146.151 83.0282 137.891C84.5512 136.857 86.0342 135.629 86.8112 133.96C88.3422 130.672 86.5372 126.542 83.5172 124.533C80.4982 122.524 76.6322 122.249 73.0282 122.649C69.4232 123.048 65.9022 124.051 62.2882 124.361C53.2572 125.138 47.3892 122.022 42.0462 130.614Z" fill="#6987FF"/>
<path d="M46.2744 79.4126C43.8424 79.4366 41.4124 79.4606 38.9814 79.4846C38.2824 79.4906 37.4904 79.5396 37.0424 80.0766C36.4914 80.7366 36.8175 81.8116 37.4925 82.3446C38.1665 82.8776 39.0625 83.0136 39.9155 83.1306C41.0105 83.2816 42.1064 83.4326 43.2024 83.5836C44.7464 83.7966 46.4984 83.9526 47.6884 82.9466C48.8794 81.9416 48.4324 79.3916 46.8784 79.5096" fill="#F03FA3"/>
<path d="M80.4559 80.6323C78.0249 80.6563 75.5939 80.6803 73.1629 80.7033C72.4649 80.7103 71.6719 80.7603 71.2239 81.2963C70.6729 81.9563 70.9999 83.0303 71.6729 83.5643C72.3479 84.0983 73.2449 84.2343 74.0959 84.3513C75.1919 84.5013 76.2879 84.6523 77.3829 84.8033C78.9279 85.0163 80.6799 85.1733 81.8709 84.1663C83.0609 83.1603 82.6139 80.6103 81.0589 80.7293" fill="#F03FA3"/>
<path d="M39.4003 60.7543C40.2133 60.0723 41.1653 59.6653 42.1333 59.3673C43.1083 59.0803 44.1243 58.9433 45.1413 58.9403C47.1633 58.9383 49.2763 59.4683 50.8653 60.8493C49.8043 60.9513 48.8683 60.9013 47.9223 60.9333L45.1453 60.9403C43.2933 60.9223 41.4673 60.9683 39.4003 60.7543Z" fill="black"/>
<path d="M46.9706 70.6764C46.9706 72.2914 46.1496 73.6004 45.1366 73.6004C44.1236 73.6004 43.3016 72.2914 43.3016 70.6764C43.3016 69.0624 44.1236 67.7534 45.1366 67.7534C46.1496 67.7534 46.9706 69.0624 46.9706 70.6764Z" fill="black"/>
<path d="M79.4238 60.613C77.3598 60.853 75.5348 60.828 73.6818 60.867L70.9068 60.895C69.9598 60.873 69.0228 60.936 67.9628 60.846C69.5338 59.446 71.6407 58.89 73.6617 58.868C74.6797 58.859 75.6958 58.984 76.6738 59.259C77.6468 59.545 78.6038 59.941 79.4238 60.613Z" fill="black"/>
<path d="M72.3016 70.6764C72.3016 72.2914 73.1236 73.6004 74.1366 73.6004C75.1496 73.6004 75.9706 72.2914 75.9706 70.6764C75.9706 69.0624 75.1496 67.7534 74.1366 67.7534C73.1236 67.7534 72.3016 69.0624 72.3016 70.6764Z" fill="black"/>
<path d="M56.0511 69.0205C56.1671 69.2725 55.7371 75.9745 54.5731 79.2385C54.5731 79.2385 54.5731 83.9075 59.9471 82.9275" stroke="black" stroke-miterlimit="10"/>
<path d="M52.7694 89.8953C52.7694 89.8953 60.7674 90.4343 67.1254 89.3403" stroke="black" stroke-miterlimit="10"/>
<path d="M1.00378 187.8L6.03378 164.67C8.68378 152.48 16.1338 141.88 26.7038 135.249L46.2538 122.989L46.8338 116.81H46.8438L48.1538 102.89L48.1838 102.59" stroke="black" stroke-miterlimit="10"/>
<path d="M118.894 187.8L113.864 164.67C111.214 152.48 103.764 141.88 93.194 135.249L73.644 122.989L72.254 108.38L71.764 103.119L71.744 102.949" stroke="black" stroke-miterlimit="10"/>
<path d="M27.2343 51.4701C27.6743 52.2201 26.6742 81.7491 44.3142 99.4701C48.3342 103.499 53.3242 106.93 59.5242 109.249C59.5242 109.249 65.1843 108.39 71.7643 103.119C73.0643 102.09 74.3942 100.88 75.7242 99.4701C83.2842 91.4891 90.8243 77.1401 91.6743 51.4701" stroke="black" stroke-miterlimit="10"/>
<path d="M28.598 67.6412C28.598 67.6412 21.192 59.8002 18.082 63.9942C14.97 68.1902 23.356 86.5062 33.794 83.3852" stroke="black" stroke-miterlimit="10"/>
<path d="M23.1034 71.1852C23.1034 71.1852 28.1324 70.7822 30.6164 74.5862" stroke="black" stroke-miterlimit="10"/>
<path d="M26.1122 74.9631C26.1122 74.9631 26.1262 73.2321 29.3632 73.1611" stroke="black" stroke-miterlimit="10"/>
<path d="M90.0415 67.6412C90.0415 67.6412 96.9175 59.3303 100.298 63.3133C103.676 67.2953 96.5095 86.1223 85.8895 83.6923" stroke="black" stroke-miterlimit="10"/>
<path d="M95.9438 70.8204C95.9438 70.8204 90.8998 70.7484 88.6708 74.7074" stroke="black" stroke-miterlimit="10"/>
<path d="M93.188 74.7871C93.188 74.7871 93.061 73.0611 89.827 73.2031" stroke="black" stroke-miterlimit="10"/>
<path d="M46.2509 122.986C46.2509 122.986 59.7049 132.595 73.6429 122.986" stroke="black" stroke-miterlimit="10"/>
<path d="M59.4542 127.257L52.8802 135.544C52.8802 135.544 45.4342 133.72 41.8192 125.766" stroke="black" stroke-miterlimit="10"/>
<path d="M60.7401 127.257L67.3131 135.544C67.3131 135.544 74.7591 133.72 78.3741 125.766" stroke="black" stroke-miterlimit="10"/>
<path d="M37.0829 128.736C37.0829 128.736 46.5299 141.659 59.9469 144.258C59.9469 144.258 74.0659 142.37 82.0469 128.257" stroke="black" stroke-miterlimit="10"/>
<path d="M34.1688 130.655C34.1688 130.655 46.5298 145.557 59.9468 148.155C59.9468 148.155 76.9348 144.169 84.9158 130.056" stroke="black" stroke-miterlimit="10"/>
<path d="M59.9471 148.155V187.802" stroke="black" stroke-miterlimit="10"/>
<path d="M78.3746 41.5314C78.3746 41.5314 56.1046 53.8854 41.8196 54.8314C27.5356 55.7774 29.2626 68.7874 29.2626 68.7874C29.2626 68.7874 18.1036 54.3724 19.4786 33.9654C20.8546 13.5584 62.1006 -2.03463 82.6366 14.7044C82.6366 14.7044 110.986 27.4634 90.3326 66.0674C90.3326 66.0674 82.6966 59.4174 78.3746 41.5314Z" fill="black"/>
<path d="M70.9665 13.5173C71.1045 11.8943 71.4265 10.2873 71.9325 8.74029C73.4995 3.94929 78.5055 1.42629 83.3095 0.904294C84.9325 0.728294 86.5905 0.731302 88.1795 1.0993C92.5625 2.1133 95.9415 5.84131 97.5895 10.0273C98.7135 12.8823 99.1535 16.0053 98.8485 19.0593C98.6765 20.7813 98.2615 22.5033 97.4005 24.0053C96.7135 25.2043 95.7565 26.2363 94.6805 27.1053C90.8385 30.2113 84.8725 31.2993 80.1035 30.3093C76.9265 29.6513 74.5795 27.6773 73.1215 24.8183C71.3545 21.3533 70.6365 17.3883 70.9665 13.5173Z" fill="black"/>
<path d="M72.2546 108.38C66.3046 110.449 54.4146 114.35 46.8446 116.81L48.1546 102.89C51.4046 105.44 55.1646 107.619 59.5246 109.249C59.5246 109.249 65.1846 108.39 71.7646 103.119L72.2546 108.38Z" fill="black"/>
</svg>
