<svg xmlns="http://www.w3.org/2000/svg" width="187" height="50" fill="none"><path fill="#fff" d="M39.772 12.345A6.74 6.74 0 0 0 35 .845a6.732 6.732 0 0 0-5.628 3.036c-.32.32-27.153 33.392-27.403 33.772a6.74 6.74 0 0 0 4.772 11.5 6.73 6.73 0 0 0 5.628-3.035c.32-.32 27.152-33.393 27.403-33.773ZM55.297 28.04a6.74 6.74 0 0 0-4.767-11.506 6.732 6.732 0 0 0-5.63 3.038c-.322.323-14.415 17.695-14.667 18.077A6.74 6.74 0 0 0 35 49.155a6.731 6.731 0 0 0 5.629-3.038c.323-.323 14.416-17.695 14.668-18.078ZM70 7.585a6.74 6.74 0 1 1-13.48 0 6.74 6.74 0 0 1 13.48 0ZM13.48 7.585a6.74 6.74 0 1 1-13.48 0 6.74 6.74 0 0 1 13.48 0ZM100.92 12.2c2.373 0 4.427.453 6.16 1.36 1.733.88 3.2 2.187 4.4 3.92l-2.88 2.76c-1.013-1.547-2.16-2.653-3.44-3.32-1.253-.693-2.747-1.04-4.48-1.04-1.28 0-2.333.173-3.16.52-.826.347-1.44.813-1.84 1.4-.373.56-.56 1.2-.56 1.92a3.1 3.1 0 0 0 .84 2.16c.587.613 1.667 1.093 3.24 1.44l5.36 1.2c2.56.56 4.373 1.413 5.44 2.56 1.067 1.147 1.6 2.6 1.6 4.36 0 1.627-.44 3.04-1.32 4.24-.88 1.2-2.107 2.12-3.68 2.76-1.547.64-3.373.96-5.48.96-1.867 0-3.547-.24-5.04-.72-1.493-.48-2.8-1.133-3.92-1.96s-2.04-1.773-2.76-2.84l2.96-2.96c.56.933 1.267 1.773 2.12 2.52.853.72 1.84 1.28 2.96 1.68 1.147.4 2.413.6 3.8.6 1.227 0 2.28-.147 3.16-.44.907-.293 1.587-.72 2.04-1.28.48-.587.72-1.28.72-2.08 0-.773-.267-1.453-.8-2.04-.507-.587-1.467-1.04-2.88-1.36l-5.8-1.32c-1.6-.347-2.92-.84-3.96-1.48s-1.813-1.413-2.32-2.32c-.507-.933-.76-1.973-.76-3.12 0-1.493.4-2.84 1.2-4.04.827-1.227 2.013-2.2 3.56-2.92 1.547-.747 3.387-1.12 5.52-1.12Zm21.904.92V33c0 .987.254 1.707.76 2.16.534.453 1.24.68 2.12.68.72 0 1.347-.107 1.88-.32a5.85 5.85 0 0 0 1.48-.96l.96 3.12c-.613.533-1.373.96-2.28 1.28-.88.293-1.866.44-2.96.44-1.146 0-2.2-.187-3.16-.56-.96-.373-1.706-.973-2.24-1.8-.533-.853-.813-1.96-.84-3.32v-19.4l4.28-1.2Zm6.88 5.88v3.36h-15V19h15Zm15.91 7.16c0-1.333-.373-2.36-1.12-3.08-.72-.747-1.72-1.12-3-1.12-1.2 0-2.226.28-3.08.84-.853.56-1.48 1.467-1.88 2.72l-3.6-1.52c.507-1.627 1.494-2.933 2.96-3.92 1.494-.987 3.414-1.48 5.76-1.48 1.6 0 3.014.267 4.24.8 1.227.507 2.187 1.28 2.88 2.32.72 1.04 1.08 2.373 1.08 4v8.92c0 .987.494 1.48 1.48 1.48.48 0 .947-.067 1.4-.2l-.24 2.96c-.613.293-1.386.44-2.32.44-.853 0-1.626-.147-2.32-.44a3.88 3.88 0 0 1-1.6-1.4c-.373-.64-.56-1.427-.56-2.36v-.28l.88-.04c-.24 1.04-.733 1.907-1.48 2.6a7.672 7.672 0 0 1-2.6 1.52c-.986.32-1.986.48-3 .48-1.253 0-2.386-.2-3.4-.6-.986-.4-1.773-1-2.36-1.8-.56-.827-.84-1.84-.84-3.04 0-1.493.48-2.72 1.44-3.68.987-.96 2.374-1.613 4.16-1.96l7.76-1.52-.04 3-5.64 1.16c-1.12.213-1.96.52-2.52.92s-.84.987-.84 1.76c0 .747.28 1.347.84 1.8.587.427 1.36.64 2.32.64.667 0 1.307-.08 1.92-.24a5.28 5.28 0 0 0 1.72-.76c.507-.373.894-.84 1.16-1.4.294-.587.44-1.28.44-2.08v-5.44ZM156.867 39V19h3.64l.4 3.6c.533-1.307 1.32-2.293 2.36-2.96 1.067-.693 2.373-1.04 3.92-1.04.4 0 .8.04 1.2.12.4.053.733.147 1 .28l-.6 3.76a4.996 4.996 0 0 0-1-.24c-.347-.08-.827-.12-1.44-.12-.827 0-1.64.227-2.44.68-.8.427-1.467 1.08-2 1.96-.507.88-.76 2-.76 3.36V39h-4.28Zm21.426-25.88V33c0 .987.253 1.707.76 2.16.533.453 1.24.68 2.12.68.72 0 1.347-.107 1.88-.32a5.868 5.868 0 0 0 1.48-.96l.96 3.12c-.613.533-1.373.96-2.28 1.28-.88.293-1.867.44-2.96.44-1.147 0-2.2-.187-3.16-.56-.96-.373-1.707-.973-2.24-1.8-.533-.853-.813-1.96-.84-3.32v-19.4l4.28-1.2Zm6.88 5.88v3.36h-15V19h15Z"/></svg>