<svg width="129" height="38" fill="none" xmlns="http://www.w3.org/2000/svg"><path d="M25.568 10.865a4.333 4.333 0 1 0-6.686-5.442C18.676 5.63 1.427 26.89 1.266 27.134a4.333 4.333 0 1 0 6.686 5.442c.205-.206 17.454-21.467 17.616-21.711ZM35.548 20.954a4.333 4.333 0 1 0-6.684-5.444c-.207.208-9.267 11.376-9.429 11.622a4.333 4.333 0 1 0 6.683 5.444c.208-.208 9.268-11.376 9.43-11.622ZM45 7.805a4.333 4.333 0 1 1-8.666 0 4.333 4.333 0 0 1 8.666 0ZM8.666 7.805a4.333 4.333 0 1 1-8.666 0 4.333 4.333 0 0 1 8.666 0ZM64.69 8.9c1.78 0 3.32.34 4.62 1.02 1.3.66 2.4 1.64 3.3 2.94l-2.16 2.07c-.76-1.16-1.62-1.99-2.58-2.49-.94-.52-2.06-.78-3.36-.78-.96 0-1.75.13-2.37.39-.62.26-1.08.61-1.38 1.05-.28.42-.42.9-.42 1.44 0 .62.21 1.16.63 1.62.44.46 1.25.82 2.43 1.08l4.02.9c1.92.42 3.28 1.06 4.08 1.92.8.86 1.2 1.95 1.2 3.27 0 1.22-.33 2.28-.99 3.18-.66.9-1.58 1.59-2.76 2.07-1.16.48-2.53.72-4.11.72-1.4 0-2.66-.18-3.78-.54-1.12-.36-2.1-.85-2.94-1.47a8.694 8.694 0 0 1-2.07-2.13l2.22-2.22c.42.7.95 1.33 1.59 1.89.64.54 1.38.96 2.22 1.26.86.3 1.81.45 2.85.45.92 0 1.71-.11 2.37-.33.68-.22 1.19-.54 1.53-.96.36-.44.54-.96.54-1.56 0-.58-.2-1.09-.6-1.53-.38-.44-1.1-.78-2.16-1.02l-4.35-.99c-1.2-.26-2.19-.63-2.97-1.11-.78-.48-1.36-1.06-1.74-1.74-.38-.7-.57-1.48-.57-2.34 0-1.12.3-2.13.9-3.03.62-.92 1.51-1.65 2.67-2.19 1.16-.56 2.54-.84 4.14-.84Zm16.428.69V24.5c0 .74.19 1.28.57 1.62.4.34.93.51 1.59.51.54 0 1.01-.08 1.41-.24.4-.18.77-.42 1.11-.72l.72 2.34c-.46.4-1.03.72-1.71.96-.66.22-1.4.33-2.22.33-.86 0-1.65-.14-2.37-.42-.72-.28-1.28-.73-1.68-1.35-.4-.64-.61-1.47-.63-2.49V10.49l3.21-.9Zm5.16 4.41v2.52h-11.25V14h11.25Zm11.933 5.37c0-1-.28-1.77-.84-2.31-.54-.56-1.29-.84-2.25-.84-.9 0-1.67.21-2.31.63-.64.42-1.11 1.1-1.41 2.04l-2.7-1.14c.38-1.22 1.12-2.2 2.22-2.94 1.12-.74 2.56-1.11 4.32-1.11 1.2 0 2.26.2 3.18.6.92.38 1.64.96 2.16 1.74.54.78.81 1.78.81 3v6.69c0 .74.37 1.11 1.11 1.11.36 0 .71-.05 1.05-.15l-.18 2.22c-.46.22-1.04.33-1.74.33-.64 0-1.22-.11-1.74-.33-.5-.24-.9-.59-1.2-1.05-.28-.48-.42-1.07-.42-1.77v-.21l.66-.03c-.18.78-.55 1.43-1.11 1.95-.56.5-1.21.88-1.95 1.14-.74.24-1.49.36-2.25.36-.94 0-1.79-.15-2.55-.45-.74-.3-1.33-.75-1.77-1.35-.42-.62-.63-1.38-.63-2.28 0-1.12.36-2.04 1.08-2.76.74-.72 1.78-1.21 3.12-1.47l5.82-1.14-.03 2.25-4.23.87c-.84.16-1.47.39-1.89.69-.42.3-.63.74-.63 1.32 0 .56.21 1.01.63 1.35.44.32 1.02.48 1.74.48.5 0 .98-.06 1.44-.18.48-.12.91-.31 1.29-.57.38-.28.67-.63.87-1.05.22-.44.33-.96.33-1.56v-4.08ZM106.65 29V14h2.73l.3 2.7c.4-.98.99-1.72 1.77-2.22.8-.52 1.78-.78 2.94-.78.3 0 .6.03.9.09.3.04.55.11.75.21l-.45 2.82a3.75 3.75 0 0 0-.75-.18c-.26-.06-.62-.09-1.08-.09-.62 0-1.23.17-1.83.51-.6.32-1.1.81-1.5 1.47-.38.66-.57 1.5-.57 2.52V29h-3.21Zm16.07-19.41V24.5c0 .74.19 1.28.57 1.62.4.34.93.51 1.59.51.54 0 1.01-.08 1.41-.24.4-.18.77-.42 1.11-.72l.72 2.34c-.46.4-1.03.72-1.71.96-.66.22-1.4.33-2.22.33-.86 0-1.65-.14-2.37-.42-.72-.28-1.28-.73-1.68-1.35-.4-.64-.61-1.47-.63-2.49V10.49l3.21-.9Zm5.16 4.41v2.52h-11.25V14h11.25Z" fill="#fff"/></svg>