<svg width="212" height="46" fill="none" xmlns="http://www.w3.org/2000/svg"><path d="M211.491 20.807v-3.718h-4.605v-5.77l-.167.055-4.328 1.332h-.111v4.383h-6.825v-2.441c0-1.11.278-1.998.777-2.553.5-.554 1.221-.887 2.109-.887.666 0 1.331.166 1.997.444l.167.055V7.823l-.056-.056c-.61-.222-1.498-.333-2.552-.333-1.332 0-2.553.278-3.607.888-1.054.555-1.886 1.387-2.497 2.442-.61 1.054-.888 2.275-.888 3.606v2.664h-3.218v3.718h3.218v15.647h4.606V20.751h6.825v9.988c0 4.106 1.942 6.16 5.715 6.16a8.03 8.03 0 0 0 1.942-.223c.666-.166 1.165-.277 1.443-.444l.055-.055v-3.718l-.166.111a3.72 3.72 0 0 1-.943.389c-.389.11-.666.166-.888.166-.888 0-1.554-.222-1.942-.721-.389-.5-.611-1.332-.611-2.497v-9.1h4.55Zm-34.069 12.318c-1.665 0-2.996-.555-3.94-1.664-.943-1.11-1.387-2.664-1.387-4.661 0-2.053.5-3.663 1.387-4.772.944-1.11 2.22-1.665 3.884-1.665 1.61 0 2.886.555 3.774 1.61.887 1.053 1.387 2.663 1.387 4.716 0 2.108-.444 3.717-1.276 4.772-.888 1.165-2.164 1.664-3.829 1.664Zm.166-16.48c-3.162 0-5.715.944-7.546 2.775-1.831 1.83-2.719 4.383-2.719 7.602 0 3.051.888 5.437 2.664 7.213 1.775 1.776 4.161 2.663 7.102 2.663 3.107 0 5.549-.943 7.38-2.83 1.831-1.886 2.719-4.383 2.719-7.49 0-3.052-.833-5.55-2.553-7.27-1.664-1.775-3.995-2.663-7.047-2.663Zm-17.645 0c-2.164 0-3.939.555-5.326 1.665-1.388 1.11-2.053 2.553-2.053 4.273 0 .887.166 1.72.443 2.386.278.665.777 1.276 1.388 1.775.61.5 1.553 1.054 2.774 1.554 1.054.444 1.831.777 2.33 1.11.5.277.833.554.999.832.167.277.278.666.278 1.11 0 1.276-.999 1.942-2.997 1.942-.721 0-1.609-.167-2.497-.444-.943-.333-1.775-.722-2.552-1.332l-.166-.11v4.438l.055.056c.666.277 1.498.555 2.441.776.944.222 1.832.278 2.608.278 2.331 0 4.273-.555 5.605-1.665 1.387-1.11 2.108-2.608 2.108-4.383 0-1.276-.388-2.442-1.11-3.33-.721-.887-2.053-1.72-3.828-2.441-1.443-.555-2.331-1.054-2.719-1.443-.389-.333-.555-.832-.555-1.498 0-.555.222-.999.721-1.387.5-.388 1.11-.555 1.942-.555.777 0 1.554.111 2.331.333a7.738 7.738 0 0 1 2.053.943l.166.111v-4.217l-.055-.055a8.377 8.377 0 0 0-2.053-.555c-.888-.056-1.665-.167-2.331-.167Zm-19.42 16.48c-1.665 0-2.997-.555-3.94-1.664-.943-1.11-1.387-2.664-1.387-4.661 0-2.053.499-3.663 1.387-4.772.943-1.11 2.22-1.665 3.884-1.665 1.609 0 2.886.555 3.773 1.61.888 1.053 1.388 2.663 1.388 4.716 0 2.108-.444 3.717-1.277 4.772-.832 1.165-2.108 1.664-3.828 1.664Zm.222-16.48c-3.163 0-5.716.944-7.547 2.775-1.831 1.83-2.719 4.383-2.719 7.602 0 3.051.888 5.437 2.664 7.213 1.775 1.776 4.161 2.663 7.102 2.663 3.108 0 5.549-.943 7.38-2.83 1.831-1.886 2.719-4.383 2.719-7.49 0-3.052-.832-5.55-2.552-7.27-1.665-1.775-4.051-2.663-7.047-2.663Zm-17.257 3.83v-3.33h-4.55v19.31h4.55v-9.877c0-1.665.388-3.052 1.11-4.106.721-1.055 1.72-1.554 2.941-1.554.388 0 .887.055 1.387.222.499.11.832.277 1.054.444l.167.11V17.09l-.056-.055c-.444-.167-.999-.278-1.776-.278-1.165 0-2.164.389-3.051 1.11-.722.666-1.277 1.498-1.776 2.608Zm-12.651-3.83c-2.109 0-3.94.444-5.549 1.332a8.893 8.893 0 0 0-3.662 3.773c-.832 1.61-1.276 3.496-1.276 5.549 0 1.831.388 3.496 1.22 4.994.833 1.498 1.943 2.663 3.385 3.44 1.443.777 3.108 1.22 4.994 1.22 2.164 0 3.995-.443 5.493-1.275l.056-.056v-4.161l-.167.166c-.665.5-1.442.888-2.219 1.165-.777.278-1.554.444-2.164.444-1.776 0-3.218-.555-4.273-1.664-1.054-1.11-1.553-2.664-1.553-4.606 0-1.942.555-3.551 1.664-4.716 1.11-1.166 2.497-1.776 4.273-1.776 1.498 0 2.941.5 4.328 1.498l.166.111V17.7l-.055-.056c-.5-.277-1.221-.555-2.109-.721-.887-.167-1.775-.278-2.552-.278Zm-13.595.5h-4.55v19.31h4.55v-19.31Zm-2.22-8.268c-.72 0-1.386.278-1.941.777a2.485 2.485 0 0 0-.832 1.887c0 .72.277 1.387.776 1.886.555.5 1.166.722 1.942.722.777 0 1.443-.222 1.942-.722.555-.5.833-1.11.833-1.886 0-.722-.278-1.332-.777-1.887-.5-.5-1.165-.777-1.942-.777Zm-11.319 6.825v20.753h4.661V9.488h-6.436l-8.157 20.03-7.934-20.03h-6.659v26.967h4.384V15.702h.166l8.379 20.753h3.273l8.213-20.753h.11Z" fill="#706D6E"/><path d="M22.002 21.863H.64V.5h21.363v21.363Z" fill="#F1511B"/><path d="M45.639 21.863H24.276V.5H45.64v21.363Z" fill="#80CC28"/><path d="M22.002 45.5H.64V24.082h21.363V45.5Z" fill="#00ADEF"/><path d="M45.639 45.5H24.276V24.082H45.64V45.5Z" fill="#FBBC09"/></svg>