<svg width="126" height="197" viewBox="0 0 126 197" fill="none" xmlns="http://www.w3.org/2000/svg">
<path d="M47.5296 81.331C56.3531 89.708 66.4431 99.4523 65.584 111.589C65.333 115.127 64.0037 118.72 61.3184 121.038C57.5229 124.314 51.5957 124.663 48.4515 128.567C45.6149 132.088 46.2096 137.545 48.9526 141.138C51.6965 144.731 56.1124 146.695 60.5395 147.61C70.6594 149.701 81.6959 146.741 89.4134 139.868C90.6315 138.782 91.7993 137.565 92.4063 136.051C93.4722 133.39 92.6286 130.385 91.7242 127.666C88.686 118.526 84.9759 108.946 87.0522 99.5418C89.3835 88.9837 98.4498 81.2786 102.785 71.3737C106.818 62.1603 106.39 51.1124 101.658 42.2386C99.881 38.9061 97.4066 35.7743 93.9877 34.1744C90.7612 32.664 87.0563 32.6692 83.4954 32.7782C69.8898 33.1959 45.4822 31.7216 35.8778 43.6265C25.6057 56.3576 38.1835 72.4561 47.5296 81.331Z" fill="#FFE7FB"/>
<path d="M34.2712 150.553C32.91 148.547 31.4017 146.551 29.3245 145.299C24.6648 142.492 18.3373 144.317 14.3906 148.062C10.4429 151.807 8.32345 157.033 6.31615 162.091C5.25232 164.768 4.18951 167.447 3.1267 170.125C1.77684 173.525 0.413601 176.982 0.0730493 180.624C-0.266474 184.266 0.551467 188.184 3.07525 190.832C5.23791 193.103 8.36358 194.18 11.4285 194.846C18.5626 196.393 25.9498 196.132 33.2465 195.863C59.2097 194.905 43.034 163.466 34.2712 150.553Z" fill="#6987FF"/>
<path d="M87.8837 168.667C88.6604 164.345 88.9043 159.94 89.751 155.631C90.6647 150.977 92.2841 146.462 94.5342 142.288C95.7688 139.997 97.3718 137.663 99.8287 136.81C102.228 135.978 104.923 136.776 107.072 138.127C113.569 142.209 115.98 150.351 117.891 157.781C120.203 166.769 122.515 175.756 124.827 184.743C125.294 186.557 125.548 188.93 123.935 189.881C123.305 190.25 122.54 190.281 121.809 190.3C111.07 190.583 98.2514 192.085 87.6861 189.945C80.9636 188.584 82.083 189.28 83.8022 182.703C85.0399 177.966 87.0102 173.533 87.8837 168.667Z" fill="#6987FF"/>
<path d="M55.2889 177.973C56.4443 180.917 57.7479 184.048 60.3941 185.778C64.0537 188.173 69.2402 186.932 72.407 183.916C75.5739 180.898 77.0822 176.54 77.9639 172.256C78.8456 167.972 79.217 163.561 80.6338 159.423C82.0289 155.343 84.4344 151.532 84.8243 147.237C84.9303 146.08 84.6988 144.635 83.6031 144.248C83.1226 144.08 82.5938 144.171 82.0958 144.278C77.9639 145.172 74.0583 147.086 69.8524 147.518C62.5845 148.264 50.7239 139.562 47.02 147.943C43.599 155.683 52.5233 170.931 55.2889 177.973Z" fill="#DAC8FF"/>
<path d="M50.7995 77.5461C48.2984 77.5698 45.7983 77.5945 43.2961 77.6192C42.5779 77.6264 41.7621 77.6768 41.3022 78.2283C40.7342 78.9073 41.0707 80.0133 41.7641 80.5628C42.4586 81.1111 43.3804 81.251 44.257 81.3714C45.3847 81.5268 46.5113 81.6811 47.6389 81.8375C49.2285 82.0556 51.031 82.2171 52.2554 81.1821C53.4797 80.1461 53.0198 77.5235 51.421 77.6459" fill="#F03FA3"/>
<path d="M85.9671 78.8019C83.4659 78.8255 80.9648 78.8502 78.4646 78.8749C77.7455 78.8821 76.9296 78.9325 76.4686 79.485C75.9017 80.1641 76.2372 81.2691 76.9316 81.8175C77.6251 82.3658 78.548 82.5057 79.4246 82.6261C80.5511 82.7825 81.6788 82.9368 82.8064 83.0932C84.395 83.3113 86.1975 83.4729 87.4229 82.4379C88.6472 81.4018 88.1873 78.7792 86.5885 78.9006" fill="#F03FA3"/>
<path d="M4.12384 187.462L9.29899 163.665C12.0255 151.123 19.6904 140.217 30.5655 133.395L50.6796 120.781L51.2249 115.01L52.6447 100.102L52.6859 99.6802" stroke="black" stroke-miterlimit="10"/>
<path d="M117.329 84.7998C114.755 75.789 105.869 30.3743 105.869 30.3743L86.3133 29.3608C95.002 36.9816 97.4105 47.1981 97.4105 47.1981C97.0093 59.4405 95.1162 69.1735 92.4411 76.9208H92.4309C89.3443 85.8821 85.1774 92.1798 81.0106 96.5833C79.6422 98.034 78.2635 99.2789 76.926 100.338C74.3436 102.407 71.8949 103.815 69.868 104.751C66.5654 106.305 64.3328 106.644 64.3328 106.644C57.9539 104.259 52.8199 100.729 48.6839 96.5833C30.5451 78.3509 31.5637 47.9698 31.111 47.1981C31.111 47.1981 30.7005 34.7181 41.7216 27.049L23.8123 26.121C23.8123 26.121 18.9489 53.7849 15.8891 74.0441C12.8292 94.3033 16.3654 107.647 29.899 109.063C43.4326 110.479 94.7633 109.063 94.7633 109.063C94.7633 109.063 124.261 109.063 117.329 84.7998Z" fill="black"/>
<path d="M76.9052 100.163L76.9258 100.338L77.4917 106.327L78.86 120.782L85.6093 125.02H85.6299V125.031L98.9742 133.395C109.849 140.218 117.514 151.124 120.241 163.665L123.461 178.49L125.416 187.463" stroke="black" stroke-miterlimit="10"/>
<path d="M43.8164 55.8984C43.8164 55.8984 49.7138 53.8891 55.6123 55.8984" stroke="black" stroke-width="2" stroke-miterlimit="10" stroke-linecap="round" stroke-linejoin="bevel"/>
<path d="M51.602 64.7451C51.602 66.4067 50.7563 67.7525 49.7141 67.7525C48.6729 67.7525 47.8271 66.4067 47.8271 64.7451C47.8271 63.0835 48.6729 61.7378 49.7141 61.7378C50.7563 61.7378 51.602 63.0835 51.602 64.7451Z" fill="black"/>
<path d="M85.4512 55.8982C85.4512 55.8982 79.5528 53.8888 73.6554 55.8982" stroke="black" stroke-width="2" stroke-miterlimit="10" stroke-linecap="round" stroke-linejoin="bevel"/>
<path d="M77.665 64.7454C77.665 66.407 78.5097 67.7527 79.5519 67.7527C80.5941 67.7527 81.4399 66.407 81.4399 64.7454C81.4399 63.0838 80.5941 61.738 79.5519 61.738C78.5097 61.738 77.665 63.0838 77.665 64.7454Z" fill="black"/>
<path d="M63.3218 64.7759C63.4401 65.0341 63.9566 69.4047 60.654 72.2505C60.654 72.2505 59.9708 75.1241 64.9248 75.1899" stroke="black" stroke-miterlimit="10"/>
<path d="M57.5398 84.1647C57.5398 84.1647 65.8602 86.923 72.3091 84.3067" stroke="black" stroke-miterlimit="10"/>
<path d="M32.1409 58.6912C32.1409 58.6912 25.2352 50.0036 21.6784 54.0316C18.1227 58.0595 25.1138 77.5708 36.0876 75.2857" stroke="black" stroke-miterlimit="10"/>
<path d="M26.1982 61.8413C26.1982 61.8413 31.3888 61.8701 33.6019 65.9876" stroke="black" stroke-miterlimit="10"/>
<path d="M28.9521 65.9798C28.9521 65.9798 29.1178 64.206 32.442 64.418" stroke="black" stroke-miterlimit="10"/>
<path d="M96.648 58.6914C96.648 58.6914 103.554 50.0037 107.109 54.0317C110.666 58.0596 103.674 77.5709 92.7013 75.2858" fill="#F7F6F2"/>
<path d="M102.784 61.8416C102.784 61.8416 97.593 61.8704 95.3799 65.9878" stroke="black" stroke-miterlimit="10"/>
<path d="M100.029 65.9798C100.029 65.9798 99.8633 64.206 96.5391 64.418" stroke="black" stroke-miterlimit="10"/>
<path d="M31.1113 47.1982C31.564 47.9699 30.5455 78.351 48.6842 96.5834C52.8202 100.729 57.9542 104.259 64.3331 106.645C64.3331 106.645 66.5657 106.306 69.8684 104.751C71.8952 103.815 74.3439 102.407 76.9263 100.338C78.2638 99.279 79.6425 98.0341 81.0109 96.5834C85.1778 92.1799 89.3446 85.8822 92.4312 76.9209H92.4415C95.1165 69.1736 97.0096 59.4406 97.4109 47.1982" stroke="black" stroke-miterlimit="10"/>
<path d="M89.2395 37.4976C89.2395 37.4976 67.8218 58.5469 32.1421 60.7497C32.1421 60.7497 21.1384 49.0979 23.8124 28.1792C26.4864 7.2605 71.6306 -16.6594 97.4179 16.2115C97.4179 16.2115 118.257 31.9531 96.6473 60.7497C96.6473 60.7497 97.8902 55.4275 89.2395 37.4976Z" fill="black"/>
<path d="M39.8711 127.559C39.8711 127.559 52.6413 141.405 65.9639 145.391C65.9639 145.391 80.1971 143.384 88.8848 127.067" stroke="black" stroke-miterlimit="10"/>
<path d="M37.4983 129.048C37.4983 129.048 47.0893 143.922 65.6488 148.64C65.6488 148.64 86.1108 143.803 91.2139 128.528" stroke="black" stroke-miterlimit="10"/>
<path d="M36.1055 129.92C36.1055 129.92 46.4609 162.114 51.0218 187.462" stroke="black" stroke-miterlimit="10"/>
<path d="M25.5393 137.029C25.5393 137.029 21.2963 151.628 29.9469 160.908C38.5965 170.188 49.0713 177.716 49.0713 177.716" stroke="black" stroke-miterlimit="10"/>
<path d="M93.4447 129.92C93.4447 129.92 83.0882 162.114 78.5283 187.462" stroke="black" stroke-miterlimit="10"/>
<path d="M104.014 137.029C104.014 137.029 108.255 151.628 99.6049 160.908C90.9553 170.188 80.4805 177.716 80.4805 177.716" stroke="black" stroke-miterlimit="10"/>
<path d="M77.4923 106.327C70.4446 108.734 58.1909 112.737 51.2256 115.011L52.6454 100.103C55.9789 102.726 59.8474 104.968 64.3332 106.645C64.3332 106.645 66.5658 106.307 69.8685 104.752C71.8953 103.816 74.344 102.407 76.9264 100.338L77.4923 106.327Z" fill="black"/>
</svg>
