<svg width="127" height="210" viewBox="0 0 127 210" fill="none" xmlns="http://www.w3.org/2000/svg">
<path d="M24.3501 82.6966C27.1687 87.4704 31.1015 91.4749 34.3861 95.9412C39.9269 103.475 43.6015 112.369 44.9963 121.616C45.9466 127.912 46.344 135.272 51.5463 138.943C54.171 140.796 57.5167 141.251 60.7263 141.435C64.2616 141.639 68.1718 141.449 70.7815 139.054C74.139 135.973 73.9129 130.753 74.1925 126.205C74.8985 114.732 80.3451 104.185 84.2971 93.3893C89.5036 79.1667 92.2023 64.0292 92.2323 48.8831C92.244 42.7606 91.6087 36.1056 87.4553 31.6072C83.9864 27.8502 78.7306 26.361 73.6858 25.5244C59.5339 23.1771 39.7962 25.3337 32.7213 39.6774C26.9255 51.4296 17.3267 70.7998 24.3501 82.6966Z" fill="#FFE7FB"/>
<path d="M16.5847 170.001C20.0783 157.864 29.3547 146.526 41.8118 144.447C44.6133 143.98 47.584 144.009 50.1765 145.168C51.9238 145.949 53.4097 147.2 55.0135 148.245C58.9205 150.79 63.6118 152.112 68.2741 151.981C74.6515 151.804 80.923 148.996 87.2286 149.974C95.3727 151.238 101.257 158.448 105.005 165.788C111.697 178.901 114.147 194.137 111.903 208.687C111.642 210.358 41.425 208.351 34.8408 208.312C26.3197 208.262 18.7627 209.003 15.3645 200.012C12.1195 191.427 14.1572 178.438 16.5847 170.001Z" fill="#C3C62B"/>
<path d="M98.3593 68.9242C95.5065 74.7746 94.4405 81.4831 95.3393 87.9313C99.6235 89.2426 104.077 86.6575 107.584 83.8678C109.883 82.038 112.128 79.9961 113.41 77.3521C114.695 74.7082 114.83 71.3271 113.059 68.982C111.431 66.8266 108.525 65.9567 105.827 66.112C103.131 66.2674 100.572 67.2947 98.0679 68.3082" fill="#FFE7FB"/>
<path d="M64.4909 87.7515C64.8305 87.8318 63.6606 92.1824 58.7476 92.0999C53.8346 92.0185 50.2318 93.9833 50.3143 102.582L48.1599 101.27C48.1599 101.27 43.6219 82.831 64.4909 87.7515Z" fill="black"/>
<path d="M64.6006 87.7515C64.2599 87.8318 65.4298 92.1824 70.3428 92.0999C75.2558 92.0185 78.8586 93.9833 78.7772 102.582L80.9316 101.27C80.9316 101.27 85.4685 82.831 64.6006 87.7515Z" fill="black"/>
<path d="M30.5682 51.7738C30.5682 51.7738 30.3753 63.9749 32.85 77.8493C35.0783 90.3407 39.46 104.182 48.084 111.681C52.0799 115.151 56.9758 117.263 62.9858 117.272C67.7638 117.272 71.8883 116.352 75.4451 114.713C76.2486 114.348 77.0199 113.942 77.7591 113.501C78.0055 113.363 78.2519 113.212 78.4876 113.051C78.9804 112.752 79.4518 112.43 79.9124 112.088C80.1053 111.949 80.2874 111.81 80.4802 111.669C80.748 111.456 81.0159 111.253 81.273 111.028C81.7015 110.674 82.1193 110.309 82.5264 109.924C82.9764 109.505 83.4263 109.067 83.8548 108.606C84.1976 108.242 84.5405 107.856 84.8726 107.471C84.9047 107.439 84.9368 107.396 84.969 107.363C85.2689 107.01 85.5582 106.645 85.8367 106.282C85.8796 106.239 85.9224 106.185 85.9546 106.142C91.7825 98.5576 94.7178 88.1874 96.1319 78.5232C96.1427 78.4921 96.1427 78.4803 96.1427 78.4803C98.2103 64.3498 97.0533 51.7738 97.0533 51.7738" stroke="black" stroke-miterlimit="10"/>
<path d="M51.6084 114.08L51.5977 114.22L50.4407 126.411L49.4765 136.599L34.3497 146.081L28.5325 149.734C27.9004 150.13 27.2791 150.537 26.6684 150.966C16.3304 158.111 9.06692 168.932 6.38866 181.261L1 206.042" stroke="black" stroke-miterlimit="10"/>
<path d="M75.4453 114.713L75.7667 118.109L77.5236 136.598L94.4609 147.226L98.4676 149.733C99.7318 150.525 100.964 151.371 102.142 152.283C111.516 159.397 118.094 169.66 120.611 181.261L126 206.041" stroke="black" stroke-miterlimit="10"/>
<path d="M31.5963 70.781C31.5963 70.781 24.0619 60.1815 19.647 64.6714C15.2332 69.1612 22.1871 92.4321 35.1702 90.448" stroke="black" stroke-miterlimit="10"/>
<path d="M97.0713 70.4786C97.0713 70.4786 104.246 59.6328 108.808 63.9715C113.371 68.3103 107.202 91.8019 94.1595 90.2549" stroke="black" stroke-miterlimit="10"/>
<path d="M24.443 74.0945C24.443 74.0945 30.5141 74.4544 32.8463 79.4114" stroke="black" stroke-miterlimit="10"/>
<path d="M27.4062 79.1082C27.4062 79.1082 27.7116 77.0438 31.5875 77.5002" stroke="black" stroke-miterlimit="10"/>
<path d="M104.471 73.5535C104.471 73.5535 98.4146 74.1159 96.2506 79.1478" stroke="black" stroke-miterlimit="10"/>
<path d="M101.678 78.6635C101.678 78.6635 101.304 76.6098 97.4443 77.1968" stroke="black" stroke-miterlimit="10"/>
<path d="M96.2513 72.4038C96.2513 72.4038 92.4835 70.7658 92.4835 66.8352C92.4835 62.9046 94.4494 55.8629 91.829 51.7684C89.2096 47.6749 85.4419 43.9082 85.4419 43.9082C85.4419 43.9082 62.6788 38.3407 36.8036 47.0193C36.8036 47.0193 32.9983 50.5075 34.0193 57.276C36.4758 73.5534 31.8424 72.466 31.8424 72.466C31.8424 72.466 24.4429 61.7583 26.7462 51.1963C26.7462 51.1963 12.861 37.9582 23.4573 17.296C35.1709 -5.54958 75.5591 -3.85371 89.3168 11.2838C100.362 23.4378 96.2513 31.4618 96.2513 31.4618C96.2513 31.4618 111.975 45.5463 96.2513 72.4038Z" fill="black"/>
<path d="M43.1157 41.1227C41.047 38.6126 39.4647 35.7137 38.2317 32.6851C36.9997 29.649 36.2508 26.4094 35.9851 23.1301C35.8052 21.49 35.9251 19.8402 35.9766 18.1957C36.2572 16.5727 36.359 14.9164 36.9086 13.3566C37.1582 12.5735 37.3135 11.7636 37.6392 11.0105L38.5959 8.75001C38.8905 7.98617 39.3469 7.30161 39.7593 6.59991C40.1729 5.8982 40.5982 5.20614 41.0278 4.52051C39.6587 7.46231 38.2981 10.3955 37.7078 13.5548C37.2889 15.0986 37.2011 16.7012 36.9879 18.276C36.9718 19.8691 36.8593 21.461 37.0522 23.0476C37.2846 26.223 37.9767 29.363 38.9998 32.399C39.529 33.9117 40.1182 35.4083 40.8221 36.8567C41.4734 38.333 42.2672 39.7396 43.1157 41.1227Z" fill="white"/>
<path d="M50.4819 0.891357C49.3635 2.72436 48.6575 4.73627 48.049 6.74925C47.4715 8.77723 47.0837 10.8523 46.8352 12.9446L46.6606 14.5162L46.5684 16.0974C46.4624 17.1516 46.517 18.2111 46.4699 19.2717C46.4624 20.3323 46.5192 21.394 46.5224 22.461C46.5609 23.5269 46.6552 24.5907 46.6702 25.6696C46.4142 24.6272 46.217 23.5709 45.9996 22.5135C45.8699 21.4465 45.6996 20.3784 45.6343 19.3006C45.4982 17.1473 45.5046 14.9726 45.7714 12.8171C46.0478 10.667 46.4967 8.52761 47.2573 6.48892C48.0158 4.46201 49.0239 2.48439 50.4819 0.891357Z" fill="white"/>
<path d="M49.1258 13.281C48.9951 12.1208 49.0412 10.9584 49.1644 9.80568C49.2812 8.65189 49.5126 7.50988 49.834 6.38822C50.1725 5.27192 50.5807 4.1642 51.1935 3.14967C51.7891 2.13943 52.5508 1.17419 53.5525 0.561401C52.8604 1.50093 52.3751 2.49832 51.9412 3.52249C51.5138 4.54772 51.1699 5.61153 50.8624 6.68819C50.2143 8.83829 49.7483 11.0441 49.1258 13.281Z" fill="white"/>
<path d="M63.0577 13.2809C62.9731 15.6067 62.821 17.9057 62.8563 20.2037C62.8938 22.4995 63.0085 24.7867 63.3106 27.0504C63.6148 29.3129 64.1237 31.5348 64.7847 33.7192C65.1639 34.7927 65.5239 35.8822 66.0424 36.9042C66.4441 37.9916 67.1041 38.9333 67.6204 39.9842C66.1153 38.2144 64.894 36.1811 64.0091 33.9999C63.1413 31.8144 62.5853 29.5144 62.2478 27.1918C61.9661 24.8617 61.8772 22.5123 62.0357 20.1822C62.1064 19.0166 62.236 17.8564 62.3957 16.7037C62.5842 15.5531 62.8081 14.4133 63.0577 13.2809Z" fill="white"/>
<path d="M58.3463 42.5541C58.3463 42.5541 49.2499 45.4638 52.3202 51.7684C52.3202 51.7684 45.4564 41.1593 58.3463 42.5541Z" fill="black"/>
<path d="M39.7513 60.7554C40.3019 60.0484 40.9147 59.5577 41.5371 59.0831L43.4034 59.1581C44.645 59.231 45.8845 59.3724 47.1197 59.5834C48.3571 59.7902 49.5859 60.1062 50.8018 60.493C51.406 60.7019 52.0113 60.9129 52.6026 61.1829C53.0076 61.8664 53.3451 62.6184 53.554 63.4433C52.7033 63.7369 52.0199 63.8772 51.3149 64.129C50.8275 63.9029 50.3111 63.724 49.7948 63.5451C48.7492 63.2141 47.6747 62.9334 46.5691 62.7502C45.4656 62.5617 44.3451 62.4331 43.217 62.3667C42.6524 62.3431 42.0878 62.2992 41.5254 62.3292C40.9597 61.846 40.3855 61.3854 39.7513 60.7554Z" fill="black"/>
<path d="M48.1606 69.9979C48.1606 71.7269 47.281 73.1293 46.1947 73.1293C45.1095 73.1293 44.2299 71.7269 44.2299 69.9979C44.2299 68.2677 45.1095 66.8654 46.1947 66.8654C47.281 66.8654 48.1606 68.2677 48.1606 69.9979Z" fill="black"/>
<path d="M86.6183 59.9572C85.9948 60.5904 85.4516 61.0735 84.9245 61.576C84.3792 61.5695 83.8329 61.6413 83.2876 61.6992C82.198 61.832 81.1182 62.0548 80.0672 62.3559C79.0141 62.6494 77.9889 63.0297 77.0151 63.5032C76.5201 63.7261 76.0488 63.9907 75.5838 64.2639C74.8585 64.1032 74.1569 64.0485 73.2827 63.8461C73.3994 63.0062 73.634 62.2273 73.9436 61.4999C74.4954 61.1764 75.0535 60.8657 75.6331 60.6021C76.7794 60.0461 77.9728 59.6037 79.1898 59.2641C80.4047 58.917 81.642 58.662 82.8922 58.5099C83.5168 58.4274 84.1457 58.3942 84.7767 58.3331C85.428 58.7841 86.0655 59.2534 86.6183 59.9572Z" fill="black"/>
<path d="M78.5114 69.9979C78.5114 71.7269 79.3909 73.1293 80.4761 73.1293C81.5624 73.1293 82.442 71.7269 82.442 69.9979C82.442 68.2677 81.5624 66.8654 80.4761 66.8654C79.3909 66.8654 78.5114 68.2677 78.5114 69.9979Z" fill="black"/>
<path d="M60.8271 68.5903C60.9503 69.081 61.1956 76.5105 57.6346 84.8024C57.6346 84.8024 61.3884 87.3071 65.9329 84.5238" stroke="black" stroke-miterlimit="10"/>
<path d="M56.2319 94.7145C56.2319 94.7145 64.4991 96.4939 73.2838 95.1923" stroke="black" stroke-miterlimit="10"/>
<path d="M60.9294 98.4719C60.9294 98.4719 65.5992 99.2497 68.0525 97.9406" stroke="black" stroke-miterlimit="10"/>
<path d="M96.1324 78.5233C94.7183 88.1876 91.7829 98.5578 85.955 106.143C83.1589 109.764 79.7093 112.753 75.4455 114.713C71.8888 116.352 67.7643 117.272 62.9862 117.272C56.9762 117.263 52.0804 115.151 48.0844 111.681C39.4604 104.182 35.0788 90.3409 32.8504 77.8495C32.8504 77.8495 38.5605 91.4872 42.6208 96.1474C46.6703 100.818 50.677 104.417 64.9467 104.664C79.2165 104.417 83.2339 100.818 87.2834 96.1474C91.2044 91.6372 95.8431 79.284 96.1324 78.5233Z" fill="black"/>
<path d="M49.4735 136.599L65.933 154.123L77.5266 136.599" stroke="black" stroke-miterlimit="10"/>
<path d="M43.2391 140.51L50.8871 156.251L61.3891 149.284" stroke="black" stroke-miterlimit="10"/>
<path d="M70.3002 147.522L79.2188 156.251L86.8454 142.443" stroke="black" stroke-miterlimit="10"/>
<path d="M65.9332 154.123H70.2998C70.2998 154.123 71.1943 162.147 66.772 163.621L65.9332 206.036" stroke="black" stroke-miterlimit="10"/>
<path d="M37.9384 206.042H29.4216L26.6683 150.966C27.2789 150.537 27.9003 150.13 28.5324 149.734L34.3496 146.081L37.9384 206.042Z" fill="black"/>
<path d="M102.142 152.283L99.4634 206.041H90.9466L94.4604 147.227L98.4671 149.734C99.7312 150.525 100.963 151.372 102.142 152.283Z" fill="black"/>
<path d="M75.7669 118.109C66.8965 121.076 55.1657 124.89 50.4412 126.411L51.5982 114.22C54.8657 116.159 58.6367 117.262 62.9862 117.272C67.7642 117.272 71.8887 116.352 75.4455 114.713L75.7669 118.109Z" fill="black"/>
</svg>
