<svg width="167" height="50" fill="none" xmlns="http://www.w3.org/2000/svg"><path d="M25.163 0c-13.802 0-25 11.197-25 25s11.198 25 25 25c13.803 0 25-11.197 25-25 .046-13.803-11.152-25-25-25Zm11.472 36.06a1.559 1.559 0 0 1-2.148.503c-5.896-3.61-13.254-4.388-21.984-2.422-.822.183-1.69-.32-1.874-1.188-.182-.823.32-1.692 1.189-1.874 9.552-2.194 17.687-1.234 24.314 2.788.731.502.96 1.462.503 2.193Zm3.062-6.81c-.549.915-1.783 1.189-2.697.64-6.718-4.113-16.956-5.347-24.908-2.925a1.937 1.937 0 1 1-1.143-3.702c9.095-2.742 20.384-1.417 28.108 3.337.914.548 1.234 1.736.64 2.65Zm.274-7.084c-8.044-4.799-21.343-5.21-29.067-2.879-1.234.366-2.56-.32-2.925-1.554-.366-1.234.32-2.56 1.553-2.925 8.821-2.697 23.538-2.148 32.816 3.336 1.097.64 1.462 2.103.822 3.2s-2.102 1.462-3.199.822Zm28.245.914c-4.342-1.05-5.073-1.736-5.073-3.29 0-1.417 1.371-2.422 3.382-2.422 1.965 0 3.885.73 5.896 2.239.046.046.137.046.228.046.092 0 .138-.046.183-.137l2.103-2.971c.091-.137.045-.274-.046-.366-2.422-1.92-5.119-2.88-8.318-2.88-4.662 0-7.907 2.789-7.907 6.81 0 4.297 2.834 5.805 7.678 6.993 4.114.96 4.845 1.737 4.845 3.154 0 1.6-1.417 2.56-3.702 2.56-2.514 0-4.57-.869-6.901-2.834a.35.35 0 0 0-.229-.092c-.091 0-.137.046-.183.092l-2.376 2.833c-.092.138-.092.275.045.412 2.697 2.376 5.988 3.656 9.507 3.656 5.027 0 8.272-2.742 8.272-6.993 0-3.565-2.148-5.53-7.404-6.81ZM87 18.83c-2.193 0-3.976.868-5.438 2.605V19.47a.295.295 0 0 0-.275-.274h-3.884a.295.295 0 0 0-.275.274v21.983c0 .137.138.275.275.275h3.884a.295.295 0 0 0 .275-.275v-6.947c1.462 1.646 3.245 2.468 5.438 2.468 4.068 0 8.136-3.107 8.136-9.049 0-5.987-4.068-9.095-8.136-9.095Zm3.657 9.05c0 3.016-1.874 5.164-4.525 5.164-2.65 0-4.662-2.194-4.662-5.165 0-2.925 2.011-5.164 4.662-5.164 2.605.046 4.525 2.194 4.525 5.164Zm14.991-9.05c-5.211 0-9.278 4.022-9.278 9.14 0 5.074 4.067 9.05 9.232 9.05 5.21 0 9.323-4.022 9.323-9.095 0-5.119-4.067-9.095-9.277-9.095Zm0 14.26c-2.788 0-4.845-2.24-4.845-5.165 0-2.97 2.011-5.119 4.799-5.119 2.788 0 4.89 2.24 4.89 5.165 0 2.97-2.056 5.119-4.844 5.119Zm20.384-13.94h-4.251v-4.342a.295.295 0 0 0-.274-.274h-3.885a.295.295 0 0 0-.274.274v4.342h-1.874a.295.295 0 0 0-.274.274v3.337c0 .137.137.274.274.274h1.874v8.592c0 3.473 1.737 5.256 5.164 5.256 1.371 0 2.514-.274 3.611-.914a.252.252 0 0 0 .137-.229v-3.153a.252.252 0 0 0-.137-.229.29.29 0 0 0-.274 0 4.96 4.96 0 0 1-2.286.549c-1.234 0-1.782-.549-1.782-1.828V23.08h4.251a.295.295 0 0 0 .274-.274V19.47c.045-.183-.092-.274-.274-.32Zm14.853.046v-.549c0-1.554.594-2.285 1.966-2.285.822 0 1.462.183 2.193.411.092.046.183 0 .275-.045a.252.252 0 0 0 .137-.229v-3.245c0-.137-.092-.228-.183-.274-.777-.229-1.737-.457-3.199-.457-3.565 0-5.439 2.01-5.439 5.804v.823h-1.874a.295.295 0 0 0-.274.274v3.337c0 .137.137.274.274.274h1.874v13.254c0 .137.137.274.274.274h3.885a.295.295 0 0 0 .274-.274V23.035h3.611l5.53 13.254c-.64 1.371-1.234 1.69-2.103 1.69-.685 0-1.416-.182-2.148-.593-.091-.046-.137-.046-.228 0-.092.045-.137.091-.183.137l-1.325 2.88c-.046.136 0 .273.137.365 1.371.731 2.605 1.051 4.113 1.051 2.834 0 4.433-1.325 5.804-4.89l6.719-17.322c.046-.091.046-.183-.046-.274a.25.25 0 0 0-.228-.137h-4.022a.308.308 0 0 0-.274.182l-4.114 11.792-4.524-11.792a.31.31 0 0 0-.275-.182h-6.627Zm-8.592-.046h-3.885a.295.295 0 0 0-.274.274V36.29c0 .137.137.274.274.274h3.885a.295.295 0 0 0 .274-.274V19.424a.295.295 0 0 0-.274-.274Zm-1.92-7.678a2.77 2.77 0 0 0-2.788 2.788 2.77 2.77 0 0 0 2.788 2.787 2.77 2.77 0 0 0 2.788-2.787c-.045-1.509-1.279-2.788-2.788-2.788Zm33.867 13.117a2.75 2.75 0 0 1-2.742-2.743 2.721 2.721 0 0 1 2.742-2.742 2.75 2.75 0 0 1 2.742 2.742 2.721 2.721 0 0 1-2.742 2.743Zm0-5.165c-1.417 0-2.468 1.097-2.468 2.468s1.051 2.468 2.422 2.468c1.417 0 2.468-1.097 2.468-2.468.046-1.371-1.005-2.468-2.422-2.468Zm.64 2.697.777 1.097h-.64l-.686-1.006h-.594v1.006h-.548v-2.88h1.279c.686 0 1.097.32 1.097.914-.045.503-.32.777-.685.869Zm-.457-1.28h-.686v.914h.686c.365 0 .548-.183.548-.457s-.228-.457-.548-.457Z" fill="#1ED760"/></svg>