<svg width="23" height="19" fill="none" xmlns="http://www.w3.org/2000/svg"><path d="M22.42 2.658c-.695.314-1.462.504-2.212.63.356-.06.878-.704 1.088-.964.32-.397.584-.85.733-1.339.02-.038.035-.086-.004-.115-.048-.018-.079-.009-.117.01-.837.448-1.702.773-2.623 1.004a.176.176 0 0 1-.18-.049 2.083 2.083 0 0 0-.23-.234 4.647 4.647 0 0 0-1.27-.778A4.428 4.428 0 0 0 15.657.51a4.66 4.66 0 0 0-1.848.522 4.77 4.77 0 0 0-1.492 1.218 4.587 4.587 0 0 0-.89 1.784c-.153.628-.14 1.248-.047 1.883.014.105.005.12-.09.105-3.602-.536-6.587-1.824-9.01-4.586-.106-.12-.163-.12-.25.009-1.06 1.59-.546 4.143.78 5.398.176.168.357.335.553.487-.071.015-.953-.08-1.739-.487-.104-.067-.158-.028-.167.091-.01.172.005.33.028.516.204 1.612 1.32 3.102 2.848 3.684.182.076.383.143.578.176-.348.077-.707.131-1.705.053-.125-.024-.172.038-.125.158.751 2.045 2.37 2.654 3.583 3 .163.028.326.028.488.067-.01.014-.02.014-.03.029-.401.613-1.796 1.069-2.446 1.296-1.181.413-2.468.599-3.716.475-.2-.029-.242-.026-.296 0-.055.035-.007.082.057.134.254.168.512.316.775.46.792.42 1.619.754 2.484.993 4.464 1.232 9.492.326 12.845-3.004 2.632-2.615 3.555-6.222 3.555-9.833 0-.142.167-.22.265-.294.686-.515 1.238-1.13 1.749-1.818a.553.553 0 0 0 .116-.349v-.018c0-.058-.001-.04-.09 0Z" fill="#fff"/></svg>